<svg xmlns="http://www.w3.org/2000/svg" xmlns:xlink="http://www.w3.org/1999/xlink" contentStyleType="text/css" height="1192px" preserveAspectRatio="none" style="width:526px;height:1192px;background:#FFFFFF;" version="1.1" viewBox="0 0 526 1192" width="526px" zoomAndPan="magnify"><title>Activity &#8212; experiment program (current proxy to future validation)</title><defs/><g><text fill="#000000" font-family="sans-serif" font-size="14" font-weight="bold" lengthAdjust="spacing" textLength="483.499" x="20" y="33.5352">Activity &#8212; experiment program (current proxy to future validation)</text><ellipse cx="188.4312" cy="57.4883" fill="#222222" rx="10" ry="10" style="stroke:#222222;stroke-width:1.0;"/><rect fill="#F1F1F1" height="48.2656" rx="12.5" ry="12.5" style="stroke:#181818;stroke-width:0.5;" width="285.5176" x="45.6724" y="87.4883"/><text fill="#000000" font-family="sans-serif" font-size="12" lengthAdjust="spacing" textLength="145.3887" x="55.6724" y="109.0898">Define research question</text><text fill="#000000" font-family="sans-serif" font-size="12" lengthAdjust="spacing" textLength="265.5176" x="55.6724" y="123.2227">(fairness / coexistence / energy under stress)</text><rect fill="#F1F1F1" height="62.3984" rx="12.5" ry="12.5" style="stroke:#181818;stroke-width:0.5;" width="241.3672" x="67.7476" y="155.7539"/><text fill="#000000" font-family="sans-serif" font-size="12" lengthAdjust="spacing" textLength="175.5703" x="77.7476" y="177.3555">Choose independent variables</text><text fill="#000000" font-family="sans-serif" font-size="12" lengthAdjust="spacing" textLength="200.8418" x="77.7476" y="191.4883">preset, RF stress, occupancy prior,</text><text fill="#000000" font-family="sans-serif" font-size="12" lengthAdjust="spacing" textLength="221.3672" x="77.7476" y="205.6211">loaded simulation layer, policy variant</text><rect fill="#F1F1F1" height="48.2656" rx="12.5" ry="12.5" style="stroke:#181818;stroke-width:0.5;" width="241.1973" x="67.8325" y="238.1523"/><text fill="#000000" font-family="sans-serif" font-size="12" lengthAdjust="spacing" textLength="101.2617" x="77.8325" y="259.7539">Choose baselines</text><text fill="#000000" font-family="sans-serif" font-size="12" lengthAdjust="spacing" textLength="221.1973" x="77.8325" y="273.8867">hold-scan, fairness-off, detector-free</text><rect fill="#F1F1F1" height="62.3984" rx="12.5" ry="12.5" style="stroke:#181818;stroke-width:0.5;" width="230.1113" x="73.3755" y="306.418"/><text fill="#000000" font-family="sans-serif" font-size="12" lengthAdjust="spacing" textLength="71.1328" x="83.3755" y="328.0195">Choose KPIs</text><text fill="#000000" font-family="sans-serif" font-size="12" lengthAdjust="spacing" textLength="210.1113" x="83.3755" y="342.1523">coexistence, fairness, energy proxy,</text><text fill="#000000" font-family="sans-serif" font-size="12" lengthAdjust="spacing" textLength="155.0156" x="83.3755" y="356.2852">continuity, coverage proxy</text><rect fill="#F1F1F1" height="76.5313" rx="12.5" ry="12.5" style="stroke:#181818;stroke-width:0.5;" width="207.8633" x="84.4995" y="388.8164"/><text fill="#000000" font-family="sans-serif" font-size="12" lengthAdjust="spacing" textLength="38.9121" x="94.4995" y="410.418">Assign</text><text fill="#000000" font-family="sans-serif" font-size="12" font-weight="bold" lengthAdjust="spacing" textLength="79.541" x="137.2085" y="410.418">evidence tier</text><text fill="#000000" font-family="sans-serif" font-size="12" lengthAdjust="spacing" textLength="176.2207" x="94.4995" y="424.5508">proxy-only &#8594; loaded demo &#8594;</text><text fill="#000000" font-family="sans-serif" font-size="12" lengthAdjust="spacing" textLength="162.123" x="94.4995" y="438.6836">loaded simulation export &#8594;</text><text fill="#000000" font-family="sans-serif" font-size="12" lengthAdjust="spacing" textLength="187.8633" x="94.4995" y="452.8164">OTA-backed / external-runtime</text><rect fill="#F1F1F1" height="48.2656" rx="12.5" ry="12.5" style="stroke:#181818;stroke-width:0.5;" width="174.2363" x="101.313" y="533.8252"/><text fill="#000000" font-family="sans-serif" font-size="12" lengthAdjust="spacing" textLength="154.2363" x="111.313" y="555.4268">Execute scenario engine +</text><text fill="#000000" font-family="sans-serif" font-size="12" lengthAdjust="spacing" textLength="124.0547" x="111.313" y="569.5596">rule-based controller</text><rect fill="#F1F1F1" height="34.1328" rx="12.5" ry="12.5" style="stroke:#181818;stroke-width:0.5;" width="166.5547" x="105.1538" y="602.0908"/><text fill="#000000" font-family="sans-serif" font-size="12" lengthAdjust="spacing" textLength="146.5547" x="115.1538" y="623.6924">Load manifests if on disk</text><rect fill="#F1F1F1" height="34.1328" rx="12.5" ry="12.5" style="stroke:#181818;stroke-width:0.5;" width="168.8516" x="104.0054" y="656.2236"/><text fill="#000000" font-family="sans-serif" font-size="12" lengthAdjust="spacing" textLength="148.8516" x="114.0054" y="677.8252">Record provenance labels</text><polygon fill="#F1F1F1" points="115.6072,485.3477,261.2551,485.3477,273.2551,497.3477,261.2551,509.3477,115.6072,509.3477,103.6072,497.3477,115.6072,485.3477" style="stroke:#181818;stroke-width:0.5;"/><text fill="#000000" font-family="sans-serif" font-size="11" lengthAdjust="spacing" textLength="17.4829" x="192.4312" y="519.9824">yes</text><text fill="#000000" font-family="sans-serif" font-size="11" lengthAdjust="spacing" textLength="145.6479" x="115.6072" y="501.5049">Run current Streamlit path?</text><text fill="#000000" font-family="sans-serif" font-size="11" lengthAdjust="spacing" textLength="13.5835" x="273.2551" y="495.0273">no</text><polygon fill="#F1F1F1" points="188.4312,710.3564,200.4312,722.3564,188.4312,734.3564,176.4312,722.3564,188.4312,710.3564" style="stroke:#181818;stroke-width:0.5;"/><rect fill="#F1F1F1" height="48.2656" rx="12.5" ry="12.5" style="stroke:#181818;stroke-width:0.5;" width="171.2949" x="102.7837" y="802.834"/><text fill="#000000" font-family="sans-serif" font-size="12" lengthAdjust="spacing" textLength="147.4512" x="112.7837" y="824.4355">Drop JSON/GeoJSON/NPZ</text><text fill="#000000" font-family="sans-serif" font-size="12" lengthAdjust="spacing" textLength="151.2949" x="112.7837" y="838.5684">under data/ or examples/</text><rect fill="#F1F1F1" height="48.2656" rx="12.5" ry="12.5" style="stroke:#181818;stroke-width:0.5;" width="131.75" x="122.5562" y="886.0996"/><text fill="#000000" font-family="sans-serif" font-size="12" lengthAdjust="spacing" textLength="111.75" x="132.5562" y="907.7012">Re-run validators /</text><text fill="#000000" font-family="sans-serif" font-size="12" lengthAdjust="spacing" textLength="62.1445" x="132.5562" y="921.834">reload app</text><polygon fill="#F1F1F1" points="119.1709,754.3564,257.6914,754.3564,269.6914,766.3564,257.6914,778.3564,119.1709,778.3564,107.1709,766.3564,119.1709,754.3564" style="stroke:#181818;stroke-width:0.5;"/><text fill="#000000" font-family="sans-serif" font-size="11" lengthAdjust="spacing" textLength="17.4829" x="192.4312" y="788.9912">yes</text><text fill="#000000" font-family="sans-serif" font-size="11" lengthAdjust="spacing" textLength="138.5205" x="119.1709" y="770.5137">Import simulation export?</text><text fill="#000000" font-family="sans-serif" font-size="11" lengthAdjust="spacing" textLength="13.5835" x="269.6914" y="764.0361">no</text><polygon fill="#F1F1F1" points="188.4312,954.3652,200.4312,966.3652,188.4312,978.3652,176.4312,966.3652,188.4312,954.3652" style="stroke:#181818;stroke-width:0.5;"/><rect fill="#F1F1F1" height="48.2656" rx="12.5" ry="12.5" style="stroke:#181818;stroke-width:0.5;" width="154.168" x="111.3472" y="998.3652"/><text fill="#000000" font-family="sans-serif" font-size="12" lengthAdjust="spacing" textLength="108.5156" x="121.3472" y="1019.9668">Evaluate KPI deltas</text><text fill="#000000" font-family="sans-serif" font-size="12" lengthAdjust="spacing" textLength="134.168" x="121.3472" y="1034.0996">(heuristic model today)</text><rect fill="#F1F1F1" height="62.3984" rx="12.5" ry="12.5" style="stroke:#181818;stroke-width:0.5;" width="177.2305" x="99.8159" y="1066.6309"/><text fill="#000000" font-family="sans-serif" font-size="12" lengthAdjust="spacing" textLength="24.1758" x="109.8159" y="1088.2324">Plan</text><text fill="#000000" font-family="sans-serif" font-size="12" font-weight="bold" lengthAdjust="spacing" textLength="117.3223" x="137.7886" y="1088.2324">next validation tier</text><text fill="#000000" font-family="sans-serif" font-size="12" lengthAdjust="spacing" textLength="148.4473" x="109.8159" y="1102.3652">external Sionna / AODT /</text><text fill="#000000" font-family="sans-serif" font-size="12" lengthAdjust="spacing" textLength="157.2305" x="109.8159" y="1116.498">pyAerial runtime / lab OTA</text><path d="M219.4312,1139.7188 L219.4312,1156.0293 L199.4312,1160.0293 L219.4312,1164.0293 L219.4312,1180.3398 A0,0 0 0 0 219.4312,1180.3398 L479.8267,1180.3398 A0,0 0 0 0 479.8267,1180.3398 L479.8267,1149.7188 L469.8267,1139.7188 L219.4312,1139.7188 A0,0 0 0 0 219.4312,1139.7188 " fill="#FEFFDD" style="stroke:#181818;stroke-width:0.5;"/><path d="M469.8267,1139.7188 L469.8267,1149.7188 L479.8267,1149.7188 L469.8267,1139.7188 " fill="#FEFFDD" style="stroke:#181818;stroke-width:0.5;"/><text fill="#000000" font-family="sans-serif" font-size="13" lengthAdjust="spacing" textLength="21.4868" x="225.4312" y="1157.2871">See</text><text fill="#000000" font-family="sans-serif" font-size="13" font-weight="bold" lengthAdjust="spacing" textLength="213.7954" x="251.0313" y="1157.2871">docs/PROVENANCE_LEGEND.md</text><text fill="#000000" font-family="sans-serif" font-size="13" lengthAdjust="spacing" textLength="23.4292" x="225.4312" y="1172.5977">and</text><text fill="#000000" font-family="sans-serif" font-size="13" font-weight="bold" lengthAdjust="spacing" textLength="202.8647" x="252.9736" y="1172.5977">EXTERNAL_RUNTIME_GAPS.md</text><ellipse cx="188.4312" cy="1160.0293" fill="none" rx="11" ry="11" style="stroke:#222222;stroke-width:1.0;"/><ellipse cx="188.4312" cy="1160.0293" fill="#222222" rx="6" ry="6" style="stroke:#222222;stroke-width:1.0;"/><line style="stroke:#181818;stroke-width:1.0;" x1="188.4312" x2="188.4312" y1="67.4883" y2="87.4883"/><polygon fill="#181818" points="184.4312,77.4883,188.4312,87.4883,192.4312,77.4883,188.4312,81.4883" style="stroke:#181818;stroke-width:1.0;"/><line style="stroke:#181818;stroke-width:1.0;" x1="188.4312" x2="188.4312" y1="135.7539" y2="155.7539"/><polygon fill="#181818" points="184.4312,145.7539,188.4312,155.7539,192.4312,145.7539,188.4312,149.7539" style="stroke:#181818;stroke-width:1.0;"/><line style="stroke:#181818;stroke-width:1.0;" x1="188.4312" x2="188.4312" y1="218.1523" y2="238.1523"/><polygon fill="#181818" points="184.4312,228.1523,188.4312,238.1523,192.4312,228.1523,188.4312,232.1523" style="stroke:#181818;stroke-width:1.0;"/><line style="stroke:#181818;stroke-width:1.0;" x1="188.4312" x2="188.4312" y1="286.418" y2="306.418"/><polygon fill="#181818" points="184.4312,296.418,188.4312,306.418,192.4312,296.418,188.4312,300.418" style="stroke:#181818;stroke-width:1.0;"/><line style="stroke:#181818;stroke-width:1.0;" x1="188.4312" x2="188.4312" y1="368.8164" y2="388.8164"/><polygon fill="#181818" points="184.4312,378.8164,188.4312,388.8164,192.4312,378.8164,188.4312,382.8164" style="stroke:#181818;stroke-width:1.0;"/><line style="stroke:#181818;stroke-width:1.0;" x1="188.4312" x2="188.4312" y1="582.0908" y2="602.0908"/><polygon fill="#181818" points="184.4312,592.0908,188.4312,602.0908,192.4312,592.0908,188.4312,596.0908" style="stroke:#181818;stroke-width:1.0;"/><line style="stroke:#181818;stroke-width:1.0;" x1="188.4312" x2="188.4312" y1="636.2236" y2="656.2236"/><polygon fill="#181818" points="184.4312,646.2236,188.4312,656.2236,192.4312,646.2236,188.4312,650.2236" style="stroke:#181818;stroke-width:1.0;"/><line style="stroke:#181818;stroke-width:1.0;" x1="188.4312" x2="188.4312" y1="509.3477" y2="533.8252"/><polygon fill="#181818" points="184.4312,523.8252,188.4312,533.8252,192.4312,523.8252,188.4312,527.8252" style="stroke:#181818;stroke-width:1.0;"/><line style="stroke:#181818;stroke-width:1.0;" x1="273.2551" x2="285.5493" y1="497.3477" y2="497.3477"/><polygon fill="#181818" points="281.5493,602.0908,285.5493,612.0908,289.5493,602.0908,285.5493,606.0908" style="stroke:#181818;stroke-width:1.0;"/><line style="stroke:#181818;stroke-width:1.0;" x1="285.5493" x2="285.5493" y1="497.3477" y2="722.3564"/><line style="stroke:#181818;stroke-width:1.0;" x1="285.5493" x2="200.4312" y1="722.3564" y2="722.3564"/><polygon fill="#181818" points="210.4312,718.3564,200.4312,722.3564,210.4312,726.3564,206.4312,722.3564" style="stroke:#181818;stroke-width:1.0;"/><line style="stroke:#181818;stroke-width:1.0;" x1="188.4312" x2="188.4312" y1="690.3564" y2="710.3564"/><polygon fill="#181818" points="184.4312,700.3564,188.4312,710.3564,192.4312,700.3564,188.4312,704.3564" style="stroke:#181818;stroke-width:1.0;"/><line style="stroke:#181818;stroke-width:1.0;" x1="188.4312" x2="188.4312" y1="465.3477" y2="485.3477"/><polygon fill="#181818" points="184.4312,475.3477,188.4312,485.3477,192.4312,475.3477,188.4312,479.3477" style="stroke:#181818;stroke-width:1.0;"/><line style="stroke:#181818;stroke-width:1.0;" x1="188.4312" x2="188.4312" y1="851.0996" y2="886.0996"/><polygon fill="#181818" points="184.4312,876.0996,188.4312,886.0996,192.4312,876.0996,188.4312,880.0996" style="stroke:#181818;stroke-width:1.0;"/><line style="stroke:#181818;stroke-width:1.0;" x1="188.4312" x2="188.4312" y1="778.3564" y2="802.834"/><polygon fill="#181818" points="184.4312,792.834,188.4312,802.834,192.4312,792.834,188.4312,796.834" style="stroke:#181818;stroke-width:1.0;"/><line style="stroke:#181818;stroke-width:1.0;" x1="269.6914" x2="284.0786" y1="766.3564" y2="766.3564"/><polygon fill="#181818" points="280.0786,858.5996,284.0786,868.5996,288.0786,858.5996,284.0786,862.5996" style="stroke:#181818;stroke-width:1.0;"/><line style="stroke:#181818;stroke-width:1.0;" x1="284.0786" x2="284.0786" y1="766.3564" y2="966.3652"/><line style="stroke:#181818;stroke-width:1.0;" x1="284.0786" x2="200.4312" y1="966.3652" y2="966.3652"/><polygon fill="#181818" points="210.4312,962.3652,200.4312,966.3652,210.4312,970.3652,206.4312,966.3652" style="stroke:#181818;stroke-width:1.0;"/><line style="stroke:#181818;stroke-width:1.0;" x1="188.4312" x2="188.4312" y1="934.3652" y2="954.3652"/><polygon fill="#181818" points="184.4312,944.3652,188.4312,954.3652,192.4312,944.3652,188.4312,948.3652" style="stroke:#181818;stroke-width:1.0;"/><line style="stroke:#181818;stroke-width:1.0;" x1="188.4312" x2="188.4312" y1="734.3564" y2="754.3564"/><polygon fill="#181818" points="184.4312,744.3564,188.4312,754.3564,192.4312,744.3564,188.4312,748.3564" style="stroke:#181818;stroke-width:1.0;"/><line style="stroke:#181818;stroke-width:1.0;" x1="188.4312" x2="188.4312" y1="978.3652" y2="998.3652"/><polygon fill="#181818" points="184.4312,988.3652,188.4312,998.3652,192.4312,988.3652,188.4312,992.3652" style="stroke:#181818;stroke-width:1.0;"/><line style="stroke:#181818;stroke-width:1.0;" x1="188.4312" x2="188.4312" y1="1046.6309" y2="1066.6309"/><polygon fill="#181818" points="184.4312,1056.6309,188.4312,1066.6309,192.4312,1056.6309,188.4312,1060.6309" style="stroke:#181818;stroke-width:1.0;"/><line style="stroke:#181818;stroke-width:1.0;" x1="188.4312" x2="188.4312" y1="1129.0293" y2="1149.0293"/><polygon fill="#181818" points="184.4312,1139.0293,188.4312,1149.0293,192.4312,1139.0293,188.4312,1143.0293" style="stroke:#181818;stroke-width:1.0;"/><!--SRC=[RLFDZjem4BxdAQOteA7SbqCLBUbgsoqWs5PLXRGQd0bOTUnqR2DowwaFKFK9-oGT1sYHTY-EOi-Clp-_QXbt3OB1piK0lg605hEWWo4eLD077Jhuy-CtqB4brWtP02sx7MC30nMPpnl73eA3EeR810SqkiAWdHrccG_88SjkPbHhIy3a2LdjuNiadqesTb2ZPalUmmIKewFsWQmY-IDBlEiWseeOV91UFvpAhDkzSvv0otvBiWY60xB6hI6_iMsw8-ImUdVkoS4f5LkqgXEisd6-iSPXHHLutKJJGqqQ4EVGEgEbhfzdmzLjM_HaX8BSi7Uc6dk5DeSBzh6hwnmg2gI2ut7DH5Uz7vRtqdP5xdzZVc7PgvYdAXkqZI9yBd8SI1oYqs4QM7YlTnP68phegfSfQEBHAD6Mah6pHWpx-GlE12jgNFf_YR5uwZYSJXUFnNYBwfjKYEx7G6pHZ3aAbYOnqJKCLj72nVErA8kDqU8-XltR8OGzMHXqv8SPm4rv91K3WLTaHKad97V9_jSRoz7GE8bPGQBApXZYQMfw48JGeDMrHCE3N2aWA-s_zQShKewhfCH1PYRc1hTa_3IJXM1WtJ2JCEZw1FQ-wSaze_iCwenT2-_NY_daZbp_dI-_RkmfT19Zd81ZQSQcbNXDpbYID9UWEvRe2Z5A4WEsxGkGRaefZXZwB8Wh9g0aOh2do189hQ1niYcFgCAkp_ZIOBBPYXTN3-gVsnUBO2sx5iMqOZ5xJ33Qhf2NAYTdy-H8X08nU9fUeskpp3h1mNgt3q9cJIJtL4xvoNAr-5pEY_bj-VHGtfNpsPkc6esa1cqbDUMNnt8rBnwULf_cZ_SVowUxOha-bGXBI5Eplm00]--></g></svg>