<svg xmlns="http://www.w3.org/2000/svg" xmlns:xlink="http://www.w3.org/1999/xlink" contentStyleType="text/css" height="632px" preserveAspectRatio="none" style="width:1074px;height:632px;background:#FFFFFF;" version="1.1" viewBox="0 0 1074 632" width="1074px" zoomAndPan="magnify"><title>Component view &#8212; **future** research stack (target)</title><defs/><g><text fill="#B71C1C" font-family="sans-serif" font-size="14" font-weight="bold" lengthAdjust="spacing" textLength="139.3438" x="350.9751" y="23.5352">Component view &#8212;</text><text fill="#B71C1C" font-family="sans-serif" font-size="14" font-weight="bold" lengthAdjust="spacing" textLength="44.4336" x="494.9331" y="23.5352">future</text><text fill="#B71C1C" font-family="sans-serif" font-size="14" font-weight="bold" lengthAdjust="spacing" textLength="163.0439" x="543.981" y="23.5352">research stack (target)</text><!--cluster Judged detector core\n(continues)--><g id="cluster_Judged detector core\n(continues)"><path d="M113.5,41.4883 L265.5195,41.4883 A3.75,3.75 0 0 1 268.0195,43.9883 L275.0195,80.4648 L275.5,80.4648 A2.5,2.5 0 0 1 278,82.9648 L278,152.9883 A2.5,2.5 0 0 1 275.5,155.4883 L113.5,155.4883 A2.5,2.5 0 0 1 111,152.9883 L111,43.9883 A2.5,2.5 0 0 1 113.5,41.4883 " fill="none" style="stroke:#000000;stroke-width:1.5;"/><line style="stroke:#000000;stroke-width:1.5;" x1="111" x2="275.0195" y1="80.4648" y2="80.4648"/><text fill="#000000" font-family="sans-serif" font-size="14" font-weight="bold" lengthAdjust="spacing" textLength="151.0195" x="115" y="57.0234">Judged detector core</text><text fill="#000000" font-family="sans-serif" font-size="14" font-weight="bold" lengthAdjust="spacing" textLength="80.6982" x="150.1606" y="73.5117">(continues)</text></g><!--cluster Digital twin--><g id="cluster_Digital twin"><path d="M443.5,182.9883 L528.5137,182.9883 A3.75,3.75 0 0 1 531.0137,185.4883 L538.0137,205.4766 L636.5,205.4766 A2.5,2.5 0 0 1 639,207.9766 L639,386.9883 A2.5,2.5 0 0 1 636.5,389.4883 L443.5,389.4883 A2.5,2.5 0 0 1 441,386.9883 L441,185.4883 A2.5,2.5 0 0 1 443.5,182.9883 " fill="none" style="stroke:#000000;stroke-width:1.5;"/><line style="stroke:#000000;stroke-width:1.5;" x1="441" x2="538.0137" y1="205.4766" y2="205.4766"/><text fill="#000000" font-family="sans-serif" font-size="14" font-weight="bold" lengthAdjust="spacing" textLength="84.0137" x="445" y="198.5234">Digital twin</text></g><!--cluster Simulation backbone--><g id="cluster_Simulation backbone"><path d="M288.5,65.9883 L440.0137,65.9883 A3.75,3.75 0 0 1 442.5137,68.4883 L449.5137,88.4766 L821.5,88.4766 A2.5,2.5 0 0 1 824,90.9766 L824,144.4883 A2.5,2.5 0 0 1 821.5,146.9883 L288.5,146.9883 A2.5,2.5 0 0 1 286,144.4883 L286,68.4883 A2.5,2.5 0 0 1 288.5,65.9883 " fill="none" style="stroke:#000000;stroke-width:1.5;"/><line style="stroke:#000000;stroke-width:1.5;" x1="286" x2="449.5137" y1="88.4766" y2="88.4766"/><text fill="#000000" font-family="sans-serif" font-size="14" font-weight="bold" lengthAdjust="spacing" textLength="150.5137" x="290" y="81.5234">Simulation backbone</text></g><!--cluster Controller ladder--><g id="cluster_Controller ladder"><path d="M649.5,291.4883 L773.7793,291.4883 A3.75,3.75 0 0 1 776.2793,293.9883 L783.2793,313.9766 L838.5,313.9766 A2.5,2.5 0 0 1 841,316.4766 L841,622.9883 A2.5,2.5 0 0 1 838.5,625.4883 L649.5,625.4883 A2.5,2.5 0 0 1 647,622.9883 L647,293.9883 A2.5,2.5 0 0 1 649.5,291.4883 " fill="#E8F5E9" style="stroke:#000000;stroke-width:1.5;"/><line style="stroke:#000000;stroke-width:1.5;" x1="647" x2="783.2793" y1="313.9766" y2="313.9766"/><text fill="#000000" font-family="sans-serif" font-size="14" font-weight="bold" lengthAdjust="spacing" textLength="123.2793" x="651" y="307.0234">Controller ladder</text></g><!--cluster PHY + MAC bridge--><g id="cluster_PHY + MAC bridge"><path d="M834.5,57.4883 L969.498,57.4883 A3.75,3.75 0 0 1 971.998,59.9883 L978.998,79.9766 L978.5,79.9766 A2.5,2.5 0 0 1 981,82.4766 L981,152.9883 A2.5,2.5 0 0 1 978.5,155.4883 L834.5,155.4883 A2.5,2.5 0 0 1 832,152.9883 L832,59.9883 A2.5,2.5 0 0 1 834.5,57.4883 " fill="none" style="stroke:#000000;stroke-width:1.5;"/><line style="stroke:#000000;stroke-width:1.5;" x1="832" x2="978.998" y1="79.9766" y2="79.9766"/><text fill="#000000" font-family="sans-serif" font-size="14" font-weight="bold" lengthAdjust="spacing" textLength="133.998" x="836" y="73.0234">PHY + MAC bridge</text></g><!--cluster OTA evidence--><g id="cluster_OTA evidence"><path d="M238.5,174.4883 L338.9971,174.4883 A3.75,3.75 0 0 1 341.4971,176.9883 L348.4971,196.9766 L427.5,196.9766 A2.5,2.5 0 0 1 430,199.4766 L430,269.9883 A2.5,2.5 0 0 1 427.5,272.4883 L238.5,272.4883 A2.5,2.5 0 0 1 236,269.9883 L236,176.9883 A2.5,2.5 0 0 1 238.5,174.4883 " fill="none" style="stroke:#000000;stroke-width:1.5;"/><line style="stroke:#000000;stroke-width:1.5;" x1="236" x2="348.4971" y1="196.9766" y2="196.9766"/><text fill="#000000" font-family="sans-serif" font-size="14" font-weight="bold" lengthAdjust="spacing" textLength="99.4971" x="240" y="190.0234">OTA evidence</text></g><!--cluster Provenance + experiments--><g id="cluster_Provenance + experiments"><path d="M16.5,174.4883 L209.9727,174.4883 A3.75,3.75 0 0 1 212.4727,176.9883 L219.4727,196.9766 L225.5,196.9766 A2.5,2.5 0 0 1 228,199.4766 L228,378.4883 A2.5,2.5 0 0 1 225.5,380.9883 L16.5,380.9883 A2.5,2.5 0 0 1 14,378.4883 L14,176.9883 A2.5,2.5 0 0 1 16.5,174.4883 " fill="none" style="stroke:#000000;stroke-width:1.5;"/><line style="stroke:#000000;stroke-width:1.5;" x1="14" x2="219.4727" y1="196.9766" y2="196.9766"/><text fill="#000000" font-family="sans-serif" font-size="14" font-weight="bold" lengthAdjust="spacing" textLength="192.4727" x="18" y="190.0234">Provenance + experiments</text></g><g id="elem_GMN35"><path d="M849,447.4883 L849,488.1094 A0,0 0 0 0 849,488.1094 L1067.0122,488.1094 A0,0 0 0 0 1067.0122,488.1094 L1067.0122,457.4883 L1057.0122,447.4883 L925.7253,447.4883 L800.5059,381.6177 L917.7253,447.4883 L849,447.4883 A0,0 0 0 0 849,447.4883 " fill="#FEFFDD" style="stroke:#181818;stroke-width:0.5;"/><path d="M1057.0122,447.4883 L1057.0122,457.4883 L1067.0122,457.4883 L1057.0122,447.4883 " fill="#FEFFDD" style="stroke:#181818;stroke-width:0.5;"/><text fill="#000000" font-family="sans-serif" font-size="13" font-weight="bold" lengthAdjust="spacing" textLength="169.8823" x="855" y="465.0566">Only rule-based baseline</text><text fill="#000000" font-family="sans-serif" font-size="13" lengthAdjust="spacing" textLength="197.0122" x="855" y="480.3672">is in the current Streamlit path.</text></g><!--entity det--><g id="elem_det"><rect fill="#F1F1F1" height="62.9766" rx="2.5" ry="2.5" style="stroke:#181818;stroke-width:0.5;" width="133.3242" x="136.5" y="84.4883"/><rect fill="#F1F1F1" height="10" style="stroke:#181818;stroke-width:0.5;" width="15" x="249.8242" y="89.4883"/><rect fill="#F1F1F1" height="2" style="stroke:#181818;stroke-width:0.5;" width="4" x="247.8242" y="91.4883"/><rect fill="#F1F1F1" height="2" style="stroke:#181818;stroke-width:0.5;" width="4" x="247.8242" y="95.4883"/><text fill="#000000" font-family="sans-serif" font-size="14" lengthAdjust="spacing" textLength="93.3242" x="151.5" y="118.0234">Submission +</text><text fill="#000000" font-family="sans-serif" font-size="14" lengthAdjust="spacing" textLength="74.7305" x="151.5" y="134.5117">offline eval</text></g><!--entity twin--><g id="elem_twin"><rect fill="#F1F1F1" height="46.4883" rx="2.5" ry="2.5" style="stroke:#181818;stroke-width:0.5;" width="182.4063" x="449" y="209.9883"/><rect fill="#F1F1F1" height="10" style="stroke:#181818;stroke-width:0.5;" width="15" x="611.4063" y="214.9883"/><rect fill="#F1F1F1" height="2" style="stroke:#181818;stroke-width:0.5;" width="4" x="609.4063" y="216.9883"/><rect fill="#F1F1F1" height="2" style="stroke:#181818;stroke-width:0.5;" width="4" x="609.4063" y="220.9883"/><text fill="#000000" font-family="sans-serif" font-size="14" lengthAdjust="spacing" textLength="142.4063" x="464" y="243.5234">Gary scenario engine</text></g><!--entity geo--><g id="elem_geo"><rect fill="#F1F1F1" height="62.9766" rx="2.5" ry="2.5" style="stroke:#181818;stroke-width:0.5;" width="121.2246" x="479.5" y="318.4883"/><rect fill="#F1F1F1" height="10" style="stroke:#181818;stroke-width:0.5;" width="15" x="580.7246" y="323.4883"/><rect fill="#F1F1F1" height="2" style="stroke:#181818;stroke-width:0.5;" width="4" x="578.7246" y="325.4883"/><rect fill="#F1F1F1" height="2" style="stroke:#181818;stroke-width:0.5;" width="4" x="578.7246" y="329.4883"/><text fill="#000000" font-family="sans-serif" font-size="14" lengthAdjust="spacing" textLength="81.2246" x="494.5" y="352.0234">Geometry +</text><text fill="#000000" font-family="sans-serif" font-size="14" lengthAdjust="spacing" textLength="55.1729" x="494.5" y="368.5117">mobility</text></g><!--entity dm--><g id="elem_dm"><rect fill="#F1F1F1" height="46.4883" rx="2.5" ry="2.5" style="stroke:#181818;stroke-width:0.5;" width="170.252" x="294" y="92.9883"/><rect fill="#F1F1F1" height="10" style="stroke:#181818;stroke-width:0.5;" width="15" x="444.252" y="97.9883"/><rect fill="#F1F1F1" height="2" style="stroke:#181818;stroke-width:0.5;" width="4" x="442.252" y="99.9883"/><rect fill="#F1F1F1" height="2" style="stroke:#181818;stroke-width:0.5;" width="4" x="442.252" y="103.9883"/><text fill="#000000" font-family="sans-serif" font-size="14" lengthAdjust="spacing" textLength="130.252" x="309" y="126.5234">DeepMIMO exports</text></g><!--entity sn--><g id="elem_sn"><rect fill="#F1F1F1" height="46.4883" rx="2.5" ry="2.5" style="stroke:#181818;stroke-width:0.5;" width="146.3125" x="482" y="92.9883"/><rect fill="#F1F1F1" height="10" style="stroke:#181818;stroke-width:0.5;" width="15" x="608.3125" y="97.9883"/><rect fill="#F1F1F1" height="2" style="stroke:#181818;stroke-width:0.5;" width="4" x="606.3125" y="99.9883"/><rect fill="#F1F1F1" height="2" style="stroke:#181818;stroke-width:0.5;" width="4" x="606.3125" y="103.9883"/><text fill="#000000" font-family="sans-serif" font-size="14" lengthAdjust="spacing" textLength="106.3125" x="497" y="126.5234">Sionna RT grids</text></g><!--entity ao--><g id="elem_ao"><rect fill="#F1F1F1" height="46.4883" rx="2.5" ry="2.5" style="stroke:#181818;stroke-width:0.5;" width="169.5068" x="646" y="92.9883"/><rect fill="#F1F1F1" height="10" style="stroke:#181818;stroke-width:0.5;" width="15" x="795.5068" y="97.9883"/><rect fill="#F1F1F1" height="2" style="stroke:#181818;stroke-width:0.5;" width="4" x="793.5068" y="99.9883"/><rect fill="#F1F1F1" height="2" style="stroke:#181818;stroke-width:0.5;" width="4" x="793.5068" y="103.9883"/><text fill="#000000" font-family="sans-serif" font-size="14" lengthAdjust="spacing" textLength="129.5068" x="661" y="126.5234">AODT scene assets</text></g><!--entity rb--><g id="elem_rb"><rect fill="#F1F1F1" height="62.9766" rx="2.5" ry="2.5" style="stroke:#181818;stroke-width:0.5;" width="178.2705" x="655" y="318.4883"/><rect fill="#F1F1F1" height="10" style="stroke:#181818;stroke-width:0.5;" width="15" x="813.2705" y="323.4883"/><rect fill="#F1F1F1" height="2" style="stroke:#181818;stroke-width:0.5;" width="4" x="811.2705" y="325.4883"/><rect fill="#F1F1F1" height="2" style="stroke:#181818;stroke-width:0.5;" width="4" x="811.2705" y="329.4883"/><text fill="#000000" font-family="sans-serif" font-size="14" lengthAdjust="spacing" textLength="138.2705" x="670" y="352.0234">Rule-based baseline</text><text fill="#000000" font-family="sans-serif" font-size="14" font-weight="bold" lengthAdjust="spacing" textLength="52.4453" x="670" y="368.5117">current</text></g><!--entity cb--><g id="elem_cb"><rect fill="#F1F1F1" height="62.9766" rx="2.5" ry="2.5" style="stroke:#181818;stroke-width:0.5;" width="162.0557" x="663" y="436.4883"/><rect fill="#F1F1F1" height="10" style="stroke:#181818;stroke-width:0.5;" width="15" x="805.0557" y="441.4883"/><rect fill="#F1F1F1" height="2" style="stroke:#181818;stroke-width:0.5;" width="4" x="803.0557" y="443.4883"/><rect fill="#F1F1F1" height="2" style="stroke:#181818;stroke-width:0.5;" width="4" x="803.0557" y="447.4883"/><text fill="#000000" font-family="sans-serif" font-size="14" lengthAdjust="spacing" textLength="122.0557" x="678" y="470.0234">Contextual bandit</text><text fill="#000000" font-family="sans-serif" font-size="14" lengthAdjust="spacing" textLength="68.1475" x="678" y="486.5117">study arm</text></g><!--entity rl--><g id="elem_rl"><rect fill="#F1F1F1" height="62.9766" rx="2.5" ry="2.5" style="stroke:#181818;stroke-width:0.5;" width="132.3809" x="678" y="554.4883"/><rect fill="#F1F1F1" height="10" style="stroke:#181818;stroke-width:0.5;" width="15" x="790.3809" y="559.4883"/><rect fill="#F1F1F1" height="2" style="stroke:#181818;stroke-width:0.5;" width="4" x="788.3809" y="561.4883"/><rect fill="#F1F1F1" height="2" style="stroke:#181818;stroke-width:0.5;" width="4" x="788.3809" y="565.4883"/><text fill="#000000" font-family="sans-serif" font-size="14" lengthAdjust="spacing" textLength="78.2715" x="693" y="588.0234">Offline RL /</text><text fill="#000000" font-family="sans-serif" font-size="14" lengthAdjust="spacing" textLength="92.3809" x="693" y="604.5117">RIC surrogate</text></g><!--entity py--><g id="elem_py"><rect fill="#F1F1F1" height="62.9766" rx="2.5" ry="2.5" style="stroke:#181818;stroke-width:0.5;" width="110.6973" x="840.5" y="84.4883"/><rect fill="#F1F1F1" height="10" style="stroke:#181818;stroke-width:0.5;" width="15" x="931.1973" y="89.4883"/><rect fill="#F1F1F1" height="2" style="stroke:#181818;stroke-width:0.5;" width="4" x="929.1973" y="91.4883"/><rect fill="#F1F1F1" height="2" style="stroke:#181818;stroke-width:0.5;" width="4" x="929.1973" y="95.4883"/><text fill="#000000" font-family="sans-serif" font-size="14" lengthAdjust="spacing" textLength="70.6973" x="855.5" y="118.0234">pyAerial +</text><text fill="#000000" font-family="sans-serif" font-size="14" lengthAdjust="spacing" textLength="64.9756" x="855.5" y="134.5117">PHY hints</text></g><!--entity ota--><g id="elem_ota"><rect fill="#F1F1F1" height="62.9766" rx="2.5" ry="2.5" style="stroke:#181818;stroke-width:0.5;" width="178.3799" x="244" y="201.4883"/><rect fill="#F1F1F1" height="10" style="stroke:#181818;stroke-width:0.5;" width="15" x="402.3799" y="206.4883"/><rect fill="#F1F1F1" height="2" style="stroke:#181818;stroke-width:0.5;" width="4" x="400.3799" y="208.4883"/><rect fill="#F1F1F1" height="2" style="stroke:#181818;stroke-width:0.5;" width="4" x="400.3799" y="212.4883"/><text fill="#000000" font-family="sans-serif" font-size="14" lengthAdjust="spacing" textLength="138.3799" x="259" y="235.0234">Data Lake schema +</text><text fill="#000000" font-family="sans-serif" font-size="14" lengthAdjust="spacing" textLength="65.9941" x="259" y="251.5117">manifests</text></g><!--entity prv--><g id="elem_prv"><rect fill="#F1F1F1" height="46.4883" rx="2.5" ry="2.5" style="stroke:#181818;stroke-width:0.5;" width="196.5566" x="22.5" y="326.9883"/><rect fill="#F1F1F1" height="10" style="stroke:#181818;stroke-width:0.5;" width="15" x="199.0566" y="331.9883"/><rect fill="#F1F1F1" height="2" style="stroke:#181818;stroke-width:0.5;" width="4" x="197.0566" y="333.9883"/><rect fill="#F1F1F1" height="2" style="stroke:#181818;stroke-width:0.5;" width="4" x="197.0566" y="337.9883"/><text fill="#000000" font-family="sans-serif" font-size="14" lengthAdjust="spacing" textLength="156.5566" x="37.5" y="360.5234">simulation_provenance</text></g><!--entity ex--><g id="elem_ex"><rect fill="#F1F1F1" height="62.9766" rx="2.5" ry="2.5" style="stroke:#181818;stroke-width:0.5;" width="155.1445" x="22.5" y="201.4883"/><rect fill="#F1F1F1" height="10" style="stroke:#181818;stroke-width:0.5;" width="15" x="157.6445" y="206.4883"/><rect fill="#F1F1F1" height="2" style="stroke:#181818;stroke-width:0.5;" width="4" x="155.6445" y="208.4883"/><rect fill="#F1F1F1" height="2" style="stroke:#181818;stroke-width:0.5;" width="4" x="155.6445" y="212.4883"/><text fill="#000000" font-family="sans-serif" font-size="14" lengthAdjust="spacing" textLength="115.1445" x="37.5" y="235.0234">experiment log /</text><text fill="#000000" font-family="sans-serif" font-size="14" lengthAdjust="spacing" textLength="70.1025" x="37.5" y="251.5117">paper trail</text></g><polygon fill="#181818" points="507.0747,209.9591,501.5069,201.8351,502.8167,207.3382,497.3135,208.648,507.0747,209.9591" style="stroke:#181818;stroke-width:1.0;"/><path d="M260.3688,147.6188 C267.5166,150.6332 274.8338,153.3583 282,155.4883 C347.2596,174.8853 369.1783,153.6746 434,174.4883 C459.9137,182.8089 481.7337,194.3617 501.9651,206.814 " fill="none" style="stroke:#181818;stroke-width:1.0;"/><polygon fill="#181818" points="540,318.1893,544,309.1893,540,313.1893,536,309.1893,540,318.1893" style="stroke:#181818;stroke-width:1.0;"/><path d="M540,256.1614 C540,273.784 540,292.6346 540,312.1893 " fill="none" style="stroke:#181818;stroke-width:1.0;"/><polygon fill="#181818" points="509.0529,209.8832,504.0542,201.3971,504.9842,206.977,499.4043,207.907,509.0529,209.8832" style="stroke:#181818;stroke-width:1.0;"/><path d="M410.0424,139.1614 C438.5519,159.5253 475.6912,186.0534 504.1705,206.3958 " fill="none" style="stroke:#181818;stroke-width:1.0;"/><polygon fill="#181818" points="542.8833,209.8832,548.0137,201.4761,543.53,204.9252,540.0809,200.4414,542.8833,209.8832" style="stroke:#181818;stroke-width:1.0;"/><path d="M552.1078,139.1614 C549.4517,159.5253 546.3127,183.5912 543.6593,203.9336 " fill="none" style="stroke:#181818;stroke-width:1.0;"/><polygon fill="#181818" points="576.7137,209.8832,586.4872,208.6677,580.9972,207.3041,582.3607,201.8141,576.7137,209.8832" style="stroke:#181818;stroke-width:1.0;"/><path d="M694.1733,139.1614 C660.3515,159.5253 615.6398,186.446 581.8539,206.7883 " fill="none" style="stroke:#181818;stroke-width:1.0;"/><polygon fill="#181818" points="690.5823,318.4665,684.7406,310.5371,686.2373,315.9924,680.782,317.489,690.5823,318.4665" style="stroke:#181818;stroke-width:1.0;"/><path d="M579.6616,256.0277 C598.8192,266.6992 622.1273,279.7209 643,291.4883 C658.4673,300.2082 670.0214,306.7587 685.3683,315.4975 " fill="none" style="stroke:#181818;stroke-width:1.0;"/><polygon fill="#181818" points="744,436.4656,748,427.4656,744,431.4656,740,427.4656,744,436.4656" style="stroke:#181818;stroke-width:1.0;"/><path d="M744,381.7696 C744,398.6839 744,413.5923 744,430.4656 " fill="none" style="stroke:#181818;stroke-width:1.0;stroke-dasharray:7.0,7.0;"/><text fill="#000000" font-family="sans-serif" font-size="13" font-weight="bold" lengthAdjust="spacing" textLength="41.2598" x="746" y="414.0566">future</text><polygon fill="#181818" points="744,554.4656,748,545.4656,744,549.4656,740,545.4656,744,554.4656" style="stroke:#181818;stroke-width:1.0;"/><path d="M744,499.7696 C744,516.6839 744,531.5923 744,548.4656 " fill="none" style="stroke:#181818;stroke-width:1.0;stroke-dasharray:7.0,7.0;"/><text fill="#000000" font-family="sans-serif" font-size="13" font-weight="bold" lengthAdjust="spacing" textLength="41.2598" x="746" y="532.0566">future</text><polygon fill="#181818" points="631.1218,214.053,640.777,215.9966,636.0018,212.9639,639.0345,208.1887,631.1218,214.053" style="stroke:#181818;stroke-width:1.0;"/><path d="M845.0845,147.6373 C839.4189,150.4968 833.6525,153.1819 828,155.4883 C764.1732,181.5311 694.6197,199.8821 636.9778,212.7461 " fill="none" style="stroke:#181818;stroke-width:1.0;stroke-dasharray:7.0,7.0;"/><polygon fill="#181818" points="161.714,326.9029,171.5323,326.1275,166.109,324.5188,167.7177,319.0955,161.714,326.9029" style="stroke:#181818;stroke-width:1.0;"/><path d="M276.7445,264.5042 C240.5574,284.134 199.6412,306.3292 166.988,324.042 " fill="none" style="stroke:#181818;stroke-width:1.0;stroke-dasharray:7.0,7.0;"/><polygon fill="#181818" points="219.7215,327.7534,229.383,329.6657,224.5979,326.6485,227.6151,321.8634,219.7215,327.7534" style="stroke:#181818;stroke-width:1.0;"/><path d="M482.8939,256.0169 C467.165,261.731 450.0215,267.6365 434,272.4883 C363.0612,293.9707 287.5582,312.3829 225.5732,326.4275 " fill="none" style="stroke:#181818;stroke-width:1.0;"/><polygon fill="#181818" points="146.2265,326.7578,155.4354,323.2657,149.7787,323.239,149.8054,317.5822,146.2265,326.7578" style="stroke:#181818;stroke-width:1.0;"/><path d="M204.8307,147.5463 C205.6118,179.9067 203.5068,231.8307 186,272.4883 C177.0397,293.2976 164.6805,308.4772 150.4891,322.5352 " fill="none" style="stroke:#181818;stroke-width:1.0;"/><polygon fill="#181818" points="116.9341,326.7225,119.2523,317.1503,116.0359,321.8038,111.3824,318.5874,116.9341,326.7225" style="stroke:#181818;stroke-width:1.0;"/><path d="M105.5725,264.5042 C109.1449,284.0675 112.6237,303.1179 115.8562,320.8201 " fill="none" style="stroke:#181818;stroke-width:1.0;"/><!--SRC=[RLDDJzn03BtdLxXmWI2eE5JzE21j5sYfG5ijNAfkLJc9DpjYCXDvd6MZgb9_H7zXVqazax2mQY_HZEVvFVlPUT4orWs2nTvt0g4XGOUP6B44Kz-qtf4JM1jwW3-_VaEUBplfcF8Sc08Xboi8WkKz70XoJNAOPU7Uk1OP6qWqbzx9r5lFiF_-zUdqT9fbhIPWJR3tgQjggg0YeL8KKNgcXJieDSMuZiBX7lp80BxUTaLZGZ3UmT72-UNI6aT0QxJV04FCptu-epqtjH6q80_6ZGmVa7i89Jbauu5ShGGfDs8IWBmsho0LQ7nXh94-0MhoE-ItfkaiIgobq5YX3eqQvqJjpTND36ZJUfOmrDQa1XJk4EPtKBEfXfUGT2UpyxjK66aiq9Y5kvfJDOIzjSGwgQeYteFzYpUNhoxU3ihppj9nWK6zZD_epiBbUTanw_ZoF75o4Q6HYZRIgJq5kih8mWNfgXwGcmGh4smsUZo_XfSBDx-QGb0oNwCCjh7TAV3pnozm13UJAHJQN_teIDjFY8rAgQaHiZ9kRB3jT_9dTnCTfwd8bLitKH2kyPxKdHNfZiR1e3DB2YE75zmjWlrQ1wmKMelEGAKRRJ-CX64xkE_j5ZaKm-i8U4e1w-lOTuiQ0M4qmwBH9Whgki7nyTcmEl6JRd5FgkRf8RYdC_h_9EWyk82JapEr7Duz-xMoSWYptGstVGed5kqzNMBfMyPuUImkdccpFMRE2q7XHNm3VZaiGvxFdEs1_zqULGCm0PHOLWJZ8i6jC66ZlmQqAAkJZ5m5aJZx2m00]--></g></svg>