<svg xmlns="http://www.w3.org/2000/svg" xmlns:xlink="http://www.w3.org/1999/xlink" contentStyleType="text/css" height="744px" preserveAspectRatio="none" style="width:1563px;height:744px;background:#FFFFFF;" version="1.1" viewBox="0 0 1563 744" width="1563px" zoomAndPan="magnify"><title>Component view &#8212; interfaces (current)</title><defs/><g><text fill="#000000" font-family="sans-serif" font-size="14" font-weight="bold" lengthAdjust="spacing" textLength="282.9873" x="632.5063" y="23.5352">Component view &#8212; interfaces (current)</text><!--cluster IQ path--><g id="cluster_IQ path"><rect fill="none" height="99" rx="2.5" ry="2.5" style="stroke:#181818;stroke-width:1.0;" width="478" x="844.5" y="244.4883"/><text fill="#000000" font-family="sans-serif" font-size="14" font-weight="bold" lengthAdjust="spacing" textLength="53.1631" x="1056.9185" y="260.0234">IQ path</text></g><!--cluster Inference--><g id="cluster_Inference"><rect fill="none" height="179" rx="2.5" ry="2.5" style="stroke:#181818;stroke-width:1.0;" width="228" x="1104.5" y="351.4883"/><text fill="#000000" font-family="sans-serif" font-size="14" font-weight="bold" lengthAdjust="spacing" textLength="67.2588" x="1184.8706" y="367.0234">Inference</text></g><!--cluster Features (optional UI)--><g id="cluster_Features (optional UI)"><rect fill="none" height="81" rx="2.5" ry="2.5" style="stroke:#181818;stroke-width:1.0;" width="281" x="1078" y="538.4883"/><text fill="#000000" font-family="sans-serif" font-size="14" font-weight="bold" lengthAdjust="spacing" textLength="155.7432" x="1140.6284" y="554.0234">Features (optional UI)</text></g><!--cluster Scenario + control--><g id="cluster_Scenario + control"><rect fill="none" height="99" rx="2.5" ry="2.5" style="stroke:#181818;stroke-width:1.0;" width="1011.5" x="14" y="41.4883"/><text fill="#000000" font-family="sans-serif" font-size="14" font-weight="bold" lengthAdjust="spacing" textLength="132.4189" x="453.5405" y="57.0234">Scenario + control</text></g><!--cluster Simulation ingest--><g id="cluster_Simulation ingest"><rect fill="none" height="81" rx="2.5" ry="2.5" style="stroke:#181818;stroke-width:1.0;" width="514.5" x="820" y="657.4883"/><text fill="#000000" font-family="sans-serif" font-size="14" font-weight="bold" lengthAdjust="spacing" textLength="125.8564" x="1014.3218" y="673.0234">Simulation ingest</text></g><!--cluster Presentation--><g id="cluster_Presentation"><rect fill="none" height="99" rx="2.5" ry="2.5" style="stroke:#181818;stroke-width:1.0;" width="177" x="1380" y="423.4883"/><text fill="#000000" font-family="sans-serif" font-size="14" font-weight="bold" lengthAdjust="spacing" textLength="90.7334" x="1423.1333" y="439.0234">Presentation</text></g><g id="elem_GMN36"><path d="M805,148.9883 L805,157.3658 L674.0912,127.8422 L805,165.3658 L805,235.541 A0,0 0 0 0 805,235.541 L1049.3994,235.541 A0,0 0 0 0 1049.3994,235.541 L1049.3994,158.9883 L1039.3994,148.9883 L805,148.9883 A0,0 0 0 0 805,148.9883 " fill="#FEFFDD" style="stroke:#181818;stroke-width:0.5;"/><path d="M1039.3994,148.9883 L1039.3994,158.9883 L1049.3994,158.9883 L1039.3994,148.9883 " fill="#FEFFDD" style="stroke:#181818;stroke-width:0.5;"/><text fill="#000000" font-family="sans-serif" font-size="13" font-weight="bold" lengthAdjust="spacing" textLength="223.3994" x="811" y="166.5566">Detector-conditioned rule-based</text><text fill="#000000" font-family="sans-serif" font-size="13" font-weight="bold" lengthAdjust="spacing" textLength="185.0532" x="811" y="181.8672">closed-loop policy baseline</text><text fill="#000000" font-family="sans-serif" font-size="13" font-weight="bold" lengthAdjust="spacing" textLength="152.4897" x="811" y="197.1777">(RIC-style abstraction)</text><text fill="#000000" font-family="sans-serif" font-size="13" lengthAdjust="spacing" textLength="195.6665" x="811" y="212.4883">Actions: hold, cautious, power,</text><text fill="#000000" font-family="sans-serif" font-size="13" lengthAdjust="spacing" textLength="183.9614" x="811" y="227.7988">channel, prioritize, rebalance</text></g><!--entity iq--><g id="elem_iq"><rect fill="#F1F1F1" height="62.9766" rx="2.5" ry="2.5" style="stroke:#181818;stroke-width:0.5;" width="148.7529" x="852.5" y="271.9883"/><rect fill="#F1F1F1" height="10" style="stroke:#181818;stroke-width:0.5;" width="15" x="981.2529" y="276.9883"/><rect fill="#F1F1F1" height="2" style="stroke:#181818;stroke-width:0.5;" width="4" x="979.2529" y="278.9883"/><rect fill="#F1F1F1" height="2" style="stroke:#181818;stroke-width:0.5;" width="4" x="979.2529" y="282.9883"/><text fill="#000000" font-family="sans-serif" font-size="14" lengthAdjust="spacing" textLength="97.3301" x="867.5" y="305.5234">load_iq_data /</text><text fill="#000000" font-family="sans-serif" font-size="14" lengthAdjust="spacing" textLength="108.7529" x="867.5" y="322.0117">demo generator</text></g><!--entity sig--><g id="elem_sig"><rect fill="#F1F1F1" height="62.9766" rx="2.5" ry="2.5" style="stroke:#181818;stroke-width:0.5;" width="192.1201" x="1122.5" y="271.9883"/><rect fill="#F1F1F1" height="10" style="stroke:#181818;stroke-width:0.5;" width="15" x="1294.6201" y="276.9883"/><rect fill="#F1F1F1" height="2" style="stroke:#181818;stroke-width:0.5;" width="4" x="1292.6201" y="278.9883"/><rect fill="#F1F1F1" height="2" style="stroke:#181818;stroke-width:0.5;" width="4" x="1292.6201" y="282.9883"/><text fill="#000000" font-family="sans-serif" font-size="14" lengthAdjust="spacing" textLength="102.9082" x="1137.5" y="305.5234">compute_psd /</text><text fill="#000000" font-family="sans-serif" font-size="14" lengthAdjust="spacing" textLength="152.1201" x="1137.5" y="322.0117">compute_spectrogram</text></g><!--entity ev--><g id="elem_ev"><rect fill="#F1F1F1" height="46.4883" rx="2.5" ry="2.5" style="stroke:#181818;stroke-width:0.5;" width="211.7666" x="1112.5" y="378.4883"/><rect fill="#F1F1F1" height="10" style="stroke:#181818;stroke-width:0.5;" width="15" x="1304.2666" y="383.4883"/><rect fill="#F1F1F1" height="2" style="stroke:#181818;stroke-width:0.5;" width="4" x="1302.2666" y="385.4883"/><rect fill="#F1F1F1" height="2" style="stroke:#181818;stroke-width:0.5;" width="4" x="1302.2666" y="389.4883"/><text fill="#000000" font-family="sans-serif" font-size="14" lengthAdjust="spacing" textLength="171.7666" x="1127.5" y="412.0234">run_evaluate_on_iq_array</text></g><!--entity base--><g id="elem_base"><rect fill="#F1F1F1" height="79.4648" rx="2.5" ry="2.5" style="stroke:#181818;stroke-width:0.5;" width="133.3926" x="1152" y="442.9883"/><rect fill="#F1F1F1" height="10" style="stroke:#181818;stroke-width:0.5;" width="15" x="1265.3926" y="447.9883"/><rect fill="#F1F1F1" height="2" style="stroke:#181818;stroke-width:0.5;" width="4" x="1263.3926" y="449.9883"/><rect fill="#F1F1F1" height="2" style="stroke:#181818;stroke-width:0.5;" width="4" x="1263.3926" y="453.9883"/><text fill="#000000" font-family="sans-serif" font-size="14" lengthAdjust="spacing" textLength="57.832" x="1167" y="476.5234">energy /</text><text fill="#000000" font-family="sans-serif" font-size="14" lengthAdjust="spacing" textLength="64.6953" x="1167" y="493.0117">flatness /</text><text fill="#000000" font-family="sans-serif" font-size="14" lengthAdjust="spacing" textLength="93.3926" x="1167" y="509.5">PSD baselines</text></g><!--entity feat--><g id="elem_feat"><rect fill="#F1F1F1" height="46.4883" rx="2.5" ry="2.5" style="stroke:#181818;stroke-width:0.5;" width="265.3809" x="1086" y="565.4883"/><rect fill="#F1F1F1" height="10" style="stroke:#181818;stroke-width:0.5;" width="15" x="1331.3809" y="570.4883"/><rect fill="#F1F1F1" height="2" style="stroke:#181818;stroke-width:0.5;" width="4" x="1329.3809" y="572.4883"/><rect fill="#F1F1F1" height="2" style="stroke:#181818;stroke-width:0.5;" width="4" x="1329.3809" y="576.4883"/><text fill="#000000" font-family="sans-serif" font-size="14" lengthAdjust="spacing" textLength="225.3809" x="1101" y="599.0234">feature_baseline.extract_features</text></g><!--entity si--><g id="elem_si"><rect fill="#F1F1F1" height="46.4883" rx="2.5" ry="2.5" style="stroke:#181818;stroke-width:0.5;" width="139.9004" x="22" y="82.4883"/><rect fill="#F1F1F1" height="10" style="stroke:#181818;stroke-width:0.5;" width="15" x="141.9004" y="87.4883"/><rect fill="#F1F1F1" height="2" style="stroke:#181818;stroke-width:0.5;" width="4" x="139.9004" y="89.4883"/><rect fill="#F1F1F1" height="2" style="stroke:#181818;stroke-width:0.5;" width="4" x="139.9004" y="93.4883"/><text fill="#000000" font-family="sans-serif" font-size="14" lengthAdjust="spacing" textLength="99.9004" x="37" y="116.0234">ScenarioInputs</text></g><!--entity cas--><g id="elem_cas"><rect fill="#F1F1F1" height="46.4883" rx="2.5" ry="2.5" style="stroke:#181818;stroke-width:0.5;" width="223.0869" x="199" y="82.4883"/><rect fill="#F1F1F1" height="10" style="stroke:#181818;stroke-width:0.5;" width="15" x="402.0869" y="87.4883"/><rect fill="#F1F1F1" height="2" style="stroke:#181818;stroke-width:0.5;" width="4" x="400.0869" y="89.4883"/><rect fill="#F1F1F1" height="2" style="stroke:#181818;stroke-width:0.5;" width="4" x="400.0869" y="93.4883"/><text fill="#000000" font-family="sans-serif" font-size="14" lengthAdjust="spacing" textLength="183.0869" x="214" y="116.0234">compute_all_anchor_states</text></g><!--entity pol--><g id="elem_pol"><rect fill="#F1F1F1" height="62.9766" rx="2.5" ry="2.5" style="stroke:#181818;stroke-width:0.5;" width="215.2871" x="459" y="68.9883"/><rect fill="#F1F1F1" height="10" style="stroke:#181818;stroke-width:0.5;" width="15" x="654.2871" y="73.9883"/><rect fill="#F1F1F1" height="2" style="stroke:#181818;stroke-width:0.5;" width="4" x="652.2871" y="75.9883"/><rect fill="#F1F1F1" height="2" style="stroke:#181818;stroke-width:0.5;" width="4" x="652.2871" y="79.9883"/><text fill="#000000" font-family="sans-serif" font-size="14" lengthAdjust="spacing" textLength="175.2871" x="474" y="102.5234">select_closed_loop_action</text><text fill="#000000" font-family="sans-serif" font-size="14" font-weight="bold" lengthAdjust="spacing" textLength="144.9014" x="474" y="119.0117">rule-based baseline</text></g><!--entity kpi--><g id="elem_kpi"><rect fill="#F1F1F1" height="46.4883" rx="2.5" ry="2.5" style="stroke:#181818;stroke-width:0.5;" width="181.2031" x="836.5" y="82.4883"/><rect fill="#F1F1F1" height="10" style="stroke:#181818;stroke-width:0.5;" width="15" x="997.7031" y="87.4883"/><rect fill="#F1F1F1" height="2" style="stroke:#181818;stroke-width:0.5;" width="4" x="995.7031" y="89.4883"/><rect fill="#F1F1F1" height="2" style="stroke:#181818;stroke-width:0.5;" width="4" x="995.7031" y="93.4883"/><text fill="#000000" font-family="sans-serif" font-size="14" lengthAdjust="spacing" textLength="141.2031" x="851.5" y="116.0234">apply_action_to_kpis</text></g><!--entity lh--><g id="elem_lh"><rect fill="#F1F1F1" height="46.4883" rx="2.5" ry="2.5" style="stroke:#181818;stroke-width:0.5;" width="198.3135" x="828" y="684.4883"/><rect fill="#F1F1F1" height="10" style="stroke:#181818;stroke-width:0.5;" width="15" x="1006.3135" y="689.4883"/><rect fill="#F1F1F1" height="2" style="stroke:#181818;stroke-width:0.5;" width="4" x="1004.3135" y="691.4883"/><rect fill="#F1F1F1" height="2" style="stroke:#181818;stroke-width:0.5;" width="4" x="1004.3135" y="695.4883"/><text fill="#000000" font-family="sans-serif" font-size="14" lengthAdjust="spacing" textLength="158.3135" x="843" y="718.0234">load_*_summary hooks</text></g><!--entity fin--><g id="elem_fin"><rect fill="#F1F1F1" height="46.4883" rx="2.5" ry="2.5" style="stroke:#181818;stroke-width:0.5;" width="215.9912" x="1110.5" y="684.4883"/><rect fill="#F1F1F1" height="10" style="stroke:#181818;stroke-width:0.5;" width="15" x="1306.4912" y="689.4883"/><rect fill="#F1F1F1" height="2" style="stroke:#181818;stroke-width:0.5;" width="4" x="1304.4912" y="691.4883"/><rect fill="#F1F1F1" height="2" style="stroke:#181818;stroke-width:0.5;" width="4" x="1304.4912" y="695.4883"/><text fill="#000000" font-family="sans-serif" font-size="14" lengthAdjust="spacing" textLength="175.9912" x="1125.5" y="718.0234">finalize_simulation_status</text></g><!--entity ui--><g id="elem_ui"><rect fill="#F1F1F1" height="62.9766" rx="2.5" ry="2.5" style="stroke:#181818;stroke-width:0.5;" width="160.8525" x="1388" y="450.9883"/><rect fill="#F1F1F1" height="10" style="stroke:#181818;stroke-width:0.5;" width="15" x="1528.8525" y="455.9883"/><rect fill="#F1F1F1" height="2" style="stroke:#181818;stroke-width:0.5;" width="4" x="1526.8525" y="457.9883"/><rect fill="#F1F1F1" height="2" style="stroke:#181818;stroke-width:0.5;" width="4" x="1526.8525" y="461.9883"/><text fill="#000000" font-family="sans-serif" font-size="14" lengthAdjust="spacing" textLength="120.8525" x="1403" y="484.5234">Streamlit panels /</text><text fill="#000000" font-family="sans-serif" font-size="14" lengthAdjust="spacing" textLength="102.3477" x="1403" y="501.0117">plotly / pydeck</text></g><polygon fill="#181818" points="1149.2949,378.3999,1142.0527,371.7253,1144.5589,376.7966,1139.4875,379.3029,1149.2949,378.3999" style="stroke:#181818;stroke-width:1.0;"/><path d="M1001.8021,328.4714 C1047.2008,343.8395 1099.2864,361.4712 1143.6117,376.476 " fill="none" style="stroke:#181818;stroke-width:1.0;"/><polygon fill="#181818" points="1151.7261,465.0109,1144.4039,458.4242,1146.9711,463.4649,1141.9303,466.0322,1151.7261,465.0109" style="stroke:#181818;stroke-width:1.0;"/><path d="M957.5001,335.146 C985.9763,364.1296 1031.5065,406.4999 1078,433.4883 C1100.7552,446.6972 1121.9461,455.3288 1146.0201,463.1557 " fill="none" style="stroke:#181818;stroke-width:1.0;"/><polygon fill="#181818" points="1122.4767,303.4883,1113.4767,299.4883,1117.4767,303.4883,1113.4767,307.4883,1122.4767,303.4883" style="stroke:#181818;stroke-width:1.0;"/><path d="M1001.8021,303.4883 C1038.4896,303.4883 1077.2555,303.4883 1116.4767,303.4883 " fill="none" style="stroke:#181818;stroke-width:1.0;"/><polygon fill="#181818" points="1132.8585,565.4381,1126.0104,558.3597,1128.2221,563.5663,1123.0155,565.7779,1132.8585,565.4381" style="stroke:#181818;stroke-width:1.0;"/><path d="M940.8891,335.2658 C962.3513,384.4691 1009.8881,479.1712 1078,534.4883 C1094.0265,547.5042 1107.9886,555.3975 1127.2948,563.1919 " fill="none" style="stroke:#181818;stroke-width:1.0;"/><polygon fill="#181818" points="1401.4153,450.9444,1394.7267,443.7152,1396.8218,448.9698,1391.5672,451.0648,1401.4153,450.9444" style="stroke:#181818;stroke-width:1.0;"/><path d="M1324.8262,424.2065 C1336.4444,427.3622 1348.0311,430.7996 1359,434.4883 C1372.9593,439.1825 1382.0725,442.6293 1395.903,448.5748 " fill="none" style="stroke:#181818;stroke-width:1.0;"/><polygon fill="#181818" points="1387.6675,482.4883,1378.6675,478.4883,1382.6675,482.4883,1378.6675,486.4883,1387.6675,482.4883" style="stroke:#181818;stroke-width:1.0;"/><path d="M1285.3083,482.4883 C1316.7345,482.4883 1348.6098,482.4883 1381.6675,482.4883 " fill="none" style="stroke:#181818;stroke-width:1.0;"/><polygon fill="#181818" points="1449.7489,450.9405,1448.4558,441.1769,1447.1359,446.6776,1441.6352,445.3577,1449.7489,450.9405" style="stroke:#181818;stroke-width:1.0;"/><path d="M1314.5619,325.1346 C1330.1558,330.9795 1345.583,338.3157 1359,347.4883 C1398.5921,374.5554 1427.8314,415.1842 1446.6133,445.825 " fill="none" style="stroke:#181818;stroke-width:1.0;"/><polygon fill="#181818" points="1403.6215,514.1155,1393.776,514.3692,1399.1063,516.2632,1397.2123,521.5935,1403.6215,514.1155" style="stroke:#181818;stroke-width:1.0;"/><path d="M1282.0709,565.4531 C1306.2723,556.2349 1334.0904,545.2593 1359,534.4883 C1373.5713,528.1876 1383.6352,523.6221 1398.2033,516.6927 " fill="none" style="stroke:#181818;stroke-width:1.0;"/><polygon fill="#181818" points="198.8332,105.4883,189.8332,101.4883,193.8332,105.4883,189.8332,109.4883,198.8332,105.4883" style="stroke:#181818;stroke-width:1.0;"/><path d="M162.0972,105.4883 C173.8535,105.4883 180.3218,105.4883 192.8332,105.4883 " fill="none" style="stroke:#181818;stroke-width:1.0;"/><polygon fill="#181818" points="458.8191,102.5883,449.7421,98.7662,453.82,102.6867,449.8995,106.7647,458.8191,102.5883" style="stroke:#181818;stroke-width:1.0;"/><path d="M422.1692,103.3098 C434.3347,103.0703 440.7047,102.9449 452.8202,102.7064 " fill="none" style="stroke:#181818;stroke-width:1.0;"/><polygon fill="#181818" points="836.4484,104.2393,827.505,100.1142,831.4488,104.1696,827.3935,108.1134,836.4484,104.2393" style="stroke:#181818;stroke-width:1.0;"/><path d="M674.0912,101.9749 C725.794,102.696 781.2056,103.4688 830.4489,104.1556 " fill="none" style="stroke:#181818;stroke-width:1.0;"/><polygon fill="#181818" points="1452.7772,514.0666,1445.0719,520.2008,1450.4674,518.5011,1452.1671,523.8965,1452.7772,514.0666" style="stroke:#181818;stroke-width:1.0;"/><path d="M311.6411,128.777 C313.5901,231.5566 335.7947,639.4883 565.5,639.4883 C565.5,639.4883 565.5,639.4883 1219.5,639.4883 C1281.9065,639.4883 1304.6747,654.2019 1359,623.4883 C1403.2309,598.4817 1432.6468,552.7141 1450.0054,519.388 " fill="none" style="stroke:#181818;stroke-width:1.0;"/><polygon fill="#181818" points="1461.9052,450.9218,1463.9791,441.2937,1460.8821,446.0275,1456.1483,442.9306,1461.9052,450.9218" style="stroke:#181818;stroke-width:1.0;"/><path d="M1017.8781,112.0112 C1113.285,123.4006 1263.2332,154.6675 1359,240.4883 C1422.7784,297.6428 1449.9275,393.6217 1460.6775,445.0487 " fill="none" style="stroke:#181818;stroke-width:1.0;"/><polygon fill="#181818" points="1110.4014,707.4883,1101.4014,703.4883,1105.4014,707.4883,1101.4014,711.4883,1110.4014,707.4883" style="stroke:#181818;stroke-width:1.0;"/><path d="M1026.0115,707.4883 C1053.1594,707.4883 1076.7643,707.4883 1104.4014,707.4883 " fill="none" style="stroke:#181818;stroke-width:1.0;"/><polygon fill="#181818" points="1457.1918,514.0955,1450.34,521.1703,1455.4719,518.7904,1457.8518,523.9222,1457.1918,514.0955" style="stroke:#181818;stroke-width:1.0;"/><path d="M1315.6918,684.4473 C1335.0577,676.7843 1354.2694,666.6989 1370,653.4883 C1414.7504,615.9066 1441.1559,557.8684 1455.1279,519.7293 " fill="none" style="stroke:#181818;stroke-width:1.0;"/><polygon fill="#181818" points="852.438,272.9819,845.7938,265.7118,847.8567,270.9791,842.5893,273.042,852.438,272.9819" style="stroke:#181818;stroke-width:1.0;"/><path d="M606.2331,132.1472 C630.1466,150.9111 661.9117,174.4663 692,192.4883 C743.6889,223.4483 799.8813,250.0062 846.9404,270.5786 " fill="none" style="stroke:#181818;stroke-width:1.0;stroke-dasharray:7.0,7.0;"/><text fill="#000000" font-family="sans-serif" font-size="13" lengthAdjust="spacing" textLength="91.4316" x="694" y="173.0566">detector belief</text><text fill="#000000" font-family="sans-serif" font-size="13" lengthAdjust="spacing" textLength="81.269" x="699.0813" y="188.3672">from session</text><!--SRC=[NLDDRzGm4BtdLmmzjM6tt7j0GgsGzbQeE55apJgJnAfZf_PaIugG-17yGdu9Czwab3r4UhRVVBrvUJCcx0O4ZtES6F90Z04hTkm9hkCmna21uU3e2Vxy-WqkCAKMBMKujrDAydXHLPvQ1ewGNDSpD2wHPHT3LId0q4ckizqd697xC_XH0Npr4HlZ7as3ZF3kFZGqHEWeK4AEwHjW1lUeH2izJ4ncp8torcCU9NEANSAXaBFhgf__rmijINkMbeff2eOEw2UKy1YqEAQ4SmcdWrAqV3ThcTOZ1yfPyUtT3UmnatToKzXwEgdsaP2dfAh4KKT73rzs5qlfzlXerYoNz9qJMZRBmp6h7awotbaAc5o4js1Za7dzad5zs0LH8oyAl9OBlJSOR1-JoImJ7paMivAa2wbXh8-P6kDZ70sMXTs7kawJfwrsshnCNTSbUenUet4S_Rm468xcONJ7x09E-tV394eAKOpJKURNswzDdeO1qmnzZ0_75BulUZdHpptBbb_YonJJ8fGB9tLkHKDnOc6k2d4Y7BnZSLqWNpOv-iXUzWlZt91zACccqhDxXEtslTfWGMN52rPlBR3iY0u5IwIoLYoi5IfhnN9Ve4elNy4gf7m5gsZhlT3b-1Bf-sDD6LU-zLe3Bo_Vo-y1Lz0GYmenmLuMHQqODyK1iZYt_7uXCYq_PMoN_TNrpHAq5KyrJZMJNVzRUrqNrj4TMtM7HZexl_93OPn_tbrlCy-o0TpducZ9TL5UFnIShsItljd8z9ESfxoHL4-KDiAmFGPPZDo8ZvEqyKmRIBH7BxwbYa83sdxr5m00]--></g></svg>