<svg xmlns="http://www.w3.org/2000/svg" xmlns:xlink="http://www.w3.org/1999/xlink" contentStyleType="text/css" height="475px" preserveAspectRatio="none" style="width:1840px;height:475px;background:#FFFFFF;" version="1.1" viewBox="0 0 1840 475" width="1840px" zoomAndPan="magnify"><title>Container view &#8212; current repo (post-project)</title><defs/><g><text fill="#000000" font-family="sans-serif" font-size="14" font-weight="bold" lengthAdjust="spacing" textLength="327.4688" x="752.5156" y="23.5352">Container view &#8212; current repo (post-project)</text><!--cluster Judged competition core--><g id="cluster_Judged competition core"><path d="M706,264.4883 L884.2695,264.4883 A3.75,3.75 0 0 1 886.7695,266.9883 L893.7695,286.9766 L897,286.9766 A2.5,2.5 0 0 1 899.5,289.4766 L899.5,456.9883 A2.5,2.5 0 0 1 897,459.4883 L706,459.4883 A2.5,2.5 0 0 1 703.5,456.9883 L703.5,266.9883 A2.5,2.5 0 0 1 706,264.4883 " fill="#E8F5E9" style="stroke:#000000;stroke-width:1.5;"/><line style="stroke:#000000;stroke-width:1.5;" x1="703.5" x2="893.7695" y1="286.9766" y2="286.9766"/><text fill="#000000" font-family="sans-serif" font-size="14" font-weight="bold" lengthAdjust="spacing" textLength="177.2695" x="707.5" y="280.0234">Judged competition core</text></g><!--cluster Streamlit application--><g id="cluster_Streamlit application"><path d="M460,174.4883 L610.3721,174.4883 A3.75,3.75 0 0 1 612.8721,176.9883 L619.8721,196.9766 L661,196.9766 A2.5,2.5 0 0 1 663.5,199.4766 L663.5,349.9883 A2.5,2.5 0 0 1 661,352.4883 L460,352.4883 A2.5,2.5 0 0 1 457.5,349.9883 L457.5,176.9883 A2.5,2.5 0 0 1 460,174.4883 " fill="#E3F2FD" style="stroke:#000000;stroke-width:1.5;"/><line style="stroke:#000000;stroke-width:1.5;" x1="457.5" x2="619.8721" y1="196.9766" y2="196.9766"/><text fill="#000000" font-family="sans-serif" font-size="14" font-weight="bold" lengthAdjust="spacing" textLength="149.3721" x="461.5" y="190.0234">Streamlit application</text></g><!--cluster Completed Gary extension--><g id="cluster_Completed Gary extension"><path d="M942,264.4883 L1133.251,264.4883 A3.75,3.75 0 0 1 1135.751,266.9883 L1142.751,286.9766 L1519,286.9766 A2.5,2.5 0 0 1 1521.5,289.4766 L1521.5,349.9883 A2.5,2.5 0 0 1 1519,352.4883 L942,352.4883 A2.5,2.5 0 0 1 939.5,349.9883 L939.5,266.9883 A2.5,2.5 0 0 1 942,264.4883 " fill="#F3E5F5" style="stroke:#000000;stroke-width:1.5;"/><line style="stroke:#000000;stroke-width:1.5;" x1="939.5" x2="1142.751" y1="286.9766" y2="286.9766"/><text fill="#000000" font-family="sans-serif" font-size="14" font-weight="bold" lengthAdjust="spacing" textLength="190.251" x="943.5" y="280.0234">Completed Gary extension</text></g><!--cluster Simulation + provenance--><g id="cluster_Simulation + provenance"><path d="M214,264.4883 L395.1953,264.4883 A3.75,3.75 0 0 1 397.6953,266.9883 L404.6953,286.9766 L447,286.9766 A2.5,2.5 0 0 1 449.5,289.4766 L449.5,456.9883 A2.5,2.5 0 0 1 447,459.4883 L214,459.4883 A2.5,2.5 0 0 1 211.5,456.9883 L211.5,266.9883 A2.5,2.5 0 0 1 214,264.4883 " fill="#FFF8E1" style="stroke:#000000;stroke-width:1.5;"/><line style="stroke:#000000;stroke-width:1.5;" x1="211.5" x2="404.6953" y1="286.9766" y2="286.9766"/><text fill="#000000" font-family="sans-serif" font-size="14" font-weight="bold" lengthAdjust="spacing" textLength="180.1953" x="215.5" y="280.0234">Simulation + provenance</text></g><!--cluster Bridge + OTA (abstractions)--><g id="cluster_Bridge + OTA (abstractions)"><path d="M1532,264.4883 L1735.7197,264.4883 A3.75,3.75 0 0 1 1738.2197,266.9883 L1745.2197,286.9766 L1831,286.9766 A2.5,2.5 0 0 1 1833.5,289.4766 L1833.5,349.9883 A2.5,2.5 0 0 1 1831,352.4883 L1532,352.4883 A2.5,2.5 0 0 1 1529.5,349.9883 L1529.5,266.9883 A2.5,2.5 0 0 1 1532,264.4883 " fill="#FCE4EC" style="stroke:#000000;stroke-width:1.5;"/><line style="stroke:#000000;stroke-width:1.5;" x1="1529.5" x2="1745.2197" y1="286.9766" y2="286.9766"/><text fill="#000000" font-family="sans-serif" font-size="14" font-weight="bold" lengthAdjust="spacing" textLength="202.7197" x="1533.5" y="280.0234">Bridge + OTA (abstractions)</text></g><!--cluster Knowledge + config--><g id="cluster_Knowledge + config"><path d="M253,49.4883 L399.168,49.4883 A3.75,3.75 0 0 1 401.668,51.9883 L408.668,71.9766 L646,71.9766 A2.5,2.5 0 0 1 648.5,74.4766 L648.5,134.9883 A2.5,2.5 0 0 1 646,137.4883 L253,137.4883 A2.5,2.5 0 0 1 250.5,134.9883 L250.5,51.9883 A2.5,2.5 0 0 1 253,49.4883 " fill="#ECEFF1" style="stroke:#000000;stroke-width:1.5;"/><line style="stroke:#000000;stroke-width:1.5;" x1="250.5" x2="408.668" y1="71.9766" y2="71.9766"/><text fill="#000000" font-family="sans-serif" font-size="14" font-weight="bold" lengthAdjust="spacing" textLength="145.168" x="254.5" y="65.0234">Knowledge + config</text></g><g id="elem_GMN35"><path d="M6,381.4883 L6,468.041 A0,0 0 0 0 6,468.041 L203.0142,468.041 A0,0 0 0 0 203.0142,468.041 L203.0142,391.4883 L193.0142,381.4883 L200.4063,381.4883 L275.5032,344.5399 L192.4063,381.4883 L6,381.4883 A0,0 0 0 0 6,381.4883 " fill="#FEFFDD" style="stroke:#181818;stroke-width:0.5;"/><path d="M193.0142,381.4883 L193.0142,391.4883 L203.0142,391.4883 L193.0142,381.4883 " fill="#FEFFDD" style="stroke:#181818;stroke-width:0.5;"/><text fill="#000000" font-family="sans-serif" font-size="13" lengthAdjust="spacing" textLength="72.7568" x="12" y="399.0566">DeepMIMO,</text><text fill="#000000" font-family="sans-serif" font-size="13" lengthAdjust="spacing" textLength="4.1133" x="84.7568" y="399.0566">&#160;</text><text fill="#000000" font-family="sans-serif" font-size="13" lengthAdjust="spacing" textLength="42.0596" x="88.8701" y="399.0566">Sionna</text><text fill="#000000" font-family="sans-serif" font-size="13" lengthAdjust="spacing" textLength="4.1133" x="130.9297" y="399.0566">&#160;</text><text fill="#000000" font-family="sans-serif" font-size="13" lengthAdjust="spacing" textLength="20.5537" x="135.043" y="399.0566">RT,</text><text fill="#000000" font-family="sans-serif" font-size="13" lengthAdjust="spacing" textLength="41.1392" x="12" y="414.3672">AODT,</text><text fill="#000000" font-family="sans-serif" font-size="13" lengthAdjust="spacing" textLength="4.1133" x="53.1392" y="414.3672">&#160;</text><text fill="#000000" font-family="sans-serif" font-size="13" lengthAdjust="spacing" textLength="55.3135" x="57.2524" y="414.3672">pyAerial,</text><text fill="#000000" font-family="sans-serif" font-size="13" lengthAdjust="spacing" textLength="4.1133" x="112.5659" y="414.3672">&#160;</text><text fill="#000000" font-family="sans-serif" font-size="13" lengthAdjust="spacing" textLength="31.4019" x="116.6792" y="414.3672">OTA:</text><text fill="#000000" font-family="sans-serif" font-size="13" font-weight="bold" lengthAdjust="spacing" textLength="95.729" x="12" y="429.6777">manifest-load</text><text fill="#000000" font-family="sans-serif" font-size="13" lengthAdjust="spacing" textLength="4.1133" x="107.729" y="429.6777">&#160;</text><text fill="#000000" font-family="sans-serif" font-size="13" lengthAdjust="spacing" textLength="11.8257" x="111.8423" y="429.6777">in</text><text fill="#000000" font-family="sans-serif" font-size="13" lengthAdjust="spacing" textLength="4.1133" x="123.668" y="429.6777">&#160;</text><text fill="#000000" font-family="sans-serif" font-size="13" lengthAdjust="spacing" textLength="60.2329" x="127.7813" y="429.6777">Streamlit.</text><text fill="#000000" font-family="sans-serif" font-size="13" lengthAdjust="spacing" textLength="22.5532" x="12" y="444.9883">Full</text><text fill="#000000" font-family="sans-serif" font-size="13" lengthAdjust="spacing" textLength="4.1133" x="34.5532" y="444.9883">&#160;</text><text fill="#000000" font-family="sans-serif" font-size="13" lengthAdjust="spacing" textLength="44.2876" x="38.6665" y="444.9883">solvers</text><text fill="#000000" font-family="sans-serif" font-size="13" lengthAdjust="spacing" textLength="4.1133" x="82.9541" y="444.9883">&#160;</text><text fill="#000000" font-family="sans-serif" font-size="13" lengthAdjust="spacing" textLength="10.334" x="87.0674" y="444.9883">=</text><text fill="#000000" font-family="sans-serif" font-size="13" lengthAdjust="spacing" textLength="4.1133" x="97.4014" y="444.9883">&#160;</text><text fill="#000000" font-family="sans-serif" font-size="13" font-weight="bold" lengthAdjust="spacing" textLength="54.501" x="101.5146" y="444.9883">external</text><text fill="#000000" font-family="sans-serif" font-size="13" font-weight="bold" lengthAdjust="spacing" textLength="52.7046" x="12" y="460.2988">runtime</text><text fill="#000000" font-family="sans-serif" font-size="13" lengthAdjust="spacing" textLength="4.1133" x="64.7046" y="460.2988">.</text></g><!--entity sub--><g id="elem_sub"><rect fill="#F1F1F1" height="52.9766" rx="2.5" ry="2.5" style="stroke:#181818;stroke-width:0.5;" width="180.0225" x="711.5" y="291.4883"/><text fill="#000000" font-family="sans-serif" font-size="14" lengthAdjust="spacing" textLength="77.7656" x="721.5" y="315.0234">Submission</text><text fill="#000000" font-family="sans-serif" font-size="14" lengthAdjust="spacing" textLength="4.4297" x="799.2656" y="315.0234">&#160;</text><text fill="#000000" font-family="sans-serif" font-size="14" lengthAdjust="spacing" textLength="63.2939" x="803.6953" y="315.0234">packages</text><text fill="#000000" font-family="sans-serif" font-size="14" lengthAdjust="spacing" textLength="160.0225" x="721.5" y="331.5117">submissions/*/main.py</text></g><!--entity detcore--><g id="elem_detcore"><rect fill="#F1F1F1" height="52.9766" rx="2.5" ry="2.5" style="stroke:#181818;stroke-width:0.5;" width="171.7715" x="718.5" y="398.4883"/><text fill="#000000" font-family="sans-serif" font-size="14" lengthAdjust="spacing" textLength="136.2129" x="728.5" y="422.0234">submission_adapter</text><text fill="#000000" font-family="sans-serif" font-size="14" lengthAdjust="spacing" textLength="4.4297" x="864.7129" y="422.0234">&#160;</text><text fill="#000000" font-family="sans-serif" font-size="14" lengthAdjust="spacing" textLength="11.1289" x="869.1426" y="422.0234">+</text><text fill="#000000" font-family="sans-serif" font-size="14" lengthAdjust="spacing" textLength="63.3896" x="728.5" y="438.5117">detection</text><text fill="#000000" font-family="sans-serif" font-size="14" lengthAdjust="spacing" textLength="4.4297" x="791.8896" y="438.5117">&#160;</text><text fill="#000000" font-family="sans-serif" font-size="14" lengthAdjust="spacing" textLength="63.1982" x="796.3193" y="438.5117">baselines</text></g><!--entity st--><g id="elem_st"><rect fill="#F1F1F1" height="36.4883" rx="2.5" ry="2.5" style="stroke:#181818;stroke-width:0.5;" width="172.7764" x="482" y="201.4883"/><text fill="#000000" font-family="sans-serif" font-size="14" lengthAdjust="spacing" textLength="152.7764" x="492" y="225.0234">apps/streamlit_app.py</text></g><!--entity jhm--><g id="elem_jhm"><rect fill="#F1F1F1" height="52.9766" rx="2.5" ry="2.5" style="stroke:#181818;stroke-width:0.5;" width="188.9023" x="466" y="291.4883"/><text fill="#000000" font-family="sans-serif" font-size="14" lengthAdjust="spacing" textLength="168.9023" x="476" y="315.0234">judged_headline_metrics</text><text fill="#000000" font-family="sans-serif" font-size="14" lengthAdjust="spacing" textLength="26.3799" x="476" y="331.5117">CSV</text><text fill="#000000" font-family="sans-serif" font-size="14" lengthAdjust="spacing" textLength="4.4297" x="502.3799" y="331.5117">&#160;</text><text fill="#000000" font-family="sans-serif" font-size="14" lengthAdjust="spacing" textLength="30.96" x="506.8096" y="331.5117">strip</text></g><!--entity gse--><g id="elem_gse"><rect fill="#F1F1F1" height="52.9766" rx="2.5" ry="2.5" style="stroke:#181818;stroke-width:0.5;" width="166.1592" x="947.5" y="291.4883"/><text fill="#000000" font-family="sans-serif" font-size="14" lengthAdjust="spacing" textLength="146.1592" x="957.5" y="315.0234">gary_scenario_engine</text><text fill="#000000" font-family="sans-serif" font-size="14" lengthAdjust="spacing" textLength="74.6553" x="957.5" y="331.5117">rule-based</text><text fill="#000000" font-family="sans-serif" font-size="14" lengthAdjust="spacing" textLength="4.4297" x="1032.1553" y="331.5117">&#160;</text><text fill="#000000" font-family="sans-serif" font-size="14" lengthAdjust="spacing" textLength="65.6455" x="1036.585" y="331.5117">controller</text></g><!--entity geom--><g id="elem_geom"><rect fill="#F1F1F1" height="52.9766" rx="2.5" ry="2.5" style="stroke:#181818;stroke-width:0.5;" width="190.2559" x="1131.5" y="291.4883"/><text fill="#000000" font-family="sans-serif" font-size="14" lengthAdjust="spacing" textLength="132.002" x="1141.5" y="315.0234">gary_site_geometry</text><text fill="#000000" font-family="sans-serif" font-size="14" lengthAdjust="spacing" textLength="4.4297" x="1273.502" y="315.0234">&#160;</text><text fill="#000000" font-family="sans-serif" font-size="14" lengthAdjust="spacing" textLength="11.1289" x="1277.9316" y="315.0234">+</text><text fill="#000000" font-family="sans-serif" font-size="14" lengthAdjust="spacing" textLength="71.3467" x="1141.5" y="331.5117">occupancy</text><text fill="#000000" font-family="sans-serif" font-size="14" lengthAdjust="spacing" textLength="4.4297" x="1212.8467" y="331.5117">&#160;</text><text fill="#000000" font-family="sans-serif" font-size="14" lengthAdjust="spacing" textLength="19.3184" x="1217.2764" y="331.5117">viz</text><text fill="#000000" font-family="sans-serif" font-size="14" lengthAdjust="spacing" textLength="4.4297" x="1236.5947" y="331.5117">&#160;</text><text fill="#000000" font-family="sans-serif" font-size="14" lengthAdjust="spacing" textLength="11.1289" x="1241.0244" y="331.5117">+</text><text fill="#000000" font-family="sans-serif" font-size="14" lengthAdjust="spacing" textLength="4.4297" x="1252.1533" y="331.5117">&#160;</text><text fill="#000000" font-family="sans-serif" font-size="14" lengthAdjust="spacing" textLength="55.1729" x="1256.583" y="331.5117">mobility</text></g><!--entity dt--><g id="elem_dt"><rect fill="#F1F1F1" height="52.9766" rx="2.5" ry="2.5" style="stroke:#181818;stroke-width:0.5;" width="173.084" x="1340" y="291.4883"/><text fill="#000000" font-family="sans-serif" font-size="14" lengthAdjust="spacing" textLength="78.4082" x="1350" y="315.0234">digital_twin</text><text fill="#000000" font-family="sans-serif" font-size="14" lengthAdjust="spacing" textLength="4.4297" x="1428.4082" y="315.0234">&#160;</text><text fill="#000000" font-family="sans-serif" font-size="14" lengthAdjust="spacing" textLength="7.3418" x="1432.8379" y="315.0234">/</text><text fill="#000000" font-family="sans-serif" font-size="14" lengthAdjust="spacing" textLength="75.4756" x="1350" y="331.5117">micro-twin</text><text fill="#000000" font-family="sans-serif" font-size="14" lengthAdjust="spacing" textLength="4.4297" x="1425.4756" y="331.5117">&#160;</text><text fill="#000000" font-family="sans-serif" font-size="14" lengthAdjust="spacing" textLength="73.1787" x="1429.9053" y="331.5117">generators</text></g><!--entity hooks--><g id="elem_hooks"><rect fill="#F1F1F1" height="52.9766" rx="2.5" ry="2.5" style="stroke:#181818;stroke-width:0.5;" width="221.0313" x="220" y="291.4883"/><text fill="#000000" font-family="sans-serif" font-size="14" lengthAdjust="spacing" textLength="201.0313" x="230" y="315.0234">simulation_integration_hooks</text><text fill="#000000" font-family="sans-serif" font-size="14" lengthAdjust="spacing" textLength="58.8574" x="230" y="331.5117">manifest</text><text fill="#000000" font-family="sans-serif" font-size="14" lengthAdjust="spacing" textLength="4.4297" x="288.8574" y="331.5117">&#160;</text><text fill="#000000" font-family="sans-serif" font-size="14" lengthAdjust="spacing" textLength="49.8545" x="293.2871" y="331.5117">loaders</text></g><!--entity prov--><g id="elem_prov"><rect fill="#F1F1F1" height="52.9766" rx="2.5" ry="2.5" style="stroke:#181818;stroke-width:0.5;" width="176.5566" x="258" y="398.4883"/><text fill="#000000" font-family="sans-serif" font-size="14" lengthAdjust="spacing" textLength="156.5566" x="268" y="422.0234">simulation_provenance</text><text fill="#000000" font-family="sans-serif" font-size="14" lengthAdjust="spacing" textLength="49.5332" x="268" y="438.5117">finalize</text><text fill="#000000" font-family="sans-serif" font-size="14" lengthAdjust="spacing" textLength="4.4297" x="317.5332" y="438.5117">&#160;</text><text fill="#000000" font-family="sans-serif" font-size="14" lengthAdjust="spacing" textLength="11.1289" x="321.9629" y="438.5117">+</text><text fill="#000000" font-family="sans-serif" font-size="14" lengthAdjust="spacing" textLength="4.4297" x="333.0918" y="438.5117">&#160;</text><text fill="#000000" font-family="sans-serif" font-size="14" lengthAdjust="spacing" textLength="39.5732" x="337.5215" y="438.5117">labels</text></g><!--entity pyb--><g id="elem_pyb"><rect fill="#F1F1F1" height="52.9766" rx="2.5" ry="2.5" style="stroke:#181818;stroke-width:0.5;" width="124.1387" x="1537.5" y="291.4883"/><text fill="#000000" font-family="sans-serif" font-size="14" lengthAdjust="spacing" textLength="104.1387" x="1547.5" y="315.0234">pyaerial_bridge</text><text fill="#000000" font-family="sans-serif" font-size="14" lengthAdjust="spacing" textLength="65.4951" x="1547.5" y="331.5117">PHY/MAC</text><text fill="#000000" font-family="sans-serif" font-size="14" lengthAdjust="spacing" textLength="4.4297" x="1612.9951" y="331.5117">&#160;</text><text fill="#000000" font-family="sans-serif" font-size="14" lengthAdjust="spacing" textLength="33.7969" x="1617.4248" y="331.5117">hints</text></g><!--entity ota--><g id="elem_ota"><rect fill="#F1F1F1" height="52.9766" rx="2.5" ry="2.5" style="stroke:#181818;stroke-width:0.5;" width="145.5488" x="1679.5" y="291.4883"/><text fill="#000000" font-family="sans-serif" font-size="14" lengthAdjust="spacing" textLength="124.4277" x="1689.5" y="315.0234">ota_data_interface</text><text fill="#000000" font-family="sans-serif" font-size="14" lengthAdjust="spacing" textLength="27.7607" x="1689.5" y="331.5117">lake</text><text fill="#000000" font-family="sans-serif" font-size="14" lengthAdjust="spacing" textLength="4.4297" x="1717.2607" y="331.5117">&#160;</text><text fill="#000000" font-family="sans-serif" font-size="14" lengthAdjust="spacing" textLength="58.8574" x="1721.6904" y="331.5117">manifest</text><text fill="#000000" font-family="sans-serif" font-size="14" lengthAdjust="spacing" textLength="4.4297" x="1780.5479" y="331.5117">&#160;</text><text fill="#000000" font-family="sans-serif" font-size="14" lengthAdjust="spacing" textLength="30.0713" x="1784.9775" y="331.5117">read</text></g><!--entity docs--><g id="elem_docs"><rect fill="#F1F1F1" height="52.9766" rx="2.5" ry="2.5" style="stroke:#181818;stroke-width:0.5;" width="172.4141" x="468.5" y="76.4883"/><text fill="#000000" font-family="sans-serif" font-size="14" lengthAdjust="spacing" textLength="31.7188" x="478.5" y="100.0234">docs</text><text fill="#000000" font-family="sans-serif" font-size="14" lengthAdjust="spacing" textLength="4.4297" x="510.2188" y="100.0234">&#160;</text><text fill="#000000" font-family="sans-serif" font-size="14" lengthAdjust="spacing" textLength="7.3418" x="514.6484" y="100.0234">/</text><text fill="#000000" font-family="sans-serif" font-size="14" lengthAdjust="spacing" textLength="4.4297" x="521.9902" y="100.0234">&#160;</text><text fill="#000000" font-family="sans-serif" font-size="14" lengthAdjust="spacing" textLength="29.2236" x="526.4199" y="100.0234">UML</text><text fill="#000000" font-family="sans-serif" font-size="14" lengthAdjust="spacing" textLength="4.4297" x="555.6436" y="100.0234">&#160;</text><text fill="#000000" font-family="sans-serif" font-size="14" lengthAdjust="spacing" textLength="7.3418" x="560.0732" y="100.0234">/</text><text fill="#000000" font-family="sans-serif" font-size="14" lengthAdjust="spacing" textLength="152.4141" x="478.5" y="116.5117">PROVENANCE_LEGEND</text></g><!--entity cfg--><g id="elem_cfg"><rect fill="#F1F1F1" height="52.9766" rx="2.5" ry="2.5" style="stroke:#181818;stroke-width:0.5;" width="192.498" x="258.5" y="76.4883"/><text fill="#000000" font-family="sans-serif" font-size="14" lengthAdjust="spacing" textLength="156.9395" x="268.5" y="100.0234">configs/wireless_scene</text><text fill="#000000" font-family="sans-serif" font-size="14" lengthAdjust="spacing" textLength="4.4297" x="425.4395" y="100.0234">&#160;</text><text fill="#000000" font-family="sans-serif" font-size="14" lengthAdjust="spacing" textLength="11.1289" x="429.8691" y="100.0234">+</text><text fill="#000000" font-family="sans-serif" font-size="14" lengthAdjust="spacing" textLength="58.7344" x="268.5" y="116.5117">schemas</text></g><polygon fill="#181818" points="803.7633,398.2037,807.5046,389.0931,803.6205,393.2057,799.5079,389.3216,803.7633,398.2037" style="stroke:#181818;stroke-width:1.0;"/><path d="M802.2339,344.6742 C802.6988,360.9453 803.1265,375.916 803.5919,392.2061 " fill="none" style="stroke:#181818;stroke-width:1.0;"/><polygon fill="#181818" points="763.7825,291.342,758.324,283.1441,759.56,288.6643,754.0398,289.9003,763.7825,291.342" style="stroke:#181818;stroke-width:1.0;"/><path d="M644.6855,237.51 C662.3355,242.4491 680.8249,248.4483 697.5,255.4883 C720.4963,265.197 739.5184,275.9554 758.7154,288.1288 " fill="none" style="stroke:#181818;stroke-width:1.0;"/><polygon fill="#181818" points="856.0917,398.3961,865.807,396.7799,860.2656,395.6431,861.4023,390.1017,856.0917,398.3961" style="stroke:#181818;stroke-width:1.0;"/><path d="M655.1799,226.1246 C748.0933,233.0693 884.5025,246.2307 900.5,264.4883 C926.2751,293.9047 918.0494,317.5355 900.5,352.4883 C890.8955,371.6173 878.4877,383.6243 861.1004,395.0925 " fill="none" style="stroke:#181818;stroke-width:1.0;"/><polygon fill="#181818" points="562.6407,291.1657,567.3706,282.5269,563.0538,286.1828,559.398,281.866,562.6407,291.1657" style="stroke:#181818;stroke-width:1.0;"/><path d="M567.0698,237.7405 C565.8383,252.5948 564.5391,268.2668 563.1364,285.1862 " fill="none" style="stroke:#181818;stroke-width:1.0;"/><polygon fill="#181818" points="998.3822,291.194,993.4289,282.6813,994.3291,288.2661,988.7443,289.1663,998.3822,291.194" style="stroke:#181818;stroke-width:1.0;"/><path d="M655.2411,224.1544 C746.5528,228.838 883.8209,238.4537 933.5,255.4883 C956.8886,263.508 975.5138,274.6743 993.5185,287.6805 " fill="none" style="stroke:#181818;stroke-width:1.0;"/><polygon fill="#181818" points="1185.0066,291.3731,1179.0457,283.533,1180.6247,288.965,1175.1927,290.544,1185.0066,291.3731" style="stroke:#181818;stroke-width:1.0;"/><path d="M655.0347,223.285 C788.2267,228.2777 1037.0314,240.5237 1122.5,264.4883 C1144.1168,270.5494 1161.2819,278.3349 1179.7484,288.4833 " fill="none" style="stroke:#181818;stroke-width:1.0;"/><polygon fill="#181818" points="1388.9609,291.4049,1383.3114,283.3374,1384.6766,288.8271,1379.187,290.1923,1388.9609,291.4049" style="stroke:#181818;stroke-width:1.0;"/><path d="M655.1962,220.7209 C827.2506,221.9636 1205.9804,228.8089 1330.5,264.4883 C1350.9526,270.3487 1366.7431,278.0367 1383.8198,288.3115 " fill="none" style="stroke:#181818;stroke-width:1.0;"/><polygon fill="#181818" points="389.121,291.4301,398.969,291.5583,393.7161,289.459,395.8153,284.2061,389.121,291.4301" style="stroke:#181818;stroke-width:1.0;"/><path d="M522.7334,237.5427 C501.5884,245.5389 476.19,255.3091 453.5,264.4883 C432.407,273.0214 414.9524,280.3497 394.6351,289.0648 " fill="none" style="stroke:#181818;stroke-width:1.0;"/><polygon fill="#181818" points="342.5709,398.2037,345.1695,388.7038,341.8177,393.2607,337.2608,389.9089,342.5709,398.2037" style="stroke:#181818;stroke-width:1.0;"/><path d="M334.414,344.6742 C336.8934,360.9453 339.1848,375.9821 341.6671,392.2721 " fill="none" style="stroke:#181818;stroke-width:1.0;"/><polygon fill="#181818" points="435.3022,416.1927,444.6927,419.1624,440.2709,415.6342,443.7991,411.2124,435.3022,416.1927" style="stroke:#181818;stroke-width:1.0;"/><path d="M631.8345,237.6423 C644.368,244.0144 655.9649,252.6942 663.5,264.4883 C684.5571,297.447 687.9245,321.9412 663.5,352.4883 C635.3584,387.6842 524.8598,406.1262 441.2647,415.5225 " fill="none" style="stroke:#181818;stroke-width:1.0;"/><polygon fill="#181818" points="1571.4333,291.2923,1566.8606,282.5693,1567.5134,288.1884,1561.8943,288.8411,1571.4333,291.2923" style="stroke:#181818;stroke-width:1.0;"/><path d="M655.2921,221.6903 C875.5675,225.1357 1444.6062,236.6449 1525.5,264.4883 C1542.1818,270.2301 1553.7272,277.2719 1566.7294,287.5676 " fill="none" style="stroke:#181818;stroke-width:1.0;"/><polygon fill="#181818" points="1720.9653,291.3292,1715.9434,282.8569,1716.8887,288.4342,1711.3114,289.3795,1720.9653,291.3292" style="stroke:#181818;stroke-width:1.0;"/><path d="M655.0083,223.3735 C818.8566,228.9236 1185.7169,241.7583 1494.5,255.4883 C1572.7471,258.9675 1595.9159,240.5732 1670.5,264.4883 C1688.5283,270.269 1701.5852,277.5664 1716.0734,287.8552 " fill="none" style="stroke:#181818;stroke-width:1.0;"/><polygon fill="#181818" points="566.41,201.3948,569.2881,191.9759,565.8031,196.4318,561.3472,192.9468,566.41,201.3948" style="stroke:#181818;stroke-width:1.0;"/><path d="M557.6419,129.6843 C560.3184,151.5745 563.3611,176.4597 565.6818,195.4392 " fill="none" style="stroke:#181818;stroke-width:1.0;stroke-dasharray:7.0,7.0;"/><text fill="#000000" font-family="sans-serif" font-size="13" lengthAdjust="spacing" textLength="87.9404" x="564.5" y="162.0566">human review</text><polygon fill="#181818" points="333.4052,291.2044,338.3878,282.7088,333.9651,286.2358,330.4381,281.8131,333.4052,291.2044" style="stroke:#181818;stroke-width:1.0;"/><path d="M351.605,129.6811 C346.9921,170.6206 338.6964,244.2453 334.077,285.2421 " fill="none" style="stroke:#181818;stroke-width:1.0;stroke-dasharray:7.0,7.0;"/><!--SRC=[NLHjRzj63FwkNy6r7vguiRss2v0LM07NaT9sUIdghaCn5m8jqT8bfplXxXHF7GRiH-mNxfUCFDbEtIyIJtn8FYIVqnEunDvs0JOgrFBslG_Km8N3jhvNN-7eGeKttMgyTefCgNjm_29tdFpGEgmQ13t4-uO26ao22ffWRar0PSZ1lQ8D_FVFlr1qZaC3nxSMZbhhmxXrzfQAS9ma_awP5XqsKDYcjOQ1Yz1p8iT-D9McRo0RvlQxAaCDpyv-J98MYpki21wzwygAofY1c8QoXcr7Z-1nUfQTfZ_3Nmd07ujkrIZlnRkDz4lZzn_zT3HjcFgaxRy0Uc2FH3q0SYon3TpPqoKF8Z0_IRL2JveRzZ68lqlbvEzls2s28soq2e1jgrM14YVSNcJFi_E16tlyrE-0EH_tD8BuRsE7UKrOIh6SP-vKmVpdYqyCSQgDuDkwEIWzvubefbh21ReUwCz0nW_LinVfQNOwLA_OcVk233fbSp8LbrWQrsaQItioMHESrPfSB5DvUWXJWVAAh33gPJIsABeMJT63gEWfD7QbkAUX6m5AQAag5L3dOQCCJ9UcKOMputYgYDM3mRhjHCFXC5NJwJX1JiqokcVIff1LPrbsbZuR6l9xLAvCeCeDTctj7S-iGQFMv0DeYwpeeKxqVHVxa7zfrigWLb-9osfSaHwY1770xxLJl2a6tNoSmH6kU3SOXUAFXUCy_IcT3npR7iafdi4gXYpD-pUVfrUpETHCUPkzZnAq0VCI-I6zk3KA7Ort1Fj6M3TbZ63e0PrVZTre6XZn4jUg4k7DqopRJggqXOSf_7PrAMju_-7cKtezkvwd-MLwaLwV3ojWZ62717wwKOuqUHybGx9pNzJKu42wM5T2WUyDZCUlzZU2MSfHRjNM_CuZsjsQeg-TAOBP1OITDImhFkCvhc7hEx3xVJMPJ6nsCc4M0Lv2tV7yU7JoeqgOTVGCcHDZ0y7AXc0RiEkzECw9sgktLpSdiE2L6eGF7qzWTdFEpxQVnNMUoEPVCdOqsgrdB3eRZO35lVyNJ1YHTLg3j_gUDGY_S83SJySo0zUPe1eQZIO9_tH1s2J_0m00]--></g></svg>