<svg xmlns="http://www.w3.org/2000/svg" xmlns:xlink="http://www.w3.org/1999/xlink" contentStyleType="text/css" height="1062px" preserveAspectRatio="none" style="width:2212px;height:1062px;background:#FFFFFF;" version="1.1" viewBox="0 0 2212 1062" width="2212px" zoomAndPan="magnify"><defs/><g><!--cluster edge_ran_gary--><g id="cluster_edge_ran_gary"><path d="M16.5,4 L122.1992,4 A3.75,3.75 0 0 1 124.6992,6.5 L131.6992,26.4883 L1972.5,26.4883 A2.5,2.5 0 0 1 1975,28.9883 L1975,1052.5 A2.5,2.5 0 0 1 1972.5,1055 L16.5,1055 A2.5,2.5 0 0 1 14,1052.5 L14,6.5 A2.5,2.5 0 0 1 16.5,4 " fill="none" style="stroke:#000000;stroke-width:1.5;"/><line style="stroke:#000000;stroke-width:1.5;" x1="14" x2="131.6992" y1="26.4883" y2="26.4883"/><text fill="#000000" font-family="sans-serif" font-size="14" font-weight="bold" lengthAdjust="spacing" textLength="104.6992" x="18" y="19.5352">edge_ran_gary</text></g><!--cluster data_pipeline--><g id="cluster_data_pipeline"><path d="M1345.5,31 L1442.7227,31 A3.75,3.75 0 0 1 1445.2227,33.5 L1452.2227,53.4883 L1964.5,53.4883 A2.5,2.5 0 0 1 1967,55.9883 L1967,265.5 A2.5,2.5 0 0 1 1964.5,268 L1345.5,268 A2.5,2.5 0 0 1 1343,265.5 L1343,33.5 A2.5,2.5 0 0 1 1345.5,31 " fill="none" style="stroke:#000000;stroke-width:1.5;"/><line style="stroke:#000000;stroke-width:1.5;" x1="1343" x2="1452.2227" y1="53.4883" y2="53.4883"/><text fill="#000000" font-family="sans-serif" font-size="14" font-weight="bold" lengthAdjust="spacing" textLength="96.2227" x="1347" y="46.5352">data_pipeline</text></g><!--cluster detection--><g id="cluster_detection"><path d="M1066.5,305 L1134.6699,305 A3.75,3.75 0 0 1 1137.1699,307.5 L1144.1699,327.4883 L1964.5,327.4883 A2.5,2.5 0 0 1 1967,329.9883 L1967,806.5 A2.5,2.5 0 0 1 1964.5,809 L1066.5,809 A2.5,2.5 0 0 1 1064,806.5 L1064,307.5 A2.5,2.5 0 0 1 1066.5,305 " fill="none" style="stroke:#000000;stroke-width:1.5;"/><line style="stroke:#000000;stroke-width:1.5;" x1="1064" x2="1144.1699" y1="327.4883" y2="327.4883"/><text fill="#000000" font-family="sans-serif" font-size="14" font-weight="bold" lengthAdjust="spacing" textLength="67.1699" x="1068" y="320.5352">detection</text></g><!--cluster viz--><g id="cluster_viz"><path d="M1609.5,846 L1631.6299,846 A3.75,3.75 0 0 1 1634.1299,848.5 L1641.1299,868.4883 L1964.5,868.4883 A2.5,2.5 0 0 1 1967,870.9883 L1967,1044.5 A2.5,2.5 0 0 1 1964.5,1047 L1609.5,1047 A2.5,2.5 0 0 1 1607,1044.5 L1607,848.5 A2.5,2.5 0 0 1 1609.5,846 " fill="none" style="stroke:#000000;stroke-width:1.5;"/><line style="stroke:#000000;stroke-width:1.5;" x1="1607" x2="1641.1299" y1="868.4883" y2="868.4883"/><text fill="#000000" font-family="sans-serif" font-size="14" font-weight="bold" lengthAdjust="spacing" textLength="21.1299" x="1611" y="861.5352">viz</text></g><!--cluster channels--><g id="cluster_channels"><path d="M955.5,31 L1020.4365,31 A3.75,3.75 0 0 1 1022.9365,33.5 L1029.9365,53.4883 L1332.5,53.4883 A2.5,2.5 0 0 1 1335,55.9883 L1335,128.5 A2.5,2.5 0 0 1 1332.5,131 L955.5,131 A2.5,2.5 0 0 1 953,128.5 L953,33.5 A2.5,2.5 0 0 1 955.5,31 " fill="none" style="stroke:#000000;stroke-width:1.5;"/><line style="stroke:#000000;stroke-width:1.5;" x1="953" x2="1029.9365" y1="53.4883" y2="53.4883"/><text fill="#000000" font-family="sans-serif" font-size="14" font-weight="bold" lengthAdjust="spacing" textLength="63.9365" x="957" y="46.5352">channels</text></g><!--cluster models--><g id="cluster_models"><path d="M24.5,31 L77.9658,31 A3.75,3.75 0 0 1 80.4658,33.5 L87.4658,53.4883 L942.5,53.4883 A2.5,2.5 0 0 1 945,55.9883 L945,128.5 A2.5,2.5 0 0 1 942.5,131 L24.5,131 A2.5,2.5 0 0 1 22,128.5 L22,33.5 A2.5,2.5 0 0 1 24.5,31 " fill="none" style="stroke:#000000;stroke-width:1.5;"/><line style="stroke:#000000;stroke-width:1.5;" x1="22" x2="87.4658" y1="53.4883" y2="53.4883"/><text fill="#000000" font-family="sans-serif" font-size="14" font-weight="bold" lengthAdjust="spacing" textLength="52.4658" x="26" y="46.5352">models</text></g><!--cluster sim--><g id="cluster_sim"><path d="M495.5,168 L522.5449,168 A3.75,3.75 0 0 1 525.0449,170.5 L532.0449,190.4883 L820.5,190.4883 A2.5,2.5 0 0 1 823,192.9883 L823,402.5 A2.5,2.5 0 0 1 820.5,405 L495.5,405 A2.5,2.5 0 0 1 493,402.5 L493,170.5 A2.5,2.5 0 0 1 495.5,168 " fill="none" style="stroke:#000000;stroke-width:1.5;"/><line style="stroke:#000000;stroke-width:1.5;" x1="493" x2="532.0449" y1="190.4883" y2="190.4883"/><text fill="#000000" font-family="sans-serif" font-size="14" font-weight="bold" lengthAdjust="spacing" textLength="26.0449" x="497" y="183.5352">sim</text></g><!--cluster utils--><g id="cluster_utils"><path d="M833.5,305 L866.3896,305 A3.75,3.75 0 0 1 868.8896,307.5 L875.8896,327.4883 L1044.5,327.4883 A2.5,2.5 0 0 1 1047,329.9883 L1047,402.5 A2.5,2.5 0 0 1 1044.5,405 L833.5,405 A2.5,2.5 0 0 1 831,402.5 L831,307.5 A2.5,2.5 0 0 1 833.5,305 " fill="none" style="stroke:#000000;stroke-width:1.5;"/><line style="stroke:#000000;stroke-width:1.5;" x1="831" x2="875.8896" y1="327.4883" y2="327.4883"/><text fill="#000000" font-family="sans-serif" font-size="14" font-weight="bold" lengthAdjust="spacing" textLength="31.8896" x="835" y="320.5352">utils</text></g><!--entity cloud--><g id="elem_cloud"><path d="M1993.126,1002.8582 C1996.5505,995.9057 2002.4454,996.393 2006.5793,1002.1047 C2009.8488,996.2757 2016.3667,996.5199 2019.8543,1001.8451 C2023.5074,994.8314 2030.6556,993.7126 2035.9313,999.8634 C2041.0529,994.3847 2046.1237,994.3068 2050.1047,1001.173 C2052.4473,994.13 2058.8029,992.8776 2063.3882,998.8913 C2067.9176,991.3856 2072.5396,991.4668 2078.0878,997.8098 C2083.1152,990.7027 2089.0573,991.8456 2092.5153,999.3585 C2097.4128,992.2323 2103.5811,992.2947 2107.3949,1000.4161 C2110.9515,992.4557 2117.8588,992.3212 2122.535,999.2799 C2127.2218,993.2003 2131.4376,992.4501 2136.439,998.9317 C2140.8468,993.2557 2146.1123,993.8421 2149.7833,999.7784 C2154.8716,992.7979 2159.8308,993.4281 2163.8551,1000.82 C2170.2942,993.8118 2175.2355,993.8786 2179.5782,1002.8789 C2182.6839,996.9844 2189.1324,995.6673 2193.2334,1001.7435 C2202.4716,1003.7157 2204.6564,1011.0047 2198.26,1017.8547 C2205.3371,1025.3843 2202.148,1031.7731 2192.8217,1033.6577 C2188.1725,1040.9514 2182.7364,1041.431 2178.2552,1033.4971 C2174.5521,1041.3565 2169.6089,1040.1724 2164.4032,1035.1075 C2160.4244,1041.8604 2155.3631,1040.7089 2151.4334,1035.0561 C2148.5007,1042.1533 2141.6175,1043.1234 2137.5176,1036.216 C2133.8572,1044.5827 2127.5478,1044.912 2122.0279,1038.1156 C2118.3004,1044.944 2112.4494,1045.5232 2107.8896,1038.9967 C2104.798,1046.3909 2097.61,1048.0678 2092.7267,1040.8567 C2087.1437,1048.002 2080.7974,1046.0107 2078.1007,1038.0602 C2073.9097,1043.9214 2069.779,1043.2247 2065.5113,1038.1486 C2060.7118,1046.6131 2053.3093,1046.1778 2049.0767,1037.6019 C2044.6477,1043.0024 2038.5411,1043.7722 2035.0691,1036.5407 C2029.6847,1042.0876 2024.5399,1040.9517 2021.2481,1034.1908 C2016.4473,1040.5855 2010.7273,1040.1316 2006.2495,1033.8099 C2002.8613,1039.3436 1996.2372,1040.716 1992.8618,1033.796 C1984.0168,1030.0087 1983.1817,1024.312 1989.8097,1017.6074 C1984.2673,1011.6286 1985.7923,1005.942 1993.126,1002.8582 " fill="#F1F1F1" style="stroke:#181818;stroke-width:0.5;"/><text fill="#000000" font-family="sans-serif" font-size="14" lengthAdjust="spacing" textLength="187.5303" x="1998" y="1021.5352">Streamlit Community Cloud</text></g><!--entity sds--><g id="elem_sds"><path d="M1983.5,224.5 C1983.5,214.5 2044.9028,214.5 2044.9028,214.5 C2044.9028,214.5 2106.3057,214.5 2106.3057,224.5 L2106.3057,249.9883 C2106.3057,259.9883 2044.9028,259.9883 2044.9028,259.9883 C2044.9028,259.9883 1983.5,259.9883 1983.5,249.9883 L1983.5,224.5 " fill="#F1F1F1" style="stroke:#181818;stroke-width:0.5;"/><path d="M1983.5,224.5 C1983.5,234.5 2044.9028,234.5 2044.9028,234.5 C2044.9028,234.5 2106.3057,234.5 2106.3057,224.5 " fill="none" style="stroke:#181818;stroke-width:0.5;"/><text fill="#000000" font-family="sans-serif" font-size="14" lengthAdjust="spacing" textLength="102.8057" x="1993.5" y="252.0352">SpectrumX SDS</text></g><!--entity loader--><g id="elem_loader"><rect fill="#F1F1F1" height="46.4883" rx="2.5" ry="2.5" style="stroke:#181818;stroke-width:0.5;" width="137.4941" x="1552.5" y="77"/><rect fill="#F1F1F1" height="10" style="stroke:#181818;stroke-width:0.5;" width="15" x="1669.9941" y="82"/><rect fill="#F1F1F1" height="2" style="stroke:#181818;stroke-width:0.5;" width="4" x="1667.9941" y="84"/><rect fill="#F1F1F1" height="2" style="stroke:#181818;stroke-width:0.5;" width="4" x="1667.9941" y="88"/><text fill="#000000" font-family="sans-serif" font-size="14" lengthAdjust="spacing" textLength="97.4941" x="1567.5" y="110.5352">DatasetLoader</text></g><!--entity preproc--><g id="elem_preproc"><rect fill="#F1F1F1" height="46.4883" rx="2.5" ry="2.5" style="stroke:#181818;stroke-width:0.5;" width="142.8877" x="1483.5" y="214"/><rect fill="#F1F1F1" height="10" style="stroke:#181818;stroke-width:0.5;" width="15" x="1606.3877" y="219"/><rect fill="#F1F1F1" height="2" style="stroke:#181818;stroke-width:0.5;" width="4" x="1604.3877" y="221"/><rect fill="#F1F1F1" height="2" style="stroke:#181818;stroke-width:0.5;" width="4" x="1604.3877" y="225"/><text fill="#000000" font-family="sans-serif" font-size="14" lengthAdjust="spacing" textLength="102.8877" x="1498.5" y="247.5352">IQPreprocessor</text></g><!--entity deepmimo--><g id="elem_deepmimo"><rect fill="#F1F1F1" height="46.4883" rx="2.5" ry="2.5" style="stroke:#181818;stroke-width:0.5;" width="182.7959" x="1351.5" y="77"/><rect fill="#F1F1F1" height="10" style="stroke:#181818;stroke-width:0.5;" width="15" x="1514.2959" y="82"/><rect fill="#F1F1F1" height="2" style="stroke:#181818;stroke-width:0.5;" width="4" x="1512.2959" y="84"/><rect fill="#F1F1F1" height="2" style="stroke:#181818;stroke-width:0.5;" width="4" x="1512.2959" y="88"/><text fill="#000000" font-family="sans-serif" font-size="14" lengthAdjust="spacing" textLength="142.7959" x="1366.5" y="110.5352">DeepMIMO Scenarios</text></g><g id="elem_GMN7"><path d="M1707.5,79.5 L1707.5,96 L1689.7344,100 L1707.5,104 L1707.5,120.1211 A0,0 0 0 0 1707.5,120.1211 L1958.1201,120.1211 A0,0 0 0 0 1958.1201,120.1211 L1958.1201,89.5 L1948.1201,79.5 L1707.5,79.5 A0,0 0 0 0 1707.5,79.5 " fill="#FEFFDD" style="stroke:#181818;stroke-width:0.5;"/><path d="M1948.1201,79.5 L1948.1201,89.5 L1958.1201,89.5 L1948.1201,79.5 " fill="#FEFFDD" style="stroke:#181818;stroke-width:0.5;"/><text fill="#000000" font-family="sans-serif" font-size="13" lengthAdjust="spacing" textLength="219.3623" x="1713.5" y="97.0684">Downloads SpectrumX SDS dataset</text><text fill="#000000" font-family="sans-serif" font-size="13" lengthAdjust="spacing" textLength="229.6201" x="1713.5" y="112.3789">Manages labeled/unlabeled samples</text></g><g id="elem_GMN10"><path d="M1645,224.5 L1645,233 L1626.9609,237 L1645,241 L1645,249.8105 A0,0 0 0 0 1645,249.8105 L1953.1807,249.8105 A0,0 0 0 0 1953.1807,249.8105 L1953.1807,234.5 L1943.1807,224.5 L1645,224.5 A0,0 0 0 0 1645,224.5 " fill="#FEFFDD" style="stroke:#181818;stroke-width:0.5;"/><path d="M1943.1807,224.5 L1943.1807,234.5 L1953.1807,234.5 L1943.1807,224.5 " fill="#FEFFDD" style="stroke:#181818;stroke-width:0.5;"/><text fill="#000000" font-family="sans-serif" font-size="13" lengthAdjust="spacing" textLength="287.1807" x="1651" y="242.0684">Normalizes, windows, standardizes IQ format</text></g><!--entity features--><g id="elem_features"><rect fill="#F1F1F1" height="46.4883" rx="2.5" ry="2.5" style="stroke:#181818;stroke-width:0.5;" width="152.0957" x="1450" y="351"/><rect fill="#F1F1F1" height="10" style="stroke:#181818;stroke-width:0.5;" width="15" x="1582.0957" y="356"/><rect fill="#F1F1F1" height="2" style="stroke:#181818;stroke-width:0.5;" width="4" x="1580.0957" y="358"/><rect fill="#F1F1F1" height="2" style="stroke:#181818;stroke-width:0.5;" width="4" x="1580.0957" y="362"/><text fill="#000000" font-family="sans-serif" font-size="14" lengthAdjust="spacing" textLength="112.0957" x="1465" y="384.5352">FeatureExtractor</text></g><!--entity ssl--><g id="elem_ssl"><rect fill="#F1F1F1" height="46.4883" rx="2.5" ry="2.5" style="stroke:#181818;stroke-width:0.5;" width="116.9316" x="1072.5" y="452"/><rect fill="#F1F1F1" height="10" style="stroke:#181818;stroke-width:0.5;" width="15" x="1169.4316" y="457"/><rect fill="#F1F1F1" height="2" style="stroke:#181818;stroke-width:0.5;" width="4" x="1167.4316" y="459"/><rect fill="#F1F1F1" height="2" style="stroke:#181818;stroke-width:0.5;" width="4" x="1167.4316" y="463"/><text fill="#000000" font-family="sans-serif" font-size="14" lengthAdjust="spacing" textLength="76.9316" x="1087.5" y="485.5352">EncoderSSL</text></g><!--entity classifier--><g id="elem_classifier"><rect fill="#F1F1F1" height="46.4883" rx="2.5" ry="2.5" style="stroke:#181818;stroke-width:0.5;" width="137.1387" x="1290.5" y="553"/><rect fill="#F1F1F1" height="10" style="stroke:#181818;stroke-width:0.5;" width="15" x="1407.6387" y="558"/><rect fill="#F1F1F1" height="2" style="stroke:#181818;stroke-width:0.5;" width="4" x="1405.6387" y="560"/><rect fill="#F1F1F1" height="2" style="stroke:#181818;stroke-width:0.5;" width="4" x="1405.6387" y="564"/><text fill="#000000" font-family="sans-serif" font-size="14" lengthAdjust="spacing" textLength="97.1387" x="1305.5" y="586.5352">ClassifierHead</text></g><!--entity anomaly--><g id="elem_anomaly"><rect fill="#F1F1F1" height="46.4883" rx="2.5" ry="2.5" style="stroke:#181818;stroke-width:0.5;" width="140.4268" x="1631" y="452"/><rect fill="#F1F1F1" height="10" style="stroke:#181818;stroke-width:0.5;" width="15" x="1751.4268" y="457"/><rect fill="#F1F1F1" height="2" style="stroke:#181818;stroke-width:0.5;" width="4" x="1749.4268" y="459"/><rect fill="#F1F1F1" height="2" style="stroke:#181818;stroke-width:0.5;" width="4" x="1749.4268" y="463"/><text fill="#000000" font-family="sans-serif" font-size="14" lengthAdjust="spacing" textLength="100.4268" x="1646" y="485.5352">AnomalyModel</text></g><!--entity calibrate--><g id="elem_calibrate"><rect fill="#F1F1F1" height="46.4883" rx="2.5" ry="2.5" style="stroke:#181818;stroke-width:0.5;" width="107.3477" x="1627.5" y="654"/><rect fill="#F1F1F1" height="10" style="stroke:#181818;stroke-width:0.5;" width="15" x="1714.8477" y="659"/><rect fill="#F1F1F1" height="2" style="stroke:#181818;stroke-width:0.5;" width="4" x="1712.8477" y="661"/><rect fill="#F1F1F1" height="2" style="stroke:#181818;stroke-width:0.5;" width="4" x="1712.8477" y="665"/><text fill="#000000" font-family="sans-serif" font-size="14" lengthAdjust="spacing" textLength="67.3477" x="1642.5" y="687.5352">Calibrator</text></g><!--entity ensemble--><g id="elem_ensemble"><rect fill="#F1F1F1" height="46.4883" rx="2.5" ry="2.5" style="stroke:#181818;stroke-width:0.5;" width="149.6074" x="1606" y="755"/><rect fill="#F1F1F1" height="10" style="stroke:#181818;stroke-width:0.5;" width="15" x="1735.6074" y="760"/><rect fill="#F1F1F1" height="2" style="stroke:#181818;stroke-width:0.5;" width="4" x="1733.6074" y="762"/><rect fill="#F1F1F1" height="2" style="stroke:#181818;stroke-width:0.5;" width="4" x="1733.6074" y="766"/><text fill="#000000" font-family="sans-serif" font-size="14" lengthAdjust="spacing" textLength="109.6074" x="1621" y="788.5352">EnsembleFusion</text></g><g id="elem_GMN20"><path d="M1620.5,361.5 L1620.5,370 L1602.1836,374 L1620.5,378 L1620.5,386.8105 A0,0 0 0 0 1620.5,386.8105 L1827.5815,386.8105 A0,0 0 0 0 1827.5815,386.8105 L1827.5815,371.5 L1817.5815,361.5 L1620.5,361.5 A0,0 0 0 0 1620.5,361.5 " fill="#FEFFDD" style="stroke:#181818;stroke-width:0.5;"/><path d="M1817.5815,361.5 L1817.5815,371.5 L1827.5815,371.5 L1817.5815,361.5 " fill="#FEFFDD" style="stroke:#181818;stroke-width:0.5;"/><text fill="#000000" font-family="sans-serif" font-size="13" lengthAdjust="spacing" textLength="186.0815" x="1626.5" y="379.0684">Time/freq/statistical features</text></g><g id="elem_GMN23"><path d="M1207.5,462.5 L1207.5,471 L1189.7969,475 L1207.5,479 L1207.5,487.8105 A0,0 0 0 0 1207.5,487.8105 L1478.4644,487.8105 A0,0 0 0 0 1478.4644,487.8105 L1478.4644,472.5 L1468.4644,462.5 L1207.5,462.5 A0,0 0 0 0 1207.5,462.5 " fill="#FEFFDD" style="stroke:#181818;stroke-width:0.5;"/><path d="M1468.4644,462.5 L1468.4644,472.5 L1478.4644,472.5 L1468.4644,462.5 " fill="#FEFFDD" style="stroke:#181818;stroke-width:0.5;"/><text fill="#000000" font-family="sans-serif" font-size="13" lengthAdjust="spacing" textLength="249.9644" x="1213.5" y="480.0684">Self-supervised representation learning</text></g><g id="elem_GMN26"><path d="M1445.5,563.5 L1445.5,572 L1427.5234,576 L1445.5,580 L1445.5,588.8105 A0,0 0 0 0 1445.5,588.8105 L1664.0327,588.8105 A0,0 0 0 0 1664.0327,588.8105 L1664.0327,573.5 L1654.0327,563.5 L1445.5,563.5 A0,0 0 0 0 1445.5,563.5 " fill="#FEFFDD" style="stroke:#181818;stroke-width:0.5;"/><path d="M1654.0327,563.5 L1654.0327,573.5 L1664.0327,573.5 L1654.0327,563.5 " fill="#FEFFDD" style="stroke:#181818;stroke-width:0.5;"/><text fill="#000000" font-family="sans-serif" font-size="13" lengthAdjust="spacing" textLength="197.5327" x="1451.5" y="581.0684">Supervised binary classification</text></g><g id="elem_GMN29"><path d="M1789.5,462.5 L1789.5,471 L1771.2813,475 L1789.5,479 L1789.5,487.8105 A0,0 0 0 0 1789.5,487.8105 L1958.5273,487.8105 A0,0 0 0 0 1958.5273,487.8105 L1958.5273,472.5 L1948.5273,462.5 L1789.5,462.5 A0,0 0 0 0 1789.5,462.5 " fill="#FEFFDD" style="stroke:#181818;stroke-width:0.5;"/><path d="M1948.5273,462.5 L1948.5273,472.5 L1958.5273,472.5 L1948.5273,462.5 " fill="#FEFFDD" style="stroke:#181818;stroke-width:0.5;"/><text fill="#000000" font-family="sans-serif" font-size="13" lengthAdjust="spacing" textLength="148.0273" x="1795.5" y="480.0684">Unsupervised detection</text></g><!--entity streamlit_app--><g id="elem_streamlit_app"><rect fill="#F1F1F1" height="46.4883" rx="2.5" ry="2.5" style="stroke:#181818;stroke-width:0.5;" width="132.1484" x="1615" y="892"/><rect fill="#F1F1F1" height="10" style="stroke:#181818;stroke-width:0.5;" width="15" x="1727.1484" y="897"/><rect fill="#F1F1F1" height="2" style="stroke:#181818;stroke-width:0.5;" width="4" x="1725.1484" y="899"/><rect fill="#F1F1F1" height="2" style="stroke:#181818;stroke-width:0.5;" width="4" x="1725.1484" y="903"/><text fill="#000000" font-family="sans-serif" font-size="14" lengthAdjust="spacing" textLength="92.1484" x="1630" y="925.5352">Streamlit App</text></g><!--entity plotting--><g id="elem_plotting"><rect fill="#F1F1F1" height="46.4883" rx="2.5" ry="2.5" style="stroke:#181818;stroke-width:0.5;" width="126.9189" x="1627.5" y="993"/><rect fill="#F1F1F1" height="10" style="stroke:#181818;stroke-width:0.5;" width="15" x="1734.4189" y="998"/><rect fill="#F1F1F1" height="2" style="stroke:#181818;stroke-width:0.5;" width="4" x="1732.4189" y="1000"/><rect fill="#F1F1F1" height="2" style="stroke:#181818;stroke-width:0.5;" width="4" x="1732.4189" y="1004"/><text fill="#000000" font-family="sans-serif" font-size="14" lengthAdjust="spacing" textLength="86.9189" x="1642.5" y="1026.5352">Plotting Utils</text></g><g id="elem_GMN35"><path d="M1765.5,894.5 L1765.5,911 L1747.1074,915 L1765.5,919 L1765.5,935.1211 A0,0 0 0 0 1765.5,935.1211 L1958.6357,935.1211 A0,0 0 0 0 1958.6357,935.1211 L1958.6357,904.5 L1948.6357,894.5 L1765.5,894.5 A0,0 0 0 0 1765.5,894.5 " fill="#FEFFDD" style="stroke:#181818;stroke-width:0.5;"/><path d="M1948.6357,894.5 L1948.6357,904.5 L1958.6357,904.5 L1948.6357,894.5 " fill="#FEFFDD" style="stroke:#181818;stroke-width:0.5;"/><text fill="#000000" font-family="sans-serif" font-size="13" lengthAdjust="spacing" textLength="141.8638" x="1771.5" y="912.0684">apps/streamlit_app.py</text><text fill="#000000" font-family="sans-serif" font-size="13" lengthAdjust="spacing" textLength="172.1357" x="1771.5" y="927.3789">User upload &amp; visualization</text></g><!--entity sionna--><g id="elem_sionna"><rect fill="#F1F1F1" height="46.4883" rx="2.5" ry="2.5" style="stroke:#181818;stroke-width:0.5;" width="135.8604" x="961" y="77"/><rect fill="#F1F1F1" height="10" style="stroke:#181818;stroke-width:0.5;" width="15" x="1076.8604" y="82"/><rect fill="#F1F1F1" height="2" style="stroke:#181818;stroke-width:0.5;" width="4" x="1074.8604" y="84"/><rect fill="#F1F1F1" height="2" style="stroke:#181818;stroke-width:0.5;" width="4" x="1074.8604" y="88"/><text fill="#000000" font-family="sans-serif" font-size="14" lengthAdjust="spacing" textLength="95.8604" x="976" y="110.5352">Sionna Scenes</text></g><g id="elem_GMN40"><path d="M1115.5,79.5 L1115.5,96 L1097.25,100 L1115.5,104 L1115.5,120.1211 A0,0 0 0 0 1115.5,120.1211 L1326.6694,120.1211 A0,0 0 0 0 1326.6694,120.1211 L1326.6694,89.5 L1316.6694,79.5 L1115.5,79.5 A0,0 0 0 0 1115.5,79.5 " fill="#FEFFDD" style="stroke:#181818;stroke-width:0.5;"/><path d="M1316.6694,79.5 L1316.6694,89.5 L1326.6694,89.5 L1316.6694,79.5 " fill="#FEFFDD" style="stroke:#181818;stroke-width:0.5;"/><text fill="#000000" font-family="sans-serif" font-size="13" lengthAdjust="spacing" textLength="190.1694" x="1121.5" y="97.0684">Ray-tracing channel modeling</text><text fill="#000000" font-family="sans-serif" font-size="13" lengthAdjust="spacing" textLength="93.4629" x="1121.5" y="112.3789">GIS integration</text></g><!--entity bandit--><g id="elem_bandit"><rect fill="#F1F1F1" height="46.4883" rx="2.5" ry="2.5" style="stroke:#181818;stroke-width:0.5;" width="137.583" x="30" y="77"/><rect fill="#F1F1F1" height="10" style="stroke:#181818;stroke-width:0.5;" width="15" x="147.583" y="82"/><rect fill="#F1F1F1" height="2" style="stroke:#181818;stroke-width:0.5;" width="4" x="145.583" y="84"/><rect fill="#F1F1F1" height="2" style="stroke:#181818;stroke-width:0.5;" width="4" x="145.583" y="88"/><text fill="#000000" font-family="sans-serif" font-size="14" lengthAdjust="spacing" textLength="97.583" x="45" y="110.5352">Bandit Policies</text></g><!--entity rl--><g id="elem_rl"><rect fill="#F1F1F1" height="46.4883" rx="2.5" ry="2.5" style="stroke:#181818;stroke-width:0.5;" width="141.1582" x="484.5" y="77"/><rect fill="#F1F1F1" height="10" style="stroke:#181818;stroke-width:0.5;" width="15" x="605.6582" y="82"/><rect fill="#F1F1F1" height="2" style="stroke:#181818;stroke-width:0.5;" width="4" x="603.6582" y="84"/><rect fill="#F1F1F1" height="2" style="stroke:#181818;stroke-width:0.5;" width="4" x="603.6582" y="88"/><text fill="#000000" font-family="sans-serif" font-size="14" lengthAdjust="spacing" textLength="101.1582" x="499.5" y="110.5352">Actor-Critic RL</text></g><!--entity baselines--><g id="elem_baselines"><rect fill="#F1F1F1" height="46.4883" rx="2.5" ry="2.5" style="stroke:#181818;stroke-width:0.5;" width="102.4395" x="835" y="77"/><rect fill="#F1F1F1" height="10" style="stroke:#181818;stroke-width:0.5;" width="15" x="917.4395" y="82"/><rect fill="#F1F1F1" height="2" style="stroke:#181818;stroke-width:0.5;" width="4" x="915.4395" y="84"/><rect fill="#F1F1F1" height="2" style="stroke:#181818;stroke-width:0.5;" width="4" x="915.4395" y="88"/><text fill="#000000" font-family="sans-serif" font-size="14" lengthAdjust="spacing" textLength="62.4395" x="850" y="110.5352">Baselines</text></g><g id="elem_GMN47"><path d="M186,87.5 L186,96 L168.1641,100 L186,104 L186,112.8105 A0,0 0 0 0 186,112.8105 L466.416,112.8105 A0,0 0 0 0 466.416,112.8105 L466.416,97.5 L456.416,87.5 L186,87.5 A0,0 0 0 0 186,87.5 " fill="#FEFFDD" style="stroke:#181818;stroke-width:0.5;"/><path d="M456.416,87.5 L456.416,97.5 L466.416,97.5 L456.416,87.5 " fill="#FEFFDD" style="stroke:#181818;stroke-width:0.5;"/><text fill="#000000" font-family="sans-serif" font-size="13" lengthAdjust="spacing" textLength="259.416" x="192" y="105.0684">Contextual bandit for resource allocation</text></g><g id="elem_GMN50"><path d="M643.5,87.5 L643.5,96 L625.752,100 L643.5,104 L643.5,112.8105 A0,0 0 0 0 643.5,112.8105 L816.3042,112.8105 A0,0 0 0 0 816.3042,112.8105 L816.3042,97.5 L806.3042,87.5 L643.5,87.5 A0,0 0 0 0 643.5,87.5 " fill="#FEFFDD" style="stroke:#181818;stroke-width:0.5;"/><path d="M806.3042,87.5 L806.3042,97.5 L816.3042,97.5 L806.3042,87.5 " fill="#FEFFDD" style="stroke:#181818;stroke-width:0.5;"/><text fill="#000000" font-family="sans-serif" font-size="13" lengthAdjust="spacing" textLength="151.8042" x="649.5" y="105.0684">Policy gradient RL agent</text></g><!--entity env--><g id="elem_env"><rect fill="#F1F1F1" height="46.4883" rx="2.5" ry="2.5" style="stroke:#181818;stroke-width:0.5;" width="125.3809" x="501.5" y="214"/><rect fill="#F1F1F1" height="10" style="stroke:#181818;stroke-width:0.5;" width="15" x="606.8809" y="219"/><rect fill="#F1F1F1" height="2" style="stroke:#181818;stroke-width:0.5;" width="4" x="604.8809" y="221"/><rect fill="#F1F1F1" height="2" style="stroke:#181818;stroke-width:0.5;" width="4" x="604.8809" y="225"/><text fill="#000000" font-family="sans-serif" font-size="14" lengthAdjust="spacing" textLength="85.3809" x="516.5" y="247.5352">Environment</text></g><!--entity eval--><g id="elem_eval"><rect fill="#F1F1F1" height="46.4883" rx="2.5" ry="2.5" style="stroke:#181818;stroke-width:0.5;" width="109.6035" x="535" y="351"/><rect fill="#F1F1F1" height="10" style="stroke:#181818;stroke-width:0.5;" width="15" x="624.6035" y="356"/><rect fill="#F1F1F1" height="2" style="stroke:#181818;stroke-width:0.5;" width="4" x="622.6035" y="358"/><rect fill="#F1F1F1" height="2" style="stroke:#181818;stroke-width:0.5;" width="4" x="622.6035" y="362"/><text fill="#000000" font-family="sans-serif" font-size="14" lengthAdjust="spacing" textLength="69.6035" x="550" y="384.5352">Evaluation</text></g><g id="elem_GMN56"><path d="M645,216.5 L645,233 L626.5742,237 L645,241 L645,257.1211 A0,0 0 0 0 645,257.1211 L815.4429,257.1211 A0,0 0 0 0 815.4429,257.1211 L815.4429,226.5 L805.4429,216.5 L645,216.5 A0,0 0 0 0 645,216.5 " fill="#FEFFDD" style="stroke:#181818;stroke-width:0.5;"/><path d="M805.4429,216.5 L805.4429,226.5 L815.4429,226.5 L805.4429,216.5 " fill="#FEFFDD" style="stroke:#181818;stroke-width:0.5;"/><text fill="#000000" font-family="sans-serif" font-size="13" lengthAdjust="spacing" textLength="98.5981" x="651" y="234.0684">Simulation loop</text><text fill="#000000" font-family="sans-serif" font-size="13" lengthAdjust="spacing" textLength="149.4429" x="651" y="249.3789">Constraint enforcement</text></g><g id="elem_GMN59"><path d="M663.5,353.5 L663.5,370 L645.002,374 L663.5,378 L663.5,394.1211 A0,0 0 0 0 663.5,394.1211 L814.0239,394.1211 A0,0 0 0 0 814.0239,394.1211 L814.0239,363.5 L804.0239,353.5 L663.5,353.5 A0,0 0 0 0 663.5,353.5 " fill="#FEFFDD" style="stroke:#181818;stroke-width:0.5;"/><path d="M804.0239,353.5 L804.0239,363.5 L814.0239,363.5 L804.0239,353.5 " fill="#FEFFDD" style="stroke:#181818;stroke-width:0.5;"/><text fill="#000000" font-family="sans-serif" font-size="13" lengthAdjust="spacing" textLength="129.5239" x="669.5" y="371.0684">Metrics computation</text><text fill="#000000" font-family="sans-serif" font-size="13" lengthAdjust="spacing" textLength="119.8247" x="669.5" y="386.3789">Submission bundle</text></g><!--entity metrics--><g id="elem_metrics"><rect fill="#F1F1F1" height="46.4883" rx="2.5" ry="2.5" style="stroke:#181818;stroke-width:0.5;" width="89.1777" x="949.5" y="351"/><rect fill="#F1F1F1" height="10" style="stroke:#181818;stroke-width:0.5;" width="15" x="1018.6777" y="356"/><rect fill="#F1F1F1" height="2" style="stroke:#181818;stroke-width:0.5;" width="4" x="1016.6777" y="358"/><rect fill="#F1F1F1" height="2" style="stroke:#181818;stroke-width:0.5;" width="4" x="1016.6777" y="362"/><text fill="#000000" font-family="sans-serif" font-size="14" lengthAdjust="spacing" textLength="49.1777" x="964.5" y="384.5352">Metrics</text></g><!--entity plot_utils--><g id="elem_plot_utils"><rect fill="#F1F1F1" height="46.4883" rx="2.5" ry="2.5" style="stroke:#181818;stroke-width:0.5;" width="92.3223" x="839" y="351"/><rect fill="#F1F1F1" height="10" style="stroke:#181818;stroke-width:0.5;" width="15" x="911.3223" y="356"/><rect fill="#F1F1F1" height="2" style="stroke:#181818;stroke-width:0.5;" width="4" x="909.3223" y="358"/><rect fill="#F1F1F1" height="2" style="stroke:#181818;stroke-width:0.5;" width="4" x="909.3223" y="362"/><text fill="#000000" font-family="sans-serif" font-size="14" lengthAdjust="spacing" textLength="52.3223" x="854" y="384.5352">Plotting</text></g><polygon fill="#181818" points="1565.9147,213.6744,1573.4612,207.3458,1568.1108,209.1825,1566.2741,203.8321,1565.9147,213.6744" style="stroke:#181818;stroke-width:1.0;"/><path d="M1610.1014,123.2925 C1597.8727,148.3058 1580.7854,183.2572 1568.55,208.2841 " fill="none" style="stroke:#181818;stroke-width:1.0;"/><text fill="#000000" font-family="sans-serif" font-size="13" lengthAdjust="spacing" textLength="96.3384" x="1601" y="155.5684">raw IQ samples</text><polygon fill="#181818" points="1530.7959,350.6744,1536.5969,342.7152,1531.846,345.7859,1528.7753,341.035,1530.7959,350.6744" style="stroke:#181818;stroke-width:1.0;"/><path d="M1550.2112,260.2925 C1544.838,285.3058 1537.4322,319.7813 1532.056,344.8082 " fill="none" style="stroke:#181818;stroke-width:1.0;"/><text fill="#000000" font-family="sans-serif" font-size="13" lengthAdjust="spacing" textLength="102.7686" x="1547" y="292.5684">preprocessed IQ</text><polygon fill="#181818" points="1189.7377,454.3938,1199.5049,455.6595,1194.5299,452.9671,1197.2222,447.9921,1189.7377,454.3938" style="stroke:#181818;stroke-width:1.0;"/><path d="M1449.9635,390.8908 C1383.1778,405.3133 1283.5938,427.9493 1198,452 C1195.2891,452.7617 1198.2751,451.8521 1195.4883,452.6818 " fill="none" style="stroke:#181818;stroke-width:1.0;"/><text fill="#000000" font-family="sans-serif" font-size="13" lengthAdjust="spacing" textLength="94.231" x="1344" y="429.5684">feature vectors</text><polygon fill="#181818" points="1413.9576,552.9383,1423.7967,552.4983,1418.4314,550.7055,1420.2242,545.3403,1413.9576,552.9383" style="stroke:#181818;stroke-width:1.0;"/><path d="M1523.7411,397.1957 C1520.0501,423.6743 1510.5935,468.1056 1487,498 C1468.0418,522.0212 1444.7339,537.5782 1419.3262,550.259 " fill="none" style="stroke:#181818;stroke-width:1.0;"/><text fill="#000000" font-family="sans-serif" font-size="13" lengthAdjust="spacing" textLength="94.231" x="1512" y="480.0684">feature vectors</text><polygon fill="#181818" points="1661.8577,451.8566,1655.9938,443.9436,1657.5058,449.3947,1652.0547,450.9067,1661.8577,451.8566" style="stroke:#181818;stroke-width:1.0;"/><path d="M1565.2734,397.2175 C1594.0945,413.522 1627.8451,432.6152 1656.6354,448.9023 " fill="none" style="stroke:#181818;stroke-width:1.0;"/><text fill="#000000" font-family="sans-serif" font-size="13" lengthAdjust="spacing" textLength="94.231" x="1631" y="429.5684">feature vectors</text><polygon fill="#181818" points="1308.2717,552.9732,1301.6094,545.7196,1303.6854,550.9818,1298.4232,553.0577,1308.2717,552.9732" style="stroke:#181818;stroke-width:1.0;"/><path d="M1181.8839,498.0943 C1219.5508,514.4497 1265.1382,534.2442 1302.7681,550.5835 " fill="none" style="stroke:#181818;stroke-width:1.0;"/><text fill="#000000" font-family="sans-serif" font-size="13" lengthAdjust="spacing" textLength="103.4922" x="1268" y="530.5684">encoder weights</text><polygon fill="#181818" points="1627.3176,659.4952,1619.8905,653.0269,1622.5384,658.0258,1617.5395,660.6736,1627.3176,659.4952" style="stroke:#181818;stroke-width:1.0;"/><path d="M1427.6821,598.1166 C1487.3412,616.4589 1566.8086,640.8915 1621.5825,657.7319 " fill="none" style="stroke:#181818;stroke-width:1.0;"/><text fill="#000000" font-family="sans-serif" font-size="13" lengthAdjust="spacing" textLength="35.0962" x="1550" y="631.5684">logits</text><polygon fill="#181818" points="1683.2267,653.7331,1688.1024,645.1757,1683.7242,648.7579,1680.1421,644.3797,1683.2267,653.7331" style="stroke:#181818;stroke-width:1.0;"/><path d="M1698.7832,498.1677 C1694.9388,536.6118 1687.675,609.2497 1683.8237,647.7628 " fill="none" style="stroke:#181818;stroke-width:1.0;"/><text fill="#000000" font-family="sans-serif" font-size="13" lengthAdjust="spacing" textLength="97.6714" x="1694" y="581.0684">anomaly scores</text><polygon fill="#181818" points="1681,754.9653,1685,745.9653,1681,749.9653,1677,745.9653,1681,754.9653" style="stroke:#181818;stroke-width:1.0;"/><path d="M1681,700.4646 C1681,716.7807 1681,732.7497 1681,748.9653 " fill="none" style="stroke:#181818;stroke-width:1.0;"/><text fill="#000000" font-family="sans-serif" font-size="13" lengthAdjust="spacing" textLength="145.228" x="1683" y="732.5684">calibrated probabilities</text><polygon fill="#181818" points="1681,891.6744,1685,882.6744,1681,886.6744,1677,882.6744,1681,891.6744" style="stroke:#181818;stroke-width:1.0;"/><path d="M1681,801.2925 C1681,826.3058 1681,860.6475 1681,885.6744 " fill="none" style="stroke:#181818;stroke-width:1.0;"/><text fill="#000000" font-family="sans-serif" font-size="13" lengthAdjust="spacing" textLength="102.2988" x="1683" y="833.5684">final predictions</text><polygon fill="#181818" points="580.1474,213.7753,588.9386,209.3352,583.3103,209.9028,582.7427,204.2745,580.1474,213.7753" style="stroke:#181818;stroke-width:1.0;"/><path d="M999.9887,123.0394 C980.4848,136.4795 953.5727,152.4754 927,160 C895.8782,168.8128 665.8901,155.638 636,168 C613.1207,177.4625 596.9948,193.1483 583.9429,209.1283 " fill="none" style="stroke:#181818;stroke-width:1.0;"/><text fill="#000000" font-family="sans-serif" font-size="13" lengthAdjust="spacing" textLength="112.6328" x="971" y="155.5684">channel state info</text><polygon fill="#181818" points="501.4219,221.1151,493.627,215.0951,496.5645,219.9295,491.7301,222.867,501.4219,221.1151" style="stroke:#181818;stroke-width:1.0;"/><path d="M154.1431,123.01 C161.7777,125.8221 169.5533,128.5648 177,131 C289.9824,167.9474 418.5872,200.8971 495.593,219.6924 " fill="none" style="stroke:#181818;stroke-width:1.0;"/><text fill="#000000" font-family="sans-serif" font-size="13" lengthAdjust="spacing" textLength="126.3945" x="263" y="155.5684">resource allocations</text><polygon fill="#181818" points="562.5116,213.6744,565.9041,204.4282,562.179,208.6855,557.9218,204.9604,562.5116,213.6744" style="stroke:#181818;stroke-width:1.0;"/><path d="M556.4862,123.2925 C558.1537,148.3058 560.4441,182.6608 562.1125,207.6877 " fill="none" style="stroke:#181818;stroke-width:1.0;"/><text fill="#000000" font-family="sans-serif" font-size="13" lengthAdjust="spacing" textLength="126.3945" x="561" y="155.5684">resource allocations</text><polygon fill="#181818" points="581.0268,213.8493,589.9103,209.5968,584.2712,210.0448,583.8232,204.4057,581.0268,213.8493" style="stroke:#181818;stroke-width:1.0;"/><path d="M844.5692,123.0201 C838.1251,125.9623 831.4607,128.7388 825,131 C768.3062,150.8422 752.1183,149.3735 693,160 C667.8219,164.5258 659.0556,156.9158 636,168 C613.9959,178.5787 598.143,193.7784 584.9201,209.2839 " fill="none" style="stroke:#181818;stroke-width:1.0;"/><text fill="#000000" font-family="sans-serif" font-size="13" lengthAdjust="spacing" textLength="126.3945" x="795" y="155.5684">resource allocations</text><polygon fill="#181818" points="982.0278,350.9557,980.6961,341.1973,979.3979,346.7032,973.8921,345.4051,982.0278,350.9557" style="stroke:#181818;stroke-width:1.0;"/><path d="M610.4946,260.0453 C618.8285,263.2208 627.5524,266.0639 636,268 C768.6683,298.4063 824.4072,233.1409 940,305 C958.0521,316.2223 969.4444,330.6079 978.872,345.8527 " fill="none" style="stroke:#181818;stroke-width:1.0;"/><text fill="#000000" font-family="sans-serif" font-size="13" lengthAdjust="spacing" textLength="111.6299" x="922" y="292.5684">performance data</text><polygon fill="#181818" points="585.5407,350.7311,587.7053,341.123,584.5638,345.8274,579.8594,342.686,585.5407,350.7311" style="stroke:#181818;stroke-width:1.0;"/><path d="M568.0714,260.1439 C570.122,271.218 572.6632,284.8229 575,297 C578.4724,315.0949 581.3519,329.7041 584.3684,344.8467 " fill="none" style="stroke:#181818;stroke-width:1.0;"/><text fill="#000000" font-family="sans-serif" font-size="13" lengthAdjust="spacing" textLength="95.8369" x="577" y="292.5684">episode results</text><polygon fill="#181818" points="1676.3392,992.9852,1675.6109,983.1633,1673.9762,988.5788,1668.5607,986.9441,1676.3392,992.9852" style="stroke:#181818;stroke-width:1.0;"/><path d="M1671.7095,938.2551 C1668.2808,949.3565 1665.9055,962.9523 1669,975 C1670.5774,981.1411 1670.4817,982.0625 1673.5036,987.6975 " fill="none" style="stroke:#181818;stroke-width:1.0;"/><text fill="#000000" font-family="sans-serif" font-size="13" lengthAdjust="spacing" textLength="45.3604" x="1671" y="970.5684">IQ data</text><polygon fill="#181818" points="1706.6422,938.0217,1709.4986,947.4472,1709.9107,941.8054,1715.5526,942.2176,1706.6422,938.0217" style="stroke:#181818;stroke-width:1.0;"/><path d="M1710.304,992.84 C1717.4888,981.8795 1722.8467,968.3772 1718,956 C1715.4475,949.4817 1715.2014,947.9299 1710.5645,942.5622 " fill="none" style="stroke:#181818;stroke-width:1.0;"/><text fill="#000000" font-family="sans-serif" font-size="13" lengthAdjust="spacing" textLength="108.5068" x="1721" y="970.5684">interactive charts</text><polygon fill="#181818" points="606.265,350.7249,614.9375,346.0572,609.3259,346.7713,608.6118,341.1597,606.265,350.7249" style="stroke:#181818;stroke-width:1.0;"/><path d="M869.6655,350.8735 C859.052,336.2426 843.8439,317.7516 827,305 C774.3201,265.1189 743.9346,288.8356 678.5,298 C667.2848,299.5707 663.6507,299.0746 654,305 C634.9244,316.7121 621.6096,330.9054 609.9381,345.9806 " fill="none" style="stroke:#181818;stroke-width:1.0;"/><text fill="#000000" font-family="sans-serif" font-size="13" lengthAdjust="spacing" textLength="129.8984" x="680.5" y="292.5684">metric visualizations</text><polygon fill="#181818" points="1995.7877,992.9191,1987.9107,987.0069,1990.9144,991.8004,1986.1209,994.8041,1995.7877,992.9191" style="stroke:#181818;stroke-width:1.0;"/><path d="M1747.2591,935.4163 C1750.5483,936.3061 1753.809,937.1721 1757,938 C1759.9739,938.7716 1892.0167,969.0982 1989.9398,991.5767 " fill="none" style="stroke:#181818;stroke-width:1.0;"/><text fill="#000000" font-family="sans-serif" font-size="13" lengthAdjust="spacing" textLength="57.5669" x="1918" y="970.5684">deployed</text><polygon fill="#181818" points="2027.9593,214.4762,2025.0478,205.0675,2024.6687,210.7117,2019.0245,210.3325,2027.9593,214.4762" style="stroke:#181818;stroke-width:1.0;"/><path d="M1673.3263,123.0236 C1681.8037,126.0389 1690.5679,128.8363 1699,131 C1817.1736,161.3241 1860.576,116.1245 1971,168 C1993.7403,178.6831 2010.3631,194.3459 2024.0105,209.9588 " fill="none" style="stroke:#181818;stroke-width:1.0;"/><text fill="#000000" font-family="sans-serif" font-size="13" lengthAdjust="spacing" textLength="118.2314" x="1953" y="155.5684">downloads dataset</text><!--SRC=[XLRDRXit4BxlKqnyQ2-r1VJeGm5NLbm3LcfRSP4YBWHgEPA9SacMv4fHWW1zY3vXdoGpNEwVBJaw2CkPZn_ddtpZlDXK0hJOspf2g30A8ueVuMPsTJ7z4oOGQeS-e4G9___x7mH4AAs9GXdqowt2tRAilKSJprnTQH16WhHbcD1YSZ-xk9pFpYf9sygeh86huet4DUs5-zdq_SMxgviPb5g4K1HEb7-B3S89oWqklJ3BZV3x4_XI0FtINmUH8egbKmurKRKG_dsy94t0U6E5HFyNY00wVVQ8wxjRZyxR4aEm3SGrWW4BefjVpt-7HOb6U6L3maaILwgo7T3OYE3LvYc2NUUJu1mkxSxm8i32aUE-hZx0ud81iZ7kqSmfo1iasyGADSf9RV8N154vZU782TbGEkATzPNGwZE6ds2dZBGx-WYKF2cyP35Sty6QGJ5nVJqKHOnDMaOHV8iYrXvddw8NPSmHMZV2tgwFCrDQydQnk4c047Ilct96rLgX_ms5JFgo4_Mm2sF9X_sSU7G2YKOm828NLrwqLfHvYKCp0bOhZM_hG8ua56RHaHYshb0GtwiA9skF_qmeSb65gEY4bxwEzvEdj7M1UdsQUcEhg3k04uE1sa2aEjSel55cSuIZZmPJzImhHTMsxzHb8Zl2aOD510zcO4YNrADftwhFeuGleaTHQHNXmhaccQraAPphWRVQnaXEmKDKkka8bqN7OZKa8alfFqn6mZEtVpGFWG9HEsuP-078ZvfBMxpgHVaaZ44TngxG3YDIrs9ZO4YIO-Ory7Eu5_jJBdTsBXD3nML9WaTpTRq0PI9k_EicfHrZWtwbXgJ0tbgjIfLDMYNPe0suoqwdNb7vmNtJJbuFEKAQS-tkl3hYKyDEFarfIkEdIA5iPJGEg4w3hNs98BIshzQNvp9FXk-1F9UAYflC0tBL79yfGLMZ0CpCLdbhAjgJctCxK6w5hfCDZOwMHuoXRTmfggfrRZ1htQCX7wcQw2wAX23tIgnQumvm43sHp35wLT8miPMhctPzD8jwLQd0zG2hsiWyF0uvM7FjZrpCXCc5glb-sJDTjomJGQR_Mj1LorSMhBNTSSugXr4b3wVMOv6lbDFJNmQptuiTJ_VsgcWL31eCDzVTSZGLhk-AJiMuPeXb4MoHIp2C8QCPzIgodqJFONpC2oviRWxO8MSc50DbmhP3dg3QRXGXsWEUgrjvA2tFwrx5mFOQ85oda1GLkn8hHTE7sh7eC2acpuOLFLEeO2YCKgM16fubw_Q9MX5-XdkQ-yANJq1N9X5oH-N1qfZ1bTiE5Rvda8R9sXQvANlCWTOCXTVVGtG3uNj0LZ4aroYN2FhqH324vBT91ycjWau5IXNJrJec__yO3UTno5ALjdV4EPTe8kr4XuBCSvNV6MgB72HFf_HTChIbiNfyEIIBEEgUCoNHeP5KNPpPKjjQmab_jr5hLRLHSGzJLfqqZnBwEk14i_cS6RNTeomATeG3JOp35rrY2J8C-vIMlBLx0kP7N_4D]--></g></svg>