<svg xmlns="http://www.w3.org/2000/svg" xmlns:xlink="http://www.w3.org/1999/xlink" contentStyleType="text/css" height="689px" preserveAspectRatio="none" style="width:2104px;height:689px;background:#FFFFFF;" version="1.1" viewBox="0 0 2104 689" width="2104px" zoomAndPan="magnify"><title>Streamlit Dashboard Deployment Architecture</title><defs/><g><text fill="#000000" font-family="sans-serif" font-size="14" font-weight="bold" lengthAdjust="spacing" textLength="332.7188" x="876.8906" y="23.5352">Streamlit Dashboard Deployment Architecture</text><!--cluster dev--><g id="cluster_dev"><polygon fill="none" points="255.5,51.4883,265.5,41.4883,639.5,41.4883,639.5,455.9883,629.5,465.9883,255.5,465.9883,255.5,51.4883" style="stroke:#181818;stroke-width:1.0;"/><line style="stroke:#181818;stroke-width:1.0;" x1="629.5" x2="639.5" y1="51.4883" y2="41.4883"/><line style="stroke:#181818;stroke-width:1.0;" x1="255.5" x2="629.5" y1="51.4883" y2="51.4883"/><line style="stroke:#181818;stroke-width:1.0;" x1="629.5" x2="629.5" y1="51.4883" y2="465.9883"/><text fill="#000000" font-family="sans-serif" font-size="14" font-weight="bold" lengthAdjust="spacing" textLength="137.2998" x="374.8501" y="68.0234">Developer Machine</text></g><!--cluster local_dev--><g id="cluster_local_dev"><rect fill="none" height="384.5" rx="2.5" ry="2.5" style="stroke:#181818;stroke-width:1.0;" width="344" x="263.5" y="73.4883"/><rect fill="none" height="10" style="stroke:#181818;stroke-width:1.0;" width="15" x="587.5" y="78.4883"/><rect fill="none" height="2" style="stroke:#181818;stroke-width:1.0;" width="4" x="585.5" y="80.4883"/><rect fill="none" height="2" style="stroke:#181818;stroke-width:1.0;" width="4" x="585.5" y="84.4883"/><text fill="#000000" font-family="sans-serif" font-size="14" font-weight="bold" lengthAdjust="spacing" textLength="137.1631" x="366.9185" y="100.0234">Local Development</text></g><!--cluster cloud--><g id="cluster_cloud"><polygon fill="none" points="647.5,201.4883,657.5,191.4883,1405.5,191.4883,1405.5,571.9883,1395.5,581.9883,647.5,581.9883,647.5,201.4883" style="stroke:#181818;stroke-width:1.0;"/><line style="stroke:#181818;stroke-width:1.0;" x1="1395.5" x2="1405.5" y1="201.4883" y2="191.4883"/><line style="stroke:#181818;stroke-width:1.0;" x1="647.5" x2="1395.5" y1="201.4883" y2="201.4883"/><line style="stroke:#181818;stroke-width:1.0;" x1="1395.5" x2="1395.5" y1="201.4883" y2="581.9883"/><text fill="#000000" font-family="sans-serif" font-size="14" font-weight="bold" lengthAdjust="spacing" textLength="198.8369" x="923.0815" y="218.0234">Streamlit Community Cloud</text></g><!--cluster deploy_env--><g id="cluster_deploy_env"><rect fill="none" height="345.5" rx="2.5" ry="2.5" style="stroke:#181818;stroke-width:1.0;" width="348" x="655.5" y="223.4883"/><rect fill="none" height="10" style="stroke:#181818;stroke-width:1.0;" width="15" x="983.5" y="228.4883"/><rect fill="none" height="2" style="stroke:#181818;stroke-width:1.0;" width="4" x="981.5" y="230.4883"/><rect fill="none" height="2" style="stroke:#181818;stroke-width:1.0;" width="4" x="981.5" y="234.4883"/><text fill="#000000" font-family="sans-serif" font-size="14" font-weight="bold" lengthAdjust="spacing" textLength="183.1074" x="737.9463" y="250.0234">Deployment Environment</text></g><!--cluster config--><g id="cluster_config"><rect fill="none" height="91" rx="2.5" ry="2.5" style="stroke:#181818;stroke-width:1.0;" width="386" x="1011.5" y="482.9883"/><rect fill="none" height="10" style="stroke:#181818;stroke-width:1.0;" width="15" x="1377.5" y="487.9883"/><rect fill="none" height="2" style="stroke:#181818;stroke-width:1.0;" width="4" x="1375.5" y="489.9883"/><rect fill="none" height="2" style="stroke:#181818;stroke-width:1.0;" width="4" x="1375.5" y="493.9883"/><text fill="#000000" font-family="sans-serif" font-size="14" font-weight="bold" lengthAdjust="spacing" textLength="99.8525" x="1154.5737" y="509.5234">Configuration</text></g><!--cluster browser--><g id="cluster_browser"><polygon fill="none" points="1413.5,381.9883,1423.5,371.9883,1697.5,371.9883,1697.5,558.9883,1687.5,568.9883,1413.5,568.9883,1413.5,381.9883" style="stroke:#181818;stroke-width:1.0;"/><line style="stroke:#181818;stroke-width:1.0;" x1="1687.5" x2="1697.5" y1="381.9883" y2="371.9883"/><line style="stroke:#181818;stroke-width:1.0;" x1="1413.5" x2="1687.5" y1="381.9883" y2="381.9883"/><line style="stroke:#181818;stroke-width:1.0;" x1="1687.5" x2="1687.5" y1="381.9883" y2="568.9883"/><text fill="#000000" font-family="sans-serif" font-size="14" font-weight="bold" lengthAdjust="spacing" textLength="96.0928" x="1503.4536" y="398.5234">User Browser</text></g><!--cluster github--><g id="cluster_github"><path d="M1705.5,371.9883 C1705.5,361.9883 1896.5,361.9883 1896.5,361.9883 C1896.5,361.9883 2087.5,361.9883 2087.5,371.9883 L2087.5,662.4883 C2087.5,672.4883 1896.5,672.4883 1896.5,672.4883 C1896.5,672.4883 1705.5,672.4883 1705.5,662.4883 L1705.5,371.9883 " fill="none" style="stroke:#181818;stroke-width:1.0;"/><path d="M1705.5,371.9883 C1705.5,381.9883 1896.5,381.9883 1896.5,381.9883 C1896.5,381.9883 2087.5,381.9883 2087.5,371.9883 " fill="none" style="stroke:#181818;stroke-width:1.0;"/><text fill="#000000" font-family="sans-serif" font-size="14" font-weight="bold" lengthAdjust="spacing" textLength="132.3643" x="1830.3179" y="397.5234">GitHub Repository</text></g><g id="elem_GMN44"><path d="M6,229.9883 L6,316.541 L247.3906,316.541 L247.3906,239.9883 L237.3906,229.9883 L6,229.9883 " fill="#FEFFDD" style="stroke:#181818;stroke-width:0.5;"/><path d="M237.3906,229.9883 L237.3906,239.9883 L247.3906,239.9883 L237.3906,229.9883 " fill="#FEFFDD" style="stroke:#181818;stroke-width:1.0;"/><text fill="#000000" font-family="sans-serif" font-size="13" lengthAdjust="spacing" textLength="131.8789" x="12" y="247.5566">Deployment Process:</text><text fill="#000000" font-family="sans-serif" font-size="13" lengthAdjust="spacing" textLength="149.1001" x="12" y="262.8672">1. Connect GitHub repo</text><text fill="#000000" font-family="sans-serif" font-size="13" lengthAdjust="spacing" textLength="140.1689" x="12" y="278.1777">2. Select branch: main</text><text fill="#000000" font-family="sans-serif" font-size="13" lengthAdjust="spacing" textLength="220.3906" x="12" y="293.4883">3. Main file: apps/streamlit_app.py</text><text fill="#000000" font-family="sans-serif" font-size="13" lengthAdjust="spacing" textLength="151.2202" x="12" y="308.7988">4. Auto-deploy on push</text></g><g id="elem_GMN47"><path d="M430,494.4883 L430,581.041 A0,0 0 0 0 430,581.041 L638.6685,581.041 A0,0 0 0 0 638.6685,581.041 L638.6685,504.4883 L628.6685,494.4883 L610.9156,494.4883 L1083.5451,514.9537 L602.9156,494.4883 L430,494.4883 A0,0 0 0 0 430,494.4883 " fill="#FEFFDD" style="stroke:#181818;stroke-width:0.5;"/><path d="M628.6685,494.4883 L628.6685,504.4883 L638.6685,504.4883 L628.6685,494.4883 " fill="#FEFFDD" style="stroke:#181818;stroke-width:0.5;"/><text fill="#000000" font-family="sans-serif" font-size="13" lengthAdjust="spacing" textLength="53.8154" x="436" y="512.0566">Security:</text><text fill="#000000" font-family="sans-serif" font-size="13" lengthAdjust="spacing" textLength="135.7319" x="436" y="527.3672">- No API keys in code</text><text fill="#000000" font-family="sans-serif" font-size="13" lengthAdjust="spacing" textLength="181.689" x="436" y="542.6777">- No dataset files committed</text><text fill="#000000" font-family="sans-serif" font-size="13" lengthAdjust="spacing" textLength="187.6685" x="436" y="557.9883">- Secrets via Streamlit Secrets</text><text fill="#000000" font-family="sans-serif" font-size="13" lengthAdjust="spacing" textLength="137.5664" x="436" y="573.2988">- .env files gitignored</text></g><!--entity python--><g id="elem_python"><rect fill="#F1F1F1" height="46.4883" rx="2.5" ry="2.5" style="stroke:#181818;stroke-width:0.5;" width="132.8115" x="446" y="100.4883"/><rect fill="#F1F1F1" height="10" style="stroke:#181818;stroke-width:0.5;" width="15" x="558.8115" y="105.4883"/><rect fill="#F1F1F1" height="2" style="stroke:#181818;stroke-width:0.5;" width="4" x="556.8115" y="107.4883"/><rect fill="#F1F1F1" height="2" style="stroke:#181818;stroke-width:0.5;" width="4" x="556.8115" y="111.4883"/><text fill="#000000" font-family="sans-serif" font-size="14" lengthAdjust="spacing" textLength="92.8115" x="461" y="134.0234">Python 3.10+</text></g><!--entity venv--><g id="elem_venv"><rect fill="#F1F1F1" height="46.4883" rx="2.5" ry="2.5" style="stroke:#181818;stroke-width:0.5;" width="174.4424" x="425.5" y="250.4883"/><rect fill="#F1F1F1" height="10" style="stroke:#181818;stroke-width:0.5;" width="15" x="579.9424" y="255.4883"/><rect fill="#F1F1F1" height="2" style="stroke:#181818;stroke-width:0.5;" width="4" x="577.9424" y="257.4883"/><rect fill="#F1F1F1" height="2" style="stroke:#181818;stroke-width:0.5;" width="4" x="577.9424" y="261.4883"/><text fill="#000000" font-family="sans-serif" font-size="14" lengthAdjust="spacing" textLength="134.4424" x="440.5" y="284.0234">Virtual Environment</text></g><!--entity git_repo--><g id="elem_git_repo"><rect fill="#F1F1F1" height="46.4883" rx="2.5" ry="2.5" style="stroke:#181818;stroke-width:0.5;" width="135.9561" x="271.5" y="250.4883"/><rect fill="#F1F1F1" height="10" style="stroke:#181818;stroke-width:0.5;" width="15" x="387.4561" y="255.4883"/><rect fill="#F1F1F1" height="2" style="stroke:#181818;stroke-width:0.5;" width="4" x="385.4561" y="257.4883"/><rect fill="#F1F1F1" height="2" style="stroke:#181818;stroke-width:0.5;" width="4" x="385.4561" y="261.4883"/><text fill="#000000" font-family="sans-serif" font-size="14" lengthAdjust="spacing" textLength="95.9561" x="286.5" y="284.0234">Git Repository</text></g><!--entity streamlit_cli--><g id="elem_streamlit_cli"><rect fill="#F1F1F1" height="46.4883" rx="2.5" ry="2.5" style="stroke:#181818;stroke-width:0.5;" width="126.0508" x="362.5" y="403.9883"/><rect fill="#F1F1F1" height="10" style="stroke:#181818;stroke-width:0.5;" width="15" x="468.5508" y="408.9883"/><rect fill="#F1F1F1" height="2" style="stroke:#181818;stroke-width:0.5;" width="4" x="466.5508" y="410.9883"/><rect fill="#F1F1F1" height="2" style="stroke:#181818;stroke-width:0.5;" width="4" x="466.5508" y="414.9883"/><text fill="#000000" font-family="sans-serif" font-size="14" lengthAdjust="spacing" textLength="86.0508" x="377.5" y="437.5234">Streamlit CLI</text></g><!--entity runtime--><g id="elem_runtime"><rect fill="#F1F1F1" height="46.4883" rx="2.5" ry="2.5" style="stroke:#181818;stroke-width:0.5;" width="161.249" x="818" y="250.4883"/><rect fill="#F1F1F1" height="10" style="stroke:#181818;stroke-width:0.5;" width="15" x="959.249" y="255.4883"/><rect fill="#F1F1F1" height="2" style="stroke:#181818;stroke-width:0.5;" width="4" x="957.249" y="257.4883"/><rect fill="#F1F1F1" height="2" style="stroke:#181818;stroke-width:0.5;" width="4" x="957.249" y="261.4883"/><text fill="#000000" font-family="sans-serif" font-size="14" lengthAdjust="spacing" textLength="121.249" x="833" y="284.0234">Streamlit Runtime</text></g><!--entity app--><g id="elem_app"><rect fill="#F1F1F1" height="46.4883" rx="2.5" ry="2.5" style="stroke:#181818;stroke-width:0.5;" width="192.7764" x="802" y="403.9883"/><rect fill="#F1F1F1" height="10" style="stroke:#181818;stroke-width:0.5;" width="15" x="974.7764" y="408.9883"/><rect fill="#F1F1F1" height="2" style="stroke:#181818;stroke-width:0.5;" width="4" x="972.7764" y="410.9883"/><rect fill="#F1F1F1" height="2" style="stroke:#181818;stroke-width:0.5;" width="4" x="972.7764" y="414.9883"/><text fill="#000000" font-family="sans-serif" font-size="14" lengthAdjust="spacing" textLength="152.7764" x="817" y="437.5234">apps/streamlit_app.py</text></g><!--entity deps--><g id="elem_deps"><rect fill="#F1F1F1" height="46.4883" rx="2.5" ry="2.5" style="stroke:#181818;stroke-width:0.5;" width="135.04" x="664" y="514.9883"/><rect fill="#F1F1F1" height="10" style="stroke:#181818;stroke-width:0.5;" width="15" x="779.04" y="519.9883"/><rect fill="#F1F1F1" height="2" style="stroke:#181818;stroke-width:0.5;" width="4" x="777.04" y="521.9883"/><rect fill="#F1F1F1" height="2" style="stroke:#181818;stroke-width:0.5;" width="4" x="777.04" y="525.9883"/><text fill="#000000" font-family="sans-serif" font-size="14" lengthAdjust="spacing" textLength="95.04" x="679" y="548.5234">Dependencies</text></g><!--entity upload_storage--><g id="elem_upload_storage"><rect fill="#F1F1F1" height="46.4883" rx="2.5" ry="2.5" style="stroke:#181818;stroke-width:0.5;" width="178.291" x="817.5" y="514.9883"/><rect fill="#F1F1F1" height="10" style="stroke:#181818;stroke-width:0.5;" width="15" x="975.791" y="519.9883"/><rect fill="#F1F1F1" height="2" style="stroke:#181818;stroke-width:0.5;" width="4" x="973.791" y="521.9883"/><rect fill="#F1F1F1" height="2" style="stroke:#181818;stroke-width:0.5;" width="4" x="973.791" y="525.9883"/><text fill="#000000" font-family="sans-serif" font-size="14" lengthAdjust="spacing" textLength="138.291" x="832.5" y="548.5234">User Upload Storage</text></g><!--entity env_vars--><g id="elem_env_vars"><rect fill="#F1F1F1" height="46.4883" rx="2.5" ry="2.5" style="stroke:#181818;stroke-width:0.5;" width="191.9971" x="1019.5" y="514.9883"/><rect fill="#F1F1F1" height="10" style="stroke:#181818;stroke-width:0.5;" width="15" x="1191.4971" y="519.9883"/><rect fill="#F1F1F1" height="2" style="stroke:#181818;stroke-width:0.5;" width="4" x="1189.4971" y="521.9883"/><rect fill="#F1F1F1" height="2" style="stroke:#181818;stroke-width:0.5;" width="4" x="1189.4971" y="525.9883"/><text fill="#000000" font-family="sans-serif" font-size="14" lengthAdjust="spacing" textLength="151.9971" x="1034.5" y="548.5234">Environment Variables</text></g><g id="elem_GMN19"><path d="M1230,509.9883 L1230,533.9883 L1211.7422,537.9883 L1230,541.9883 L1230,565.9199 A0,0 0 0 0 1230,565.9199 L1389.2202,565.9199 A0,0 0 0 0 1389.2202,565.9199 L1389.2202,519.9883 L1379.2202,509.9883 L1230,509.9883 A0,0 0 0 0 1230,509.9883 " fill="#FEFFDD" style="stroke:#181818;stroke-width:0.5;"/><path d="M1379.2202,509.9883 L1379.2202,519.9883 L1389.2202,519.9883 L1379.2202,509.9883 " fill="#FEFFDD" style="stroke:#181818;stroke-width:0.5;"/><text fill="#000000" font-family="sans-serif" font-size="13" lengthAdjust="spacing" textLength="138.2202" x="1236" y="527.5566">No secrets committed</text><text fill="#000000" font-family="sans-serif" font-size="13" lengthAdjust="spacing" textLength="126.604" x="1236" y="542.8672">All tokens in .env or</text><text fill="#000000" font-family="sans-serif" font-size="13" lengthAdjust="spacing" textLength="105.187" x="1236" y="558.1777">Streamlit Secrets</text></g><!--entity web_ui--><g id="elem_web_ui"><rect fill="#F1F1F1" height="46.4883" rx="2.5" ry="2.5" style="stroke:#181818;stroke-width:0.5;" width="132.3535" x="1505.5" y="403.9883"/><rect fill="#F1F1F1" height="10" style="stroke:#181818;stroke-width:0.5;" width="15" x="1617.8535" y="408.9883"/><rect fill="#F1F1F1" height="2" style="stroke:#181818;stroke-width:0.5;" width="4" x="1615.8535" y="410.9883"/><rect fill="#F1F1F1" height="2" style="stroke:#181818;stroke-width:0.5;" width="4" x="1615.8535" y="414.9883"/><text fill="#000000" font-family="sans-serif" font-size="14" lengthAdjust="spacing" textLength="92.3535" x="1520.5" y="437.5234">Web Interface</text></g><!--entity upload--><g id="elem_upload"><rect fill="#F1F1F1" height="46.4883" rx="2.5" ry="2.5" style="stroke:#181818;stroke-width:0.5;" width="115.5303" x="1421.5" y="514.9883"/><rect fill="#F1F1F1" height="10" style="stroke:#181818;stroke-width:0.5;" width="15" x="1517.0303" y="519.9883"/><rect fill="#F1F1F1" height="2" style="stroke:#181818;stroke-width:0.5;" width="4" x="1515.0303" y="521.9883"/><rect fill="#F1F1F1" height="2" style="stroke:#181818;stroke-width:0.5;" width="4" x="1515.0303" y="525.9883"/><text fill="#000000" font-family="sans-serif" font-size="14" lengthAdjust="spacing" textLength="75.5303" x="1436.5" y="548.5234">File Upload</text></g><!--entity viz--><g id="elem_viz"><rect fill="#F1F1F1" height="46.4883" rx="2.5" ry="2.5" style="stroke:#181818;stroke-width:0.5;" width="134.3154" x="1555.5" y="514.9883"/><rect fill="#F1F1F1" height="10" style="stroke:#181818;stroke-width:0.5;" width="15" x="1669.8154" y="519.9883"/><rect fill="#F1F1F1" height="2" style="stroke:#181818;stroke-width:0.5;" width="4" x="1667.8154" y="521.9883"/><rect fill="#F1F1F1" height="2" style="stroke:#181818;stroke-width:0.5;" width="4" x="1667.8154" y="525.9883"/><text fill="#000000" font-family="sans-serif" font-size="14" lengthAdjust="spacing" textLength="94.3154" x="1570.5" y="548.5234">Visualizations</text></g><!--entity repo--><g id="elem_repo"><rect fill="#F1F1F1" height="46.4883" rx="2.5" ry="2.5" style="stroke:#181818;stroke-width:0.5;" width="293.4082" x="1767" y="403.9883"/><rect fill="#F1F1F1" height="10" style="stroke:#181818;stroke-width:0.5;" width="15" x="2040.4082" y="408.9883"/><rect fill="#F1F1F1" height="2" style="stroke:#181818;stroke-width:0.5;" width="4" x="2038.4082" y="410.9883"/><rect fill="#F1F1F1" height="2" style="stroke:#181818;stroke-width:0.5;" width="4" x="2038.4082" y="414.9883"/><text fill="#000000" font-family="sans-serif" font-size="14" lengthAdjust="spacing" textLength="253.4082" x="1782" y="437.5234">gunnchOS3k/spectrumx-ai-ran-gary</text></g><!--entity main_branch--><g id="elem_main_branch"><rect fill="#F1F1F1" height="46.4883" rx="2.5" ry="2.5" style="stroke:#181818;stroke-width:0.5;" width="124.7861" x="1851" y="514.9883"/><rect fill="#F1F1F1" height="10" style="stroke:#181818;stroke-width:0.5;" width="15" x="1955.7861" y="519.9883"/><rect fill="#F1F1F1" height="2" style="stroke:#181818;stroke-width:0.5;" width="4" x="1953.7861" y="521.9883"/><rect fill="#F1F1F1" height="2" style="stroke:#181818;stroke-width:0.5;" width="4" x="1953.7861" y="525.9883"/><text fill="#000000" font-family="sans-serif" font-size="14" lengthAdjust="spacing" textLength="84.7861" x="1866" y="548.5234">main branch</text></g><!--entity app_file--><g id="elem_app_file"><rect fill="#F1F1F1" height="46.4883" rx="2.5" ry="2.5" style="stroke:#181818;stroke-width:0.5;" width="192.7764" x="1714" y="618.4883"/><rect fill="#F1F1F1" height="10" style="stroke:#181818;stroke-width:0.5;" width="15" x="1886.7764" y="623.4883"/><rect fill="#F1F1F1" height="2" style="stroke:#181818;stroke-width:0.5;" width="4" x="1884.7764" y="625.4883"/><rect fill="#F1F1F1" height="2" style="stroke:#181818;stroke-width:0.5;" width="4" x="1884.7764" y="629.4883"/><text fill="#000000" font-family="sans-serif" font-size="14" lengthAdjust="spacing" textLength="152.7764" x="1729" y="652.0234">apps/streamlit_app.py</text></g><!--entity reqs--><g id="elem_reqs"><rect fill="#F1F1F1" height="46.4883" rx="2.5" ry="2.5" style="stroke:#181818;stroke-width:0.5;" width="154.0234" x="1925.5" y="618.4883"/><rect fill="#F1F1F1" height="10" style="stroke:#181818;stroke-width:0.5;" width="15" x="2059.5234" y="623.4883"/><rect fill="#F1F1F1" height="2" style="stroke:#181818;stroke-width:0.5;" width="4" x="2057.5234" y="625.4883"/><rect fill="#F1F1F1" height="2" style="stroke:#181818;stroke-width:0.5;" width="4" x="2057.5234" y="629.4883"/><text fill="#000000" font-family="sans-serif" font-size="14" lengthAdjust="spacing" textLength="114.0234" x="1940.5" y="652.0234">requirements.txt</text></g><polygon fill="#181818" points="512.5,250.1797,516.5,241.1797,512.5,245.1797,508.5,241.1797,512.5,250.1797" style="stroke:#181818;stroke-width:1.0;"/><path d="M512.5,146.6454 C512.5,174.5464 512.5,216.2074 512.5,244.1797 " fill="none" style="stroke:#181818;stroke-width:1.0;"/><polygon fill="#181818" points="438.1658,403.9323,446.1164,398.1196,440.6558,399.5964,439.179,394.1357,438.1658,403.9323" style="stroke:#181818;stroke-width:1.0;"/><path d="M499.8495,296.5177 C483.3549,325.241 457.6559,369.9927 441.1537,398.7292 " fill="none" style="stroke:#181818;stroke-width:1.0;"/><polygon fill="#181818" points="412.9798,403.9323,412.0154,394.1308,410.5114,399.584,405.0582,398.0801,412.9798,403.9323" style="stroke:#181818;stroke-width:1.0;"/><path d="M352.0051,296.5177 C368.3101,325.241 393.7053,369.9779 410.0178,398.7144 " fill="none" style="stroke:#181818;stroke-width:1.0;"/><polygon fill="#181818" points="898.5,403.9323,902.5,394.9323,898.5,398.9323,894.5,394.9323,898.5,403.9323" style="stroke:#181818;stroke-width:1.0;"/><path d="M898.5,296.5177 C898.5,325.241 898.5,369.1958 898.5,397.9323 " fill="none" style="stroke:#181818;stroke-width:1.0;"/><polygon fill="#181818" points="762.2907,514.7299,771.9442,512.7779,766.3667,511.8339,767.3106,506.2564,762.2907,514.7299" style="stroke:#181818;stroke-width:1.0;"/><path d="M860.9505,450.2126 C844.6793,460.0282 825.5011,471.8479 808.5,482.9883 C793.0677,493.1007 781.1477,501.3318 767.1818,511.2547 " fill="none" style="stroke:#181818;stroke-width:1.0;"/><polygon fill="#181818" points="904.8835,514.9633,908.214,505.6947,904.5175,509.9767,900.2354,506.2802,904.8835,514.9633" style="stroke:#181818;stroke-width:1.0;"/><path d="M900.1189,450.0461 C901.5069,468.9571 903.057,490.0779 904.4443,508.9794 " fill="none" style="stroke:#181818;stroke-width:1.0;"/><polygon fill="#181818" points="1071.6521,514.9633,1065.4051,507.3492,1067.1841,512.719,1061.8143,514.498,1071.6521,514.9633" style="stroke:#181818;stroke-width:1.0;"/><path d="M942.4132,450.0461 C980.0617,468.9571 1028.6609,493.3686 1066.2905,512.2701 " fill="none" style="stroke:#181818;stroke-width:1.0;"/><polygon fill="#181818" points="1498.0899,514.9633,1506.9516,510.6657,1501.3149,511.1424,1500.8381,505.5057,1498.0899,514.9633" style="stroke:#181818;stroke-width:1.0;"/><path d="M1552.8824,450.0461 C1536.9208,468.9571 1517.9135,491.4767 1501.9599,510.3782 " fill="none" style="stroke:#181818;stroke-width:1.0;"/><polygon fill="#181818" points="1612.1947,514.9633,1612.0036,505.1163,1610.0758,510.4345,1604.7575,508.5067,1612.1947,514.9633" style="stroke:#181818;stroke-width:1.0;"/><path d="M1581.8206,450.0461 C1590.6689,468.9571 1600.8081,490.6272 1609.652,509.5288 " fill="none" style="stroke:#181818;stroke-width:1.0;"/><polygon fill="#181818" points="1413.4718,419.6636,1406.5719,412.6357,1408.8218,417.8259,1403.6316,420.0757,1413.4718,419.6636" style="stroke:#181818;stroke-width:1.0;"/><path d="M1405.5096,416.5149 C1406.7889,417.0212 1408.0255,417.5103 1409.2173,417.9816 C1410.409,418.4529 1411.5558,418.9063 1412.6557,419.3411 C1412.9307,419.4497 1407.6227,417.352 1407.8918,417.4583 " fill="none" style="stroke:#181818;stroke-width:1.0;"/><text fill="#000000" font-family="sans-serif" font-size="13" lengthAdjust="spacing" textLength="40.1807" x="1251.5" y="349.5566">HTTPS</text><polygon fill="#181818" points="1007.1166,191.2329,1001.8171,182.9314,1002.9464,188.4743,997.4034,189.6036,1007.1166,191.2329" style="stroke:#181818;stroke-width:1.0;"/><path d="M639.8984,125.5892 C640.9674,125.6652 642.0834,125.7453 643.245,125.8295 C647.8914,126.1662 653.2661,126.568 659.2695,127.0369 C671.2762,127.9746 685.7975,129.1805 702.0359,130.6703 C734.5125,133.6498 773.8573,137.7643 813.6901,143.1383 C853.5228,148.5122 893.8435,155.1455 928.2719,163.1624 C945.4861,167.1709 961.2272,171.5252 974.6977,176.241 C981.433,178.5989 987.6006,181.0472 993.1009,183.5878 C995.851,184.858 998.4343,186.1514 1000.8383,187.4681 C1002.0403,188.1264 1003.1975,188.7906 1004.3083,189.4606 C1004.8637,189.7956 1005.4075,190.1321 1005.9395,190.47 C1006.2055,190.639 1006.4686,190.8083 1006.7287,190.9781 C1006.8587,191.0629 1001.9838,187.8376 1002.1124,187.9226 " fill="none" style="stroke:#181818;stroke-width:1.0;"/><text fill="#000000" font-family="sans-serif" font-size="13" lengthAdjust="spacing" textLength="128.1465" x="994.5" y="179.0566">git push origin main</text><polygon fill="#181818" points="1913.5,514.9633,1917.5,505.9633,1913.5,509.9633,1909.5,505.9633,1913.5,514.9633" style="stroke:#181818;stroke-width:1.0;"/><path d="M1913.5,450.0461 C1913.5,468.9571 1913.5,490.0618 1913.5,508.9633 " fill="none" style="stroke:#181818;stroke-width:1.0;"/><polygon fill="#181818" points="1833.1615,618.1568,1842.3796,614.6888,1836.7229,614.6473,1836.7644,608.9906,1833.1615,618.1568" style="stroke:#181818;stroke-width:1.0;"/><path d="M1891.1505,561.0123 C1873.9923,577.9206 1854.6708,596.9607 1837.4352,613.9454 " fill="none" style="stroke:#181818;stroke-width:1.0;"/><polygon fill="#181818" points="1982.9187,618.1568,1979.9926,608.7526,1979.6222,614.3973,1973.9775,614.0269,1982.9187,618.1568" style="stroke:#181818;stroke-width:1.0;"/><path d="M1932.8117,561.0123 C1947.6377,577.9206 1964.07,596.6608 1978.9629,613.6454 " fill="none" style="stroke:#181818;stroke-width:1.0;"/><polygon fill="#181818" points="1705.4485,367.5873,1704.0604,357.8367,1702.7941,363.35,1697.2808,362.0838,1705.4485,367.5873" style="stroke:#181818;stroke-width:1.0;"/><path d="M640.1559,124.889 C643.3737,124.9713 647.0278,125.0671 651.0917,125.177 C659.2196,125.3967 668.9868,125.6729 680.1819,126.0109 C702.5721,126.687 730.6737,127.6106 762.7944,128.8251 C827.0358,131.2541 907.3537,134.8468 990.2099,139.9506 C1155.9223,150.1584 1331.7876,166.4109 1409.5,191.4883 C1552.5195,237.64 1607.8724,244.4365 1701.5,361.9883 C1702.2796,362.9671 1703.0291,363.9767 1703.7495,365.0125 C1704.1097,365.5304 1704.4626,366.055 1704.8084,366.5855 C1704.9813,366.8508 1705.1524,367.1176 1705.3218,367.3858 C1705.3641,367.4529 1702.2211,362.4354 1702.2632,362.5026 " fill="none" style="stroke:#181818;stroke-width:1.0;"/><text fill="#000000" font-family="sans-serif" font-size="13" lengthAdjust="spacing" textLength="51.7842" x="1662.5" y="278.5566">git push</text><polygon fill="#181818" points="1705.4328,365.4506,1701.9829,356.2257,1701.9303,361.8823,1696.2737,361.8297,1705.4328,365.4506" style="stroke:#181818;stroke-width:1.0;"/><path d="M1405.9888,354.4902 C1406.2477,354.4942 1406.5098,354.4982 1406.7749,354.5021 C1407.8356,354.5176 1408.946,354.5321 1410.1042,354.5456 C1419.3695,354.6535 1431.6898,354.6976 1446.038,354.7204 C1474.7344,354.7659 1511.5426,354.7262 1548.2469,354.9404 C1621.6556,355.3688 1694.6486,356.8133 1701.5,361.9883 C1702.5218,362.7601 1703.4927,363.5837 1704.4152,364.4533 C1704.6458,364.6707 1704.8734,364.8909 1705.0981,365.114 C1705.2104,365.2255 1701.119,361.0558 1701.2298,361.1687 " fill="none" style="stroke:#181818;stroke-width:1.0;"/><text fill="#000000" font-family="sans-serif" font-size="13" lengthAdjust="spacing" textLength="85.2681" x="1407.5" y="349.5566">git pull (auto)</text><path d="M1023.4588,191.3126 C1023.3601,191.1875 1023.2612,191.0627 1023.162,190.938 C1022.9637,190.6887 1022.7643,190.4402 1022.5639,190.1926 C1022.1632,189.6974 1021.7585,189.2056 1021.3498,188.7176 C1014.8097,180.9089 1007.2356,174.0457 998.5,168.9883 C963.4022,148.6685 307.0322,156.3382 268.5,168.9883 C231.5661,181.1136 196.3301,206.9268 170.1971,229.8627 " fill="none" style="stroke:#181818;stroke-width:1.0;stroke-dasharray:7.0,7.0;"/><!--SRC=[XLNRRXCn47tVhvZc1H3A1YXFUK0AIIYL2aIz8TIYbRCxIQpkseilQGEgn4VmXNm9uqko9aGY3rrxBfupntFSerQnPSEWPXjf3UW63HCiUm9dqvFH-0iCG32bv3siETx3xv-_G2D2XMqjDmqAKvHMAVhchMrgOAA2IfPwG9l1-NGq-J3DcufIIiEbW9FigC855mYJwVNfU0f2LfXbXfiQuS8eP4tD3KoONiqbKnLCTdLWfCeLDtIGLPGIytiJN6CjMrJmWP5VO0-O9dXh-941_KhPj5Au_DwPB5aDCS4TwKDhPosw1FUxcMtCYk0UvozVFF_gebflw0AkkJAMJfkADLTIkDDyt1h5keiweLxEiPMQ6wasFc39JQ78r0LrRO_FJdsCtbgAikO-yD7_3I2Wtt_JrN4BR_atQLlgWFkn8p0fBvl62cusCAwbhJmxfLlzIsLoBGa3aNhdAXoi7uUQFBV2y0Pzeogikp3MjdhGGQLjtWRUQDc5KNaK5OgIe_uQY-hEVQLf7Au81gjeg2JDToXdlQdGmPGGctGsbcB1brOnDw-10cz9cqbQXckcE9lN4GTrNQoPwh08QH0KNwuCoCNE3KFuA9qe51fNe6cuCLZTYb5TWv5tA3Hm0RaZKQfRqR5t4N8Ix953VybRakZhzpjQjeO336nTE-Z9R7WYtvBuwUkvc8Tr9EFcCyxXL1XK2rO6YkznNjWmVZVlE8awN4D2VnRreqa-_BkdEN2tvj-zBnoHmDstka026KRJ6RQeXl3-yd9saJanEtk863eXG6lrYhZaI-ArOLnaMSKCcpEDq2EPlhVpHAczgDGLMMEhIoj4kVfqSNmtq2qzGies3tt6-ug9_f95SU-4VUDA42v6ETxZzaNOP_-Vz691r8KuXTyiL-XcJUVcmSGwtyAzxkIzVtwotqv6T-Y-qnz7Z6vvYvrtn2LSx_beNfyoQ-IpBFjxr7q6LKjUYfcI9Mez9ElBd5uR8OX7YEH7wbxbDEArimTymt1PG4ynFV34gMjY20VPewZNEOm8JJyyGa2FfOTFZuLNuZx8HAuaBAlexNFe-awTezaftE762x5q_wMYtOsDHkE19DhrxgXEcb06XpJR3v8EgKGWNmgfA7U7xmy0]--></g></svg>