<svg xmlns="http://www.w3.org/2000/svg" xmlns:xlink="http://www.w3.org/1999/xlink" contentStyleType="text/css" height="464px" preserveAspectRatio="none" style="width:1115px;height:464px;background:#FFFFFF;" version="1.1" viewBox="0 0 1115 464" width="1115px" zoomAndPan="magnify"><title>Deployment &#8212; **future research adoption** (artifact loop)</title><defs/><g><text fill="#B71C1C" font-family="sans-serif" font-size="14" font-weight="bold" lengthAdjust="spacing" textLength="105.499" x="347.9565" y="23.5352">Deployment &#8212;</text><text fill="#B71C1C" font-family="sans-serif" font-size="14" font-weight="bold" lengthAdjust="spacing" textLength="179.6758" x="458.0698" y="23.5352">future research adoption</text><text fill="#B71C1C" font-family="sans-serif" font-size="14" font-weight="bold" lengthAdjust="spacing" textLength="98.6836" x="642.3599" y="23.5352">(artifact loop)</text><!--cluster ws--><g id="cluster_ws"><polygon fill="none" points="14,59.4883,24,49.4883,177,49.4883,177,135.4883,167,145.4883,14,145.4883,14,59.4883" style="stroke:#181818;stroke-width:1.0;"/><line style="stroke:#181818;stroke-width:1.0;" x1="167" x2="177" y1="59.4883" y2="49.4883"/><line style="stroke:#181818;stroke-width:1.0;" x1="14" x2="167" y1="59.4883" y2="59.4883"/><line style="stroke:#181818;stroke-width:1.0;" x1="167" x2="167" y1="59.4883" y2="145.4883"/><text fill="#000000" font-family="sans-serif" font-size="14" font-weight="bold" lengthAdjust="spacing" textLength="87.001" x="47.9995" y="76.0234">Workstation</text></g><!--cluster gpu--><g id="cluster_gpu"><polygon fill="none" points="185,59.4883,195,49.4883,381,49.4883,381,135.4883,371,145.4883,185,145.4883,185,59.4883" style="stroke:#181818;stroke-width:1.0;"/><line style="stroke:#181818;stroke-width:1.0;" x1="371" x2="381" y1="59.4883" y2="49.4883"/><line style="stroke:#181818;stroke-width:1.0;" x1="185" x2="371" y1="59.4883" y2="59.4883"/><line style="stroke:#181818;stroke-width:1.0;" x1="371" x2="371" y1="59.4883" y2="145.4883"/><text fill="#000000" font-family="sans-serif" font-size="14" font-weight="bold" lengthAdjust="spacing" textLength="119.9912" x="219.0044" y="76.0234">GPU / HPC cloud</text></g><!--cluster omni--><g id="cluster_omni"><polygon fill="none" points="389,59.4883,399,49.4883,638,49.4883,638,135.4883,628,145.4883,389,145.4883,389,59.4883" style="stroke:#181818;stroke-width:1.0;"/><line style="stroke:#181818;stroke-width:1.0;" x1="628" x2="638" y1="59.4883" y2="49.4883"/><line style="stroke:#181818;stroke-width:1.0;" x1="389" x2="628" y1="59.4883" y2="59.4883"/><line style="stroke:#181818;stroke-width:1.0;" x1="628" x2="628" y1="59.4883" y2="145.4883"/><text fill="#000000" font-family="sans-serif" font-size="14" font-weight="bold" lengthAdjust="spacing" textLength="173.9199" x="422.54" y="76.0234">AODT / Omniverse host</text></g><!--cluster phy--><g id="cluster_phy"><polygon fill="none" points="646,59.4883,656,49.4883,888,49.4883,888,135.4883,878,145.4883,646,145.4883,646,59.4883" style="stroke:#181818;stroke-width:1.0;"/><line style="stroke:#181818;stroke-width:1.0;" x1="878" x2="888" y1="59.4883" y2="49.4883"/><line style="stroke:#181818;stroke-width:1.0;" x1="646" x2="878" y1="59.4883" y2="59.4883"/><line style="stroke:#181818;stroke-width:1.0;" x1="878" x2="878" y1="59.4883" y2="145.4883"/><text fill="#000000" font-family="sans-serif" font-size="14" font-weight="bold" lengthAdjust="spacing" textLength="166.9199" x="679.54" y="76.0234">PHY lab / NVIDIA stack</text></g><!--cluster field--><g id="cluster_field"><polygon fill="none" points="896,59.4883,906,49.4883,1098,49.4883,1098,135.4883,1088,145.4883,896,145.4883,896,59.4883" style="stroke:#181818;stroke-width:1.0;"/><line style="stroke:#181818;stroke-width:1.0;" x1="1088" x2="1098" y1="59.4883" y2="49.4883"/><line style="stroke:#181818;stroke-width:1.0;" x1="896" x2="1088" y1="59.4883" y2="59.4883"/><line style="stroke:#181818;stroke-width:1.0;" x1="1088" x2="1088" y1="59.4883" y2="145.4883"/><text fill="#000000" font-family="sans-serif" font-size="14" font-weight="bold" lengthAdjust="spacing" textLength="107.7002" x="939.1499" y="76.0234">OTA field / lab</text></g><!--cluster gh--><g id="cluster_gh"><path d="M415.0687,190.5728 C420.635,184.5752 424.6748,184.9929 428.1971,192.5522 C432.3576,186.3914 436.6718,184.1479 442.2338,191.0457 C445.9858,185.5393 450.9397,185.3379 455.2505,190.3544 C458.914,183.5729 464.7149,183.8732 468.2415,190.4872 C471.5935,185.0609 476.1748,184.7375 479.7919,190.2062 C482.8466,184.5291 488.2821,182.9245 492.6618,188.7198 C497.9299,182.1457 502.1135,182.5153 506.4814,189.6287 C510.1657,183.5975 516.1024,183.1147 519.8349,189.5773 C524.6228,184.7161 528.7342,185.3629 532.008,191.2863 C534.4868,185.4624 539.9348,183.5142 544.1512,189.4996 C549.5403,183.6492 554.39,183.7878 557.5995,191.6389 C562.4147,186.0077 566.853,184.1473 571.6507,191.6575 C575.4281,185.9942 581.1147,185.7296 584.4518,192.1248 C588.548,186.0372 593.166,185.763 596.7588,192.604 C603.7206,195.4105 604.7566,202.2101 598.3912,206.574 C608.0418,209.2802 608.0561,216.4569 601.9281,222.6373 C609.46,228.4701 608.7774,235.085 599.7858,238.7162 C606.0574,245.0523 604.5174,252.8896 596.4426,256.5338 C592.9471,262.8612 587.8911,263.1935 583.295,257.7646 C580.0593,264.9194 573.6611,263.1995 570.2391,257.9608 C567.5212,264.26 563.1535,263.9792 558.6473,259.9723 C553.6472,267.7793 548.8036,267.7337 543.604,260.1676 C540.3127,264.9713 535.5977,266.0919 532.2606,260.2163 C529.6894,265.8615 523.6077,267.2043 519.4208,262.1564 C517.305,269.0695 511.5407,269.8316 507.0383,264.5872 C501.6364,271.9069 495.704,270.9898 492.3254,262.6822 C487.7048,266.9482 482.8624,265.7048 480.4446,260.0454 C476.2785,265.2961 471.9548,264.6771 468.8182,258.9547 C464.2984,264.587 458.0589,265.2146 454.5642,257.8319 C450.5309,262.4133 446.94,263.9345 443.1536,257.5745 C439.1565,265.1922 433.5533,264.1527 429.3127,257.816 C424.4873,263.89 418.5682,264.037 415.1257,256.3865 C406.6473,252.5941 407.6717,245.2983 413.9353,240.4076 C406.1359,235.6806 405.5004,230.8502 412.1856,224.5272 C404.7879,218.1791 406.3937,210.3124 415.4783,207.0738 C406.6842,202.1051 407.9787,195.9358 415.0687,190.5728 " fill="none" style="stroke:#181818;stroke-width:1.0;"/><text fill="#000000" font-family="sans-serif" font-size="14" font-weight="bold" lengthAdjust="spacing" textLength="50.0596" x="479.9702" y="209.0234">GitHub</text></g><!--cluster dash--><g id="cluster_dash"><path d="M414.8605,291.6367 C417.9943,285.0901 423.318,282.5545 428.8047,289.1379 C431.984,283.5756 436.7193,282.2527 440.6557,288.3696 C443.0975,283.2753 448.2611,282.696 451.9781,286.7999 C455.1684,279.5209 459.7789,278.8833 464.6582,285.2279 C468.4603,278.1712 473.0158,278.9866 477.3196,284.7316 C481.0156,277.2118 487.4655,277.938 491.5868,284.2944 C493.1696,278.5241 498.7665,276.2517 503.3076,280.997 C508.6961,275.7653 514.3086,275.8427 516.8906,283.8717 C521.4481,278.6416 524.994,279.5982 527.804,285.5736 C532.6761,279.3056 537.1911,280.7686 540.9914,286.7294 C545.3865,281.2083 549.3499,281.0618 553.5185,286.9775 C558.1558,282.7223 562.6394,283.5391 565.5359,289.1072 C570.3589,283.498 574.7512,283.5883 579.22,289.5269 C583.5789,285.6952 587.4654,285.5292 590.1857,291.3823 C596.7832,293.9827 598.2418,298.2676 593.7881,304.0186 C600.276,305.4328 601.1341,310.9046 596.6039,315.1148 C602.7073,317.7886 605.1581,323.1631 599.1625,328.2022 C603.2038,333.7246 602.9502,337.5877 595.7714,339.841 C601.1984,345.1852 601.3502,349.6083 594.2999,353.62 C599.507,359.5766 597.5081,364.4804 590.3375,366.6824 C587.1682,371.0934 583.1025,371.3514 579.6503,367.0287 C576.2052,373.8168 572.0398,374.6902 567.2209,368.3271 C564.6518,373.9806 558.5989,375.5012 554.676,369.8263 C551.7191,376.0629 546.3586,376.5568 541.9991,371.385 C538.6083,379.3761 531.834,379.431 527.2611,372.557 C524.3622,377.3341 519.7128,377.3071 516.824,372.546 C513.6718,380.2431 508.7596,381.0649 503.1002,375.0565 C498.051,380.4748 492.2948,379.3351 490.3664,371.9522 C486.4168,377.9939 480.973,376.8045 478.3912,370.6132 C473.7525,375.6429 469.1233,375.8827 465.2926,369.6717 C461.7063,374.6534 456.2472,375.8754 453.0308,369.28 C447.888,375.8415 442.8267,374.8947 439.1859,367.7615 C435.5252,373.2184 431.6515,373.4414 428.0822,367.671 C421.9356,373.2067 417.6261,372.0847 414.5128,364.5274 C408.6081,361.0538 409.8557,356.5998 414.938,353.5519 C408.1261,350.9956 407.4517,345.0496 413.835,341.3049 C406.6354,338.8069 405.8838,333.6589 411.7758,328.9745 C406.221,325.0065 405.4389,319.2167 412.6045,316.0653 C406.9105,312.0678 408.0482,305.9127 413.9309,303.0995 C408.3,299.7581 409.0951,294.0539 414.8605,291.6367 " fill="none" style="stroke:#181818;stroke-width:1.0;"/><text fill="#000000" font-family="sans-serif" font-size="14" font-weight="bold" lengthAdjust="spacing" textLength="158.6758" x="422.6621" y="308.0234">Streamlit / dashboard</text></g><g id="elem_GMN23"><path d="M400.5,401.4883 L400.5,457.4199 A0,0 0 0 0 400.5,457.4199 L637.8662,457.4199 A0,0 0 0 0 637.8662,457.4199 L637.8662,411.4883 L627.8662,401.4883 L523,401.4883 L519,364.7913 L515,401.4883 L400.5,401.4883 A0,0 0 0 0 400.5,401.4883 " fill="#FEFFDD" style="stroke:#181818;stroke-width:0.5;"/><path d="M627.8662,401.4883 L627.8662,411.4883 L637.8662,411.4883 L627.8662,401.4883 " fill="#FEFFDD" style="stroke:#181818;stroke-width:0.5;"/><text fill="#000000" font-family="sans-serif" font-size="13" font-weight="bold" lengthAdjust="spacing" textLength="46.5474" x="406.5" y="419.0566">Future:</text><text fill="#000000" font-family="sans-serif" font-size="13" lengthAdjust="spacing" textLength="161.4463" x="457.1606" y="419.0566">manifests round-trip into</text><text fill="#000000" font-family="sans-serif" font-size="13" lengthAdjust="spacing" textLength="57.4717" x="406.5" y="434.3672">the same</text><text fill="#000000" font-family="sans-serif" font-size="13" font-weight="bold" lengthAdjust="spacing" textLength="154.7813" x="468.085" y="434.3672">provenance vocabulary</text><text fill="#000000" font-family="sans-serif" font-size="13" lengthAdjust="spacing" textLength="159.2056" x="406.5" y="449.6777">as today; execution stays</text><text fill="#000000" font-family="sans-serif" font-size="13" font-weight="bold" lengthAdjust="spacing" textLength="48.7817" x="569.8188" y="449.6777">explicit</text><text fill="#000000" font-family="sans-serif" font-size="13" lengthAdjust="spacing" textLength="4.1133" x="618.6006" y="449.6777">.</text></g><!--entity dev--><g id="elem_dev"><rect fill="#F1F1F1" height="55.9766" rx="2.5" ry="2.5" style="stroke:#181818;stroke-width:0.5;" width="108.8594" x="59.5" y="81.4883"/><polygon fill="#F1F1F1" points="151.3594,86.4883,151.3594,100.4883,163.3594,100.4883,163.3594,92.4883,157.3594,86.4883,151.3594,86.4883" style="stroke:#181818;stroke-width:0.5;"/><line style="stroke:#181818;stroke-width:0.5;" x1="157.3594" x2="157.3594" y1="86.4883" y2="92.4883"/><line style="stroke:#181818;stroke-width:0.5;" x1="163.3594" x2="157.3594" y1="92.4883" y2="92.4883"/><text fill="#000000" font-family="sans-serif" font-size="14" lengthAdjust="spacing" textLength="78.8594" x="69.5" y="108.0234">Local dev +</text><text fill="#000000" font-family="sans-serif" font-size="14" lengthAdjust="spacing" textLength="71.6543" x="69.5" y="124.5117">notebooks</text></g><!--entity sim--><g id="elem_sim"><rect fill="#F1F1F1" height="55.9766" rx="2.5" ry="2.5" style="stroke:#181818;stroke-width:0.5;" width="145.9922" x="227" y="81.4883"/><polygon fill="#F1F1F1" points="355.9922,86.4883,355.9922,100.4883,367.9922,100.4883,367.9922,92.4883,361.9922,86.4883,355.9922,86.4883" style="stroke:#181818;stroke-width:0.5;"/><line style="stroke:#181818;stroke-width:0.5;" x1="361.9922" x2="361.9922" y1="86.4883" y2="92.4883"/><line style="stroke:#181818;stroke-width:0.5;" x1="367.9922" x2="361.9922" y1="92.4883" y2="92.4883"/><text fill="#000000" font-family="sans-serif" font-size="14" lengthAdjust="spacing" textLength="79.2012" x="237" y="108.0234">Sionna RT /</text><text fill="#000000" font-family="sans-serif" font-size="14" lengthAdjust="spacing" textLength="115.9922" x="237" y="124.5117">DeepMIMO batch</text></g><!--entity aodt--><g id="elem_aodt"><rect fill="#F1F1F1" height="55.9766" rx="2.5" ry="2.5" style="stroke:#181818;stroke-width:0.5;" width="162.0361" x="458" y="81.4883"/><polygon fill="#F1F1F1" points="603.0361,86.4883,603.0361,100.4883,615.0361,100.4883,615.0361,92.4883,609.0361,86.4883,603.0361,86.4883" style="stroke:#181818;stroke-width:0.5;"/><line style="stroke:#181818;stroke-width:0.5;" x1="609.0361" x2="609.0361" y1="86.4883" y2="92.4883"/><line style="stroke:#181818;stroke-width:0.5;" x1="615.0361" x2="609.0361" y1="92.4883" y2="92.4883"/><text fill="#000000" font-family="sans-serif" font-size="14" lengthAdjust="spacing" textLength="132.0361" x="468" y="108.0234">Scene generation +</text><text fill="#000000" font-family="sans-serif" font-size="14" lengthAdjust="spacing" textLength="98.5537" x="468" y="124.5117">USD / RF meta</text></g><!--entity pya--><g id="elem_pya"><rect fill="#F1F1F1" height="55.9766" rx="2.5" ry="2.5" style="stroke:#181818;stroke-width:0.5;" width="190.501" x="688.5" y="81.4883"/><polygon fill="#F1F1F1" points="862.001,86.4883,862.001,100.4883,874.001,100.4883,874.001,92.4883,868.001,86.4883,862.001,86.4883" style="stroke:#181818;stroke-width:0.5;"/><line style="stroke:#181818;stroke-width:0.5;" x1="868.001" x2="868.001" y1="86.4883" y2="92.4883"/><line style="stroke:#181818;stroke-width:0.5;" x1="874.001" x2="868.001" y1="92.4883" y2="92.4883"/><text fill="#000000" font-family="sans-serif" font-size="14" lengthAdjust="spacing" textLength="70.6973" x="698.5" y="108.0234">pyAerial +</text><text fill="#000000" font-family="sans-serif" font-size="14" lengthAdjust="spacing" textLength="160.501" x="698.5" y="124.5117">cuPHY-capable runtime</text></g><!--entity ota--><g id="elem_ota"><rect fill="#F1F1F1" height="55.9766" rx="2.5" ry="2.5" style="stroke:#181818;stroke-width:0.5;" width="151.666" x="938" y="81.4883"/><polygon fill="#F1F1F1" points="1072.666,86.4883,1072.666,100.4883,1084.666,100.4883,1084.666,92.4883,1078.666,86.4883,1072.666,86.4883" style="stroke:#181818;stroke-width:0.5;"/><line style="stroke:#181818;stroke-width:0.5;" x1="1078.666" x2="1078.666" y1="86.4883" y2="92.4883"/><line style="stroke:#181818;stroke-width:0.5;" x1="1084.666" x2="1078.666" y1="92.4883" y2="92.4883"/><text fill="#000000" font-family="sans-serif" font-size="14" lengthAdjust="spacing" textLength="121.666" x="948" y="108.0234">Capture + label +</text><text fill="#000000" font-family="sans-serif" font-size="14" lengthAdjust="spacing" textLength="91.0479" x="948" y="124.5117">lake manifest</text></g><!--entity repo--><g id="elem_repo"><path d="M449.5,219.4883 C449.5,209.4883 521.7993,209.4883 521.7993,209.4883 C521.7993,209.4883 594.0986,209.4883 594.0986,219.4883 L594.0986,244.9766 C594.0986,254.9766 521.7993,254.9766 521.7993,254.9766 C521.7993,254.9766 449.5,254.9766 449.5,244.9766 L449.5,219.4883 " fill="#F1F1F1" style="stroke:#181818;stroke-width:0.5;"/><path d="M449.5,219.4883 C449.5,229.4883 521.7993,229.4883 521.7993,229.4883 C521.7993,229.4883 594.0986,229.4883 594.0986,219.4883 " fill="none" style="stroke:#181818;stroke-width:0.5;"/><text fill="#000000" font-family="sans-serif" font-size="14" lengthAdjust="spacing" textLength="124.5986" x="459.5" y="247.0234">Repo + CI outputs</text></g><!--entity st--><g id="elem_st"><rect fill="#F1F1F1" height="55.9766" rx="2.5" ry="2.5" style="stroke:#181818;stroke-width:0.5;" width="141.6582" x="448" y="308.4883"/><polygon fill="#F1F1F1" points="572.6582,313.4883,572.6582,327.4883,584.6582,327.4883,584.6582,319.4883,578.6582,313.4883,572.6582,313.4883" style="stroke:#181818;stroke-width:0.5;"/><line style="stroke:#181818;stroke-width:0.5;" x1="578.6582" x2="578.6582" y1="313.4883" y2="319.4883"/><line style="stroke:#181818;stroke-width:0.5;" x1="584.6582" x2="578.6582" y1="319.4883" y2="319.4883"/><text fill="#000000" font-family="sans-serif" font-size="14" lengthAdjust="spacing" textLength="111.6582" x="458" y="335.0234">Compare runs +</text><text fill="#000000" font-family="sans-serif" font-size="14" lengthAdjust="spacing" textLength="78.2646" x="458" y="351.5117">provenance</text></g><polygon fill="#181818" points="406.4904,229.1084,398.0222,224.0795,401.525,228.5214,397.083,232.0242,406.4904,229.1084" style="stroke:#181818;stroke-width:1.0;"/><path d="M50,145.4883 C80.0255,169.3734 158.8841,189.1099 236.3997,203.5794 C275.1575,210.8142 313.5795,216.7321 345.3938,221.1935 C361.3009,223.4242 375.5561,225.2908 387.3753,226.7757 C393.2849,227.5181 398.5856,228.1652 403.1792,228.7147 C404.3276,228.852 399.4734,228.2789 400.5319,228.404 " fill="none" style="stroke:#181818;stroke-width:1.0;"/><polygon fill="#181818" points="406.9425,228.3013,398.8347,222.7098,402.0283,227.379,397.3591,230.5725,406.9425,228.3013" style="stroke:#181818;stroke-width:1.0;"/><path d="M218,145.4883 C248.5564,174.3503 290.2565,194.1348 328.0712,207.3394 C346.9785,213.9417 364.9145,218.8991 380.0005,222.5237 C387.5435,224.336 394.374,225.8151 400.2572,227.0001 C401.728,227.2963 403.1395,227.5742 404.4882,227.8343 C405.1626,227.9643 405.8212,228.0899 406.4637,228.2111 C406.6243,228.2415 400.8869,227.1648 401.0454,227.1945 " fill="none" style="stroke:#181818;stroke-width:1.0;"/><text fill="#000000" font-family="sans-serif" font-size="13" lengthAdjust="spacing" textLength="95.8052" x="259" y="170.0566">export bundles</text><polygon fill="#181818" points="423,182.3932,427,173.3932,423,177.3932,419,173.3932,423,182.3932" style="stroke:#181818;stroke-width:1.0;"/><path d="M423,145.8392 C423,146.1099 423,146.3814 423,146.6537 C423,147.743 423,148.8449 423,149.9575 C423,152.1828 423,154.4512 423,156.7482 C423,161.3424 423,166.0515 423,170.7603 C423,173.1148 423,175.4692 423,177.8091 C423,178.9791 423,180.1455 423,181.3065 C423,181.5967 423,181.8866 423,182.1761 C423,182.2485 423,176.3209 423,176.3932 " fill="none" style="stroke:#181818;stroke-width:1.0;"/><text fill="#000000" font-family="sans-serif" font-size="13" lengthAdjust="spacing" textLength="69.0942" x="425" y="170.0566">summaries</text><polygon fill="#181818" points="441.1222,182.3919,450.6823,180.0246,445.0692,179.3225,445.7713,173.7094,441.1222,182.3919" style="stroke:#181818;stroke-width:1.0;"/><path d="M645.9911,142.0521 C645.9634,142.0799 645.9356,142.1078 645.9078,142.1356 C645.7967,142.2467 645.6849,142.3571 645.5724,142.4666 C645.3475,142.6857 645.12,142.9017 644.8898,143.1142 C643.9692,143.9642 643.0063,144.7599 642,145.4883 C589.8214,183.2577 563.5057,163.7104 500,174.4883 C493.4777,175.5952 481.3099,175.5279 469.4816,176.2176 C463.5674,176.5624 457.7381,177.0964 452.7418,178.0611 C450.2437,178.5434 447.9538,179.1334 445.9656,179.8612 C444.9716,180.2251 444.0529,180.6235 443.2214,181.0601 C442.8057,181.2784 442.4117,181.5062 442.041,181.7441 C441.8556,181.863 441.6761,181.9845 441.5025,182.1085 C441.4157,182.1705 441.3305,182.2331 441.2467,182.2964 C441.2048,182.3281 445.8997,178.6766 445.8586,178.7086 " fill="none" style="stroke:#181818;stroke-width:1.0;"/><text fill="#000000" font-family="sans-serif" font-size="13" lengthAdjust="spacing" textLength="90.8857" x="626" y="170.0566">bridge configs</text><polygon fill="#181818" points="441.1597,182.3822,450.918,181.0493,445.4119,179.7518,446.7094,174.2458,441.1597,182.3822" style="stroke:#181818;stroke-width:1.0;"/><path d="M895.9473,142.1911 C895.8352,142.3009 895.7225,142.4099 895.609,142.5181 C895.3821,142.7344 895.1526,142.9474 894.9202,143.1569 C893.9909,143.9949 893.018,144.7763 892,145.4883 C829.1899,189.4161 798.2739,166.9346 722,174.4883 C714.2293,175.2578 647.1526,174.9831 580.4319,175.6534 C547.0715,175.9885 513.8002,176.5598 488.0756,177.6161 C475.2133,178.1442 464.2378,178.7936 456.0811,179.5953 C452.0027,179.9961 448.6291,180.435 446.0768,180.9159 C444.8006,181.1563 443.7297,181.4073 442.8787,181.6692 C442.4533,181.8001 442.0827,181.9338 441.769,182.0703 C441.6121,182.1386 441.4695,182.2075 441.3412,182.2772 C441.2771,182.312 446.3192,179.1906 446.2623,179.2258 " fill="none" style="stroke:#181818;stroke-width:1.0;"/><text fill="#000000" font-family="sans-serif" font-size="13" lengthAdjust="spacing" textLength="92.6821" x="876" y="170.0566">OTA manifests</text><polygon fill="#181818" points="422.5269,281.4786,426.6145,272.5181,422.5757,276.4789,418.6149,272.44,422.5269,281.4786" style="stroke:#181818;stroke-width:1.0;"/><path d="M422.7094,262.7757 C422.7083,262.8838 422.7073,262.9921 422.7062,263.1005 C422.7041,263.3174 422.702,263.5348 422.6999,263.7529 C422.6956,264.1889 422.6913,264.6274 422.687,265.0681 C422.6784,265.9494 422.6697,266.8396 422.661,267.7373 C422.6435,269.5328 422.6257,271.3585 422.6076,273.2042 C422.5896,275.05 422.5714,276.9158 422.5531,278.7914 C422.5486,279.2603 422.544,279.7299 422.5394,280.1999 C422.5371,280.4348 422.5348,280.67 422.5325,280.9051 C422.5314,281.0227 422.5302,281.1404 422.5291,281.258 C422.5285,281.3168 422.5279,281.3757 422.5274,281.4345 C422.5272,281.4492 422.5856,275.4642 422.5855,275.4789 " fill="none" style="stroke:#181818;stroke-width:1.0;"/><polygon fill="#181818" points="422.7122,262.4923,418.6245,271.4528,422.6634,267.492,426.6242,271.5309,422.7122,262.4923" style="stroke:#181818;stroke-width:1.0;"/><path d="M422.5291,281.258 C422.5302,281.1404 422.5314,281.0227 422.5325,280.9051 C422.5348,280.67 422.5371,280.4348 422.5394,280.1999 C422.544,279.7299 422.5486,279.2603 422.5531,278.7914 C422.5714,276.9158 422.5896,275.05 422.6076,273.2042 C422.6257,271.3585 422.6435,269.5328 422.661,267.7373 C422.6697,266.8396 422.6784,265.9494 422.687,265.0681 C422.6913,264.6274 422.6956,264.1889 422.6999,263.7529 C422.702,263.5348 422.7041,263.3174 422.7062,263.1005 C422.7073,262.9921 422.7083,262.8838 422.7094,262.7757 C422.7099,262.7217 422.7104,262.6676 422.711,262.6137 C422.7112,262.5867 422.7115,262.5597 422.7118,262.5327 C422.7119,262.5192 422.6535,268.5055 422.6536,268.492 " fill="none" style="stroke:#181818;stroke-width:1.0;"/><!--SRC=[NLFRZjD037sVhp3b1R8ggtr2MYIaqgfi9PQkzW92sXSdSPjHC-FHZ5E8418VmHVo9JWJjeM-H1dFyV7niUTPYBXr22tst0aaHu8UZLXf2HOKMkuTUO7VFtz1KMmwwI91f4GOgmQmvY2MVL702unYDrW9jCpXfJ5fPtt0Y0uosPAzpBdb2C_VlRwONyoDyLmJJ3vpt2N1WMO2cE1hWky6u40t-S0Ljb3J7iuUlMUXadcNCbQ3viSJqVkR1pY7gvivL2rtTGPiGtV2TgTrFCBjFPm_-WLHk5vThw54gPgSaQmxKixM2yN1sdcxfvW86awIOQoXK-QAFC5MFp5tCyXzk5je_kqI1bzp8d8jnm8tLr_K-b8n7p-j5giPg1FLBWD3qvyK2FsCebKlbBZgD7LQOS1I1nKxBzRHcDVZaNzzFuEDfRRM2bed0yRp_zHp37coPmEASeKMTmGElTtGKy-IcRExQhULgsvat3QPhaR14jMboIq5Lgxv2dIfGYVZjA96_o6uaqZeMYkghSRKb8nndDfmEXN8JfSfTve6TI7odZpwQcmwPKzrTQRJjoh737CVV-4Iw5lWA51slcufcJowmsNgdCDeDJuOVWYNqTPRWehzncwJ6Jqxt0wsFbcJZ8Q6cq6roTB_YZ33iaB98koqcQ9OvkTpgQ_ba0oHLTPKeWrWlR3Yf258w4WJZbt2Nbz1sRKO-w8Od4aWN6F_HhkZgilxfhlJ9ytIVbjRMIcALuPy3OCCymS0]--></g></svg>