<svg xmlns="http://www.w3.org/2000/svg" xmlns:xlink="http://www.w3.org/1999/xlink" contentStyleType="text/css" height="329px" preserveAspectRatio="none" style="width:1999px;height:329px;background:#FFFFFF;" version="1.1" viewBox="0 0 1999 329" width="1999px" zoomAndPan="magnify"><title>Deployment &#8212; current execution surfaces (honest)</title><defs/><g><text fill="#000000" font-family="sans-serif" font-size="14" font-weight="bold" lengthAdjust="spacing" textLength="366.666" x="789.167" y="23.5352">Deployment &#8212; current execution surfaces (honest)</text><!--cluster dev--><g id="cluster_dev"><polygon fill="none" points="922,70.4883,932,60.4883,1702,60.4883,1702,146.4883,1692,156.4883,922,156.4883,922,70.4883" style="stroke:#181818;stroke-width:1.0;"/><line style="stroke:#181818;stroke-width:1.0;" x1="1692" x2="1702" y1="70.4883" y2="60.4883"/><line style="stroke:#181818;stroke-width:1.0;" x1="922" x2="1692" y1="70.4883" y2="70.4883"/><line style="stroke:#181818;stroke-width:1.0;" x1="1692" x2="1692" y1="70.4883" y2="156.4883"/><text fill="#000000" font-family="sans-serif" font-size="14" font-weight="bold" lengthAdjust="spacing" textLength="277.4229" x="1169.2886" y="87.0234">Developer / experimenter workstation</text></g><!--cluster gh--><g id="cluster_gh"><path d="M1148.0917,228.4625 C1152.7961,216.8545 1163.8657,217.1383 1170.243,226.7132 C1176.5895,214.2004 1184.1589,213.1962 1193.7728,223.3164 C1199.5942,214.2519 1209.0727,212.4943 1214.9018,223.3082 C1222.7544,212.9742 1230.9474,213.2681 1238.2852,223.8829 C1244.3423,212.6891 1252.8348,214.2313 1259.6399,223.0863 C1266.581,212.3437 1274.0861,212.4282 1281.9475,222.0797 C1289.5215,212.5498 1298.6883,211.5452 1304.5414,223.8596 C1309.3671,211.732 1317.6556,212.236 1325.1687,221.2357 C1332.1491,212.6324 1342.3981,210.8855 1347.4657,223.268 C1353.3644,214.2101 1363.0377,215.1023 1367.8698,224.4505 C1376.0222,215.3647 1383.9035,213.8944 1389.9049,226.6232 C1397.2224,213.7794 1407.493,216.5329 1414.8485,226.5818 C1421.2489,218.3108 1426.8099,217.7683 1433.2357,226.5544 C1441.017,215.2949 1450.0912,216.6701 1456.1794,228.2549 C1467.3793,232.3785 1468.9422,240.3506 1459.9793,248.297 C1469.1504,251.2159 1472.3175,258.6557 1464.0535,265.6647 C1472.0751,273.2153 1470.7498,283.3467 1459.2179,286.3196 C1469.8063,293.0195 1469.0287,302.7689 1457.9105,308.17 C1450.8415,318.6215 1441.7833,319.0275 1435.7181,307.1714 C1428.8029,317.9265 1421.4263,319.1435 1413.0092,308.787 C1407.1981,318.703 1397.2533,317.9552 1391.656,308.5506 C1384.5621,319.8828 1376.9641,317.692 1370.4797,307.9383 C1362.8118,319.4818 1354.2895,319.663 1346.6093,307.9508 C1342.314,318.46 1331.2194,322.9668 1323.347,311.7874 C1316.5776,319.5272 1307.964,319.6661 1303.3189,309.4218 C1297.5867,319.9533 1287.1931,319.3667 1281.9708,308.9033 C1275.2968,320.8713 1264.3552,321.5782 1257.9222,308.6704 C1249.6829,317.5515 1242.3695,318.6094 1235.1567,307.5013 C1229.6141,318.2203 1221.4243,318.1987 1214.5463,308.8746 C1208.5265,317.7334 1199.8179,318.6522 1194.5562,308.0942 C1188.1336,317.9102 1178.2343,320.7414 1170.8594,309.1482 C1164.8504,320.0441 1154.8259,317.8162 1149.855,308.0908 C1138.3176,304.5835 1137.8389,296.5857 1145.6865,288.8735 C1137.0062,283.1009 1134.2498,275.6727 1144.288,268.6083 C1135.905,260.3746 1135.0798,250.4869 1147.7179,245.3537 C1140.0123,240.8895 1139.927,232.5755 1148.0917,228.4625 " fill="none" style="stroke:#181818;stroke-width:1.0;"/><text fill="#000000" font-family="sans-serif" font-size="14" font-weight="bold" lengthAdjust="spacing" textLength="50.0596" x="1275.9702" y="243.0234">GitHub</text></g><!--cluster sc--><g id="cluster_sc"><path d="M1725.4433,49.9802 C1731.3399,41.5071 1739.1587,41.48 1743.3579,51.6144 C1747.5695,41.2885 1754.4044,40.8976 1761.4167,48.8469 C1767.1398,42.6057 1772.8266,41.0812 1777.6124,49.8578 C1783.5181,40.6011 1789.2238,40.3503 1796.2565,48.6619 C1800.9789,40.6556 1805.9735,41.3537 1811.0999,48.2597 C1817.2085,38.2826 1823.5639,38.2701 1830.6546,47.2465 C1836.505,40.0215 1842.0443,40.8338 1845.3928,49.5583 C1851.6903,42.2652 1857.0272,42.847 1862.8964,50.0746 C1868.6829,43.1825 1874.7071,42.94 1879.9013,50.7592 C1884.2387,41.7452 1892.2586,42.4721 1897.1391,50.2001 C1903.3087,41.0679 1911.1,43.0609 1915.5748,51.9353 C1924.8802,44.3398 1932.4982,45.3495 1938,56.4883 C1939.2732,56.384 1939.8512,57.247 1939.275,58.3855 C1948.9536,61.2261 1948.4502,69.1704 1942.0598,74.7461 C1949.4394,76.8165 1950.3016,82.8096 1945.1195,87.8198 C1953.2732,92.5679 1952.0851,100.5232 1944.7929,104.9773 C1951.1374,110.256 1951.4554,114.7983 1943.9043,119.2094 C1950.0529,125.4427 1950.5648,130.3268 1941.999,134.7568 C1948.4375,146.9522 1945.3533,154.8163 1931,156.4883 C1931.609,155.6779 1932.4685,155.7832 1932.9717,156.6152 C1929.9424,164.3074 1922.8631,165.7888 1916.9151,160.1238 C1914.1351,167.0753 1907.9841,167.3772 1903.9392,161.3925 C1898.6889,168.7175 1892.8809,168.4513 1887.2345,161.8683 C1882.8045,169.1129 1876.4707,168.8657 1872.6995,161.225 C1869.842,167.6528 1864.5125,168.0233 1859.7521,163.4682 C1855.4973,170.7789 1849.5764,172.8315 1843.578,165.3783 C1839.4823,173.112 1834.9862,172.3713 1829.8557,166.4156 C1824.5961,174.2481 1817.9345,172.9739 1814.1432,164.9597 C1808.6119,170.7979 1803.9008,170.6054 1799.1983,163.9669 C1794.2791,169.9288 1789.1342,170.0579 1784.5385,163.5853 C1779.0027,170.237 1772.3409,167.6626 1769.325,160.7573 C1765.6489,167.4917 1759.9426,167.0631 1756.6622,160.3838 C1750.7549,166.1619 1744.1326,167.1857 1740.7414,157.7507 C1729.5257,164.9514 1721.1706,164.4307 1718,149.4883 C1719.0729,148.936 1719.8445,149.6321 1719.7937,150.7184 C1712.5596,148.3884 1710.8956,141.8787 1716.89,136.7909 C1708.4165,132.6878 1708.2988,123.6554 1715.9598,118.7217 C1710.6205,114.3815 1709.5758,109.3856 1716.2106,105.2687 C1709.176,99.9669 1710.0261,93.6056 1718.1156,90.2181 C1709.2137,84.6541 1710.7496,79.6936 1717.8781,73.8964 C1708.1023,63.6412 1712.2329,53.1658 1725,49.4883 C1725.3267,49.4324 1725.5593,49.6371 1725.4433,49.9802 " fill="none" style="stroke:#181818;stroke-width:1.0;"/><text fill="#000000" font-family="sans-serif" font-size="14" font-weight="bold" lengthAdjust="spacing" textLength="198.8369" x="1728.5815" y="68.0234">Streamlit Community Cloud</text><text fill="#000000" font-family="sans-serif" font-size="14" font-weight="bold" lengthAdjust="spacing" textLength="69.7402" x="1793.1299" y="84.5117">(optional)</text></g><!--cluster ext--><g id="cluster_ext"><polygon fill="none" points="120,54.4883,130,44.4883,914,44.4883,914,146.4883,904,156.4883,120,156.4883,120,54.4883" style="stroke:#181818;stroke-width:1.0;"/><line style="stroke:#181818;stroke-width:1.0;" x1="904" x2="914" y1="54.4883" y2="44.4883"/><line style="stroke:#181818;stroke-width:1.0;" x1="120" x2="904" y1="54.4883" y2="54.4883"/><line style="stroke:#181818;stroke-width:1.0;" x1="904" x2="904" y1="54.4883" y2="156.4883"/><text fill="#000000" font-family="sans-serif" font-size="14" font-weight="bold" lengthAdjust="spacing" textLength="122.876" x="451.562" y="71.0234">External systems</text><text fill="#000000" font-family="sans-serif" font-size="14" font-weight="bold" lengthAdjust="spacing" textLength="164.9102" x="430.5449" y="87.5117">(not this repo runtime)</text></g><g id="elem_GMN26"><path d="M6,246.4883 L6,302.4199 L266.186,302.4199 L266.186,256.4883 L256.186,246.4883 L6,246.4883 " fill="#FEFFDD" style="stroke:#181818;stroke-width:0.5;"/><path d="M256.186,246.4883 L256.186,256.4883 L266.186,256.4883 L256.186,246.4883 " fill="#FEFFDD" style="stroke:#181818;stroke-width:1.0;"/><text fill="#000000" font-family="sans-serif" font-size="13" lengthAdjust="spacing" textLength="56.1196" x="12" y="264.0566">Streamlit</text><text fill="#000000" font-family="sans-serif" font-size="13" font-weight="bold" lengthAdjust="spacing" textLength="37.394" x="72.2329" y="264.0566">never</text><text fill="#000000" font-family="sans-serif" font-size="13" lengthAdjust="spacing" textLength="97.811" x="113.7402" y="264.0566">runs full AODT,</text><text fill="#000000" font-family="sans-serif" font-size="13" lengthAdjust="spacing" textLength="188.8237" x="12" y="279.3672">pyAerial PHY, or OTA capture.</text><text fill="#000000" font-family="sans-serif" font-size="13" lengthAdjust="spacing" textLength="8.6074" x="12" y="294.6777">It</text><text fill="#000000" font-family="sans-serif" font-size="13" font-weight="bold" lengthAdjust="spacing" textLength="36.1372" x="24.7207" y="294.6777">loads</text><text fill="#000000" font-family="sans-serif" font-size="13" lengthAdjust="spacing" textLength="186.2148" x="64.9712" y="294.6777">JSON/GeoJSON when present.</text></g><!--entity py--><g id="elem_py"><rect fill="#F1F1F1" height="55.9766" rx="2.5" ry="2.5" style="stroke:#181818;stroke-width:0.5;" width="198.0205" x="930" y="92.4883"/><polygon fill="#F1F1F1" points="1111.0205,97.4883,1111.0205,111.4883,1123.0205,111.4883,1123.0205,103.4883,1117.0205,97.4883,1111.0205,97.4883" style="stroke:#181818;stroke-width:0.5;"/><line style="stroke:#181818;stroke-width:0.5;" x1="1117.0205" x2="1117.0205" y1="97.4883" y2="103.4883"/><line style="stroke:#181818;stroke-width:0.5;" x1="1123.0205" x2="1117.0205" y1="103.4883" y2="103.4883"/><text fill="#000000" font-family="sans-serif" font-size="14" lengthAdjust="spacing" textLength="112.0068" x="940" y="119.0234">Local Python 3.x</text><text fill="#000000" font-family="sans-serif" font-size="14" lengthAdjust="spacing" textLength="168.0205" x="940" y="135.5117">PYTHONPATH=repo root</text></g><!--entity stl--><g id="elem_stl"><rect fill="#F1F1F1" height="39.4883" rx="2.5" ry="2.5" style="stroke:#181818;stroke-width:0.5;" width="274.7744" x="1146.5" y="100.9883"/><polygon fill="#F1F1F1" points="1404.2744,105.9883,1404.2744,119.9883,1416.2744,119.9883,1416.2744,111.9883,1410.2744,105.9883,1404.2744,105.9883" style="stroke:#181818;stroke-width:0.5;"/><line style="stroke:#181818;stroke-width:0.5;" x1="1410.2744" x2="1410.2744" y1="105.9883" y2="111.9883"/><line style="stroke:#181818;stroke-width:0.5;" x1="1416.2744" x2="1410.2744" y1="111.9883" y2="111.9883"/><text fill="#000000" font-family="sans-serif" font-size="14" lengthAdjust="spacing" textLength="244.7744" x="1156.5" y="127.5234">streamlit run apps/streamlit_app.py</text></g><!--entity scr--><g id="elem_scr"><rect fill="#F1F1F1" height="55.9766" rx="2.5" ry="2.5" style="stroke:#181818;stroke-width:0.5;" width="219.8408" x="1440" y="92.4883"/><polygon fill="#F1F1F1" points="1642.8408,97.4883,1642.8408,111.4883,1654.8408,111.4883,1654.8408,103.4883,1648.8408,97.4883,1642.8408,97.4883" style="stroke:#181818;stroke-width:0.5;"/><line style="stroke:#181818;stroke-width:0.5;" x1="1648.8408" x2="1648.8408" y1="97.4883" y2="103.4883"/><line style="stroke:#181818;stroke-width:0.5;" x1="1654.8408" x2="1648.8408" y1="103.4883" y2="103.4883"/><text fill="#000000" font-family="sans-serif" font-size="14" lengthAdjust="spacing" textLength="148.0117" x="1450" y="119.0234">scripts/*.py exports /</text><text fill="#000000" font-family="sans-serif" font-size="14" lengthAdjust="spacing" textLength="189.8408" x="1450" y="135.5117">validate_simulation_exports</text></g><!--entity repo--><g id="elem_repo"><path d="M1147.5,253.4883 C1147.5,243.4883 1284.2041,243.4883 1284.2041,243.4883 C1284.2041,243.4883 1420.9082,243.4883 1420.9082,253.4883 L1420.9082,295.4648 C1420.9082,305.4648 1284.2041,305.4648 1284.2041,305.4648 C1284.2041,305.4648 1147.5,305.4648 1147.5,295.4648 L1147.5,253.4883 " fill="#F1F1F1" style="stroke:#181818;stroke-width:0.5;"/><path d="M1147.5,253.4883 C1147.5,263.4883 1284.2041,263.4883 1284.2041,263.4883 C1284.2041,263.4883 1420.9082,263.4883 1420.9082,253.4883 " fill="none" style="stroke:#181818;stroke-width:0.5;"/><text fill="#000000" font-family="sans-serif" font-size="14" lengthAdjust="spacing" textLength="253.4082" x="1157.5" y="281.0234">gunnchOS3k/spectrumx-ai-ran-gary</text><text fill="#000000" font-family="sans-serif" font-size="14" lengthAdjust="spacing" textLength="222.291" x="1157.5" y="297.5117">source + docs/uml + examples/</text></g><!--entity hosted--><g id="elem_hosted"><rect fill="#F1F1F1" height="72.4648" rx="2.5" ry="2.5" style="stroke:#181818;stroke-width:0.5;" width="186.4473" x="1718" y="84.4883"/><polygon fill="#F1F1F1" points="1887.4473,89.4883,1887.4473,103.4883,1899.4473,103.4883,1899.4473,95.4883,1893.4473,89.4883,1887.4473,89.4883" style="stroke:#181818;stroke-width:0.5;"/><line style="stroke:#181818;stroke-width:0.5;" x1="1893.4473" x2="1893.4473" y1="89.4883" y2="95.4883"/><line style="stroke:#181818;stroke-width:0.5;" x1="1899.4473" x2="1893.4473" y1="95.4883" y2="95.4883"/><text fill="#000000" font-family="sans-serif" font-size="14" lengthAdjust="spacing" textLength="112.7383" x="1728" y="111.0234">Hosted Streamlit</text><text fill="#000000" font-family="sans-serif" font-size="14" lengthAdjust="spacing" textLength="156.4473" x="1728" y="127.5117">synthetic demo IQ only</text><text fill="#000000" font-family="sans-serif" font-size="14" lengthAdjust="spacing" textLength="122.3633" x="1728" y="144">no competition IQ</text></g><!--entity sds--><g id="elem_sds"><rect fill="#F1F1F1" height="55.9766" rx="2.5" ry="2.5" style="stroke:#181818;stroke-width:0.5;" width="144.5771" x="511.5" y="92.4883"/><polygon fill="#F1F1F1" points="639.0771,97.4883,639.0771,111.4883,651.0771,111.4883,651.0771,103.4883,645.0771,97.4883,639.0771,97.4883" style="stroke:#181818;stroke-width:0.5;"/><line style="stroke:#181818;stroke-width:0.5;" x1="645.0771" x2="645.0771" y1="97.4883" y2="103.4883"/><line style="stroke:#181818;stroke-width:0.5;" x1="651.0771" x2="645.0771" y1="103.4883" y2="103.4883"/><text fill="#000000" font-family="sans-serif" font-size="14" lengthAdjust="spacing" textLength="114.5771" x="521.5" y="119.0234">SpectrumX SDS /</text><text fill="#000000" font-family="sans-serif" font-size="14" lengthAdjust="spacing" textLength="96.332" x="521.5" y="135.5117">organizer eval</text></g><!--entity gpu--><g id="elem_gpu"><rect fill="#F1F1F1" height="55.9766" rx="2.5" ry="2.5" style="stroke:#181818;stroke-width:0.5;" width="231.0381" x="674.5" y="92.4883"/><polygon fill="#F1F1F1" points="888.5381,97.4883,888.5381,111.4883,900.5381,111.4883,900.5381,103.4883,894.5381,97.4883,888.5381,97.4883" style="stroke:#181818;stroke-width:0.5;"/><line style="stroke:#181818;stroke-width:0.5;" x1="894.5381" x2="894.5381" y1="97.4883" y2="103.4883"/><line style="stroke:#181818;stroke-width:0.5;" x1="900.5381" x2="894.5381" y1="103.4883" y2="103.4883"/><text fill="#000000" font-family="sans-serif" font-size="14" lengthAdjust="spacing" textLength="89.5645" x="684.5" y="119.0234">GPU cluster /</text><text fill="#000000" font-family="sans-serif" font-size="14" lengthAdjust="spacing" textLength="201.0381" x="684.5" y="135.5117">Sionna / DeepMIMO full solve</text></g><!--entity aodt--><g id="elem_aodt"><rect fill="#F1F1F1" height="55.9766" rx="2.5" ry="2.5" style="stroke:#181818;stroke-width:0.5;" width="170.2393" x="162" y="92.4883"/><polygon fill="#F1F1F1" points="315.2393,97.4883,315.2393,111.4883,327.2393,111.4883,327.2393,103.4883,321.2393,97.4883,315.2393,97.4883" style="stroke:#181818;stroke-width:0.5;"/><line style="stroke:#181818;stroke-width:0.5;" x1="321.2393" x2="321.2393" y1="97.4883" y2="103.4883"/><line style="stroke:#181818;stroke-width:0.5;" x1="327.2393" x2="321.2393" y1="103.4883" y2="103.4883"/><text fill="#000000" font-family="sans-serif" font-size="14" lengthAdjust="spacing" textLength="140.2393" x="172" y="119.0234">AODT / Omniverse /</text><text fill="#000000" font-family="sans-serif" font-size="14" lengthAdjust="spacing" textLength="91.3896" x="172" y="135.5117">Aerial tooling</text></g><!--entity ota--><g id="elem_ota"><rect fill="#F1F1F1" height="39.4883" rx="2.5" ry="2.5" style="stroke:#181818;stroke-width:0.5;" width="143.4219" x="350.5" y="100.9883"/><polygon fill="#F1F1F1" points="476.9219,105.9883,476.9219,119.9883,488.9219,119.9883,488.9219,111.9883,482.9219,105.9883,476.9219,105.9883" style="stroke:#181818;stroke-width:0.5;"/><line style="stroke:#181818;stroke-width:0.5;" x1="482.9219" x2="482.9219" y1="105.9883" y2="111.9883"/><line style="stroke:#181818;stroke-width:0.5;" x1="488.9219" x2="482.9219" y1="111.9883" y2="111.9883"/><text fill="#000000" font-family="sans-serif" font-size="14" lengthAdjust="spacing" textLength="113.4219" x="360.5" y="127.5234">Lab OTA capture</text></g><polygon fill="#181818" points="1463.1929,245.9162,1471.4819,240.5971,1465.9416,241.7395,1464.7991,236.1992,1463.1929,245.9162" style="stroke:#181818;stroke-width:1.0;"/><path d="M1676.3321,156.5854 C1676.278,156.6674 1676.2236,156.7491 1676.1689,156.8306 C1675.9501,157.1566 1675.7264,157.4789 1675.4977,157.7971 C1673.6685,160.3434 1671.5211,162.632 1669,164.4883 C1645.1328,182.0617 1562.6001,161.4153 1536,174.4883 C1515.8801,184.3764 1498.2296,200.9847 1484.0657,217.8007 C1476.9838,226.2088 1470.7735,234.6688 1465.5621,242.3667 C1464.9107,243.329 1464.2749,244.2793 1463.6549,245.2162 C1463.4999,245.4504 1466.6443,240.6717 1466.4913,240.9042 " fill="none" style="stroke:#181818;stroke-width:1.0;"/><text fill="#000000" font-family="sans-serif" font-size="13" lengthAdjust="spacing" textLength="100.5405" x="1538" y="196.5566">git push / clone</text><polygon fill="#181818" points="1916.5804,164.7176,1909.2444,171.2889,1914.532,169.2787,1916.5422,174.5663,1916.5804,164.7176" style="stroke:#181818;stroke-width:1.0;"/><path d="M1463.22,272.754 C1463.5059,272.7401 1463.7953,272.7259 1464.088,272.7115 C1465.259,272.6539 1466.4845,272.593 1467.7628,272.5285 C1472.8758,272.2707 1478.8327,271.9572 1485.5192,271.5836 C1498.8922,270.8365 1515.1838,269.8491 1533.4802,268.5862 C1570.0731,266.0605 1614.6856,262.4327 1660.0086,257.421 C1750.6546,247.3976 1844.1427,231.8385 1882,208.4883 C1895.8748,199.9304 1906.0468,185.8356 1913.359,171.4578 C1914.2731,169.6606 1915.1424,167.859 1915.9687,166.0632 C1916.1753,165.6142 1913.9211,170.639 1914.1223,170.1909 " fill="none" style="stroke:#181818;stroke-width:1.0;"/><text fill="#000000" font-family="sans-serif" font-size="13" lengthAdjust="spacing" textLength="77.8921" x="1913" y="196.5566">deploy hook</text><polygon fill="#181818" points="1346.8557,243.3514,1356.7025,243.5532,1351.4654,241.4148,1353.6038,236.1777,1346.8557,243.3514" style="stroke:#181818;stroke-width:1.0;"/><path d="M1913,164.4883 C1891.246,181.9761 1874.3745,159.234 1851,174.4883 C1835.9271,184.3249 1844.7234,199.729 1829,208.4883 C1809.6316,219.2782 1451.7461,212.1677 1430,216.4883 C1401.8433,222.0826 1377.6298,230.4225 1352.3873,241.0275 " fill="none" style="stroke:#181818;stroke-width:1.0;"/><text fill="#000000" font-family="sans-serif" font-size="13" lengthAdjust="spacing" textLength="23.7656" x="1853" y="196.5566">pull</text><polygon fill="#181818" points="1347.2684,243.4641,1357.1148,243.6841,1351.8817,241.536,1354.0298,236.3028,1347.2684,243.4641" style="stroke:#181818;stroke-width:1.0;"/><path d="M1737.7572,156.491 C1725.7589,162.3998 1713.4958,168.5459 1702,174.4883 C1674.0823,188.9194 1670.2897,200.1106 1640,208.4883 C1594.9894,220.9376 1475.7213,206.975 1430,216.4883 C1402.0281,222.3084 1377.9765,230.6295 1352.8044,241.1503 " fill="none" style="stroke:#181818;stroke-width:1.0;"/><text fill="#000000" font-family="sans-serif" font-size="13" lengthAdjust="spacing" textLength="123.3032" x="1704" y="196.5566">read-only checkout</text><polygon fill="#181818" points="1233.5631,243.4239,1227.8804,235.3799,1229.2682,240.8638,1223.7842,242.2517,1233.5631,243.4239" style="stroke:#181818;stroke-width:1.0;"/><path d="M1074.5889,148.6628 C1119.2847,175.3051 1182.116,212.7574 1228.4092,240.3518 " fill="none" style="stroke:#181818;stroke-width:1.0;"/><polygon fill="#181818" points="1284,243.4239,1288,234.4239,1284,238.4239,1280,234.4239,1284,243.4239" style="stroke:#181818;stroke-width:1.0;"/><path d="M1284,140.1265 C1284,165.8906 1284,206.6815 1284,237.4239 " fill="none" style="stroke:#181818;stroke-width:1.0;"/><polygon fill="#181818" points="1336.6126,243.4239,1346.4114,242.4316,1340.9538,240.9432,1342.4423,235.4857,1336.6126,243.4239" style="stroke:#181818;stroke-width:1.0;"/><path d="M1502.4445,148.6628 C1455.8206,175.3051 1390.1123,212.8527 1341.8221,240.4471 " fill="none" style="stroke:#181818;stroke-width:1.0;"/><polygon fill="#181818" points="631.3528,148.6837,637.3902,156.465,635.7581,151.0488,641.1744,149.4166,631.3528,148.6837" style="stroke:#181818;stroke-width:1.0;"/><path d="M1147.4639,265.4779 C1043.9462,257.1478 898.8518,240.6094 775,208.4883 C723.6811,195.1787 674.2845,171.7326 636.6391,151.5218 " fill="none" style="stroke:#181818;stroke-width:1.0;stroke-dasharray:7.0,7.0;"/><text fill="#000000" font-family="sans-serif" font-size="13" lengthAdjust="spacing" textLength="111.6045" x="777" y="189.0566">dataset download</text><text fill="#000000" font-family="sans-serif" font-size="13" lengthAdjust="spacing" textLength="60.0552" x="802.7747" y="204.3672">local only</text><polygon fill="#181818" points="1147.3556,251.4438,1139.2839,245.8003,1142.4474,250.4899,1137.7578,253.6534,1147.3556,251.4438" style="stroke:#181818;stroke-width:1.0;"/><path d="M839.919,148.5078 C876.8758,167.5632 928.9382,192.4517 977,208.4883 C1031.6508,226.7234 1087.6473,239.8402 1141.4658,250.2992 " fill="none" style="stroke:#181818;stroke-width:1.0;stroke-dasharray:7.0,7.0;"/><text fill="#000000" font-family="sans-serif" font-size="13" lengthAdjust="spacing" textLength="103.2192" x="994.4724" y="189.0566">writes manifests</text><text fill="#000000" font-family="sans-serif" font-size="13" lengthAdjust="spacing" textLength="134.1641" x="979" y="204.3672">to data/ or CI artifact</text><polygon fill="#181818" points="1147.3931,273.4155,1138.4243,269.3461,1142.3932,273.3769,1138.3624,277.3458,1147.3931,273.4155" style="stroke:#181818;stroke-width:1.0;"/><path d="M273.2206,148.7599 C294.6976,169.155 326.9949,195.6464 361,208.4883 C501.0429,261.3748 920.3878,271.6608 1141.3933,273.3691 " fill="none" style="stroke:#181818;stroke-width:1.0;stroke-dasharray:7.0,7.0;"/><text fill="#000000" font-family="sans-serif" font-size="13" lengthAdjust="spacing" textLength="121.3989" x="363" y="196.5566">exports summaries</text><polygon fill="#181818" points="1147.1958,269.2803,1138.3556,264.9384,1142.1994,269.0887,1138.0491,272.9325,1147.1958,269.2803" style="stroke:#181818;stroke-width:1.0;"/><path d="M443.0777,140.2464 C467.7368,160.9641 510.724,193.3855 554,208.4883 C660.0165,245.4868 960.8529,262.1354 1141.2002,269.0504 " fill="none" style="stroke:#181818;stroke-width:1.0;stroke-dasharray:7.0,7.0;"/><text fill="#000000" font-family="sans-serif" font-size="13" lengthAdjust="spacing" textLength="122.5732" x="556" y="196.5566">OTA lake manifests</text><path d="M136,156.8263 C136,157.1134 136,157.4017 136,157.6909 C136,158.2695 136,158.8524 136,159.4393 C136,160.6132 136,161.8034 136,163.0082 C136,165.418 136,167.8864 136,170.4003 C136,175.4281 136,180.6379 136,185.9241 C136,207.0691 136,229.4369 136,246.2726 " fill="none" style="stroke:#181818;stroke-width:1.0;stroke-dasharray:7.0,7.0;"/><!--SRC=[NLJ1Rjiu4BtpAsPpQjtQElGMO0i4yIBsObkxS1PeWG01GqqimYI788UEjKM1VaI_i5-oGybDx9uaSUOD7zzxr1ynwQtNu7HFXI5xP1sqOiiEOOxHKUynCFpy_WDCIQc-um5DOKi1SacFsc26Lnq5pFnQgK0jmiKSz-WeOe96skLfwnJvVAAqowmh-W9qXXRty5K1wCHMHZ5S_4D6ErZtB2FXtUnm5zPVRXUhZ-khsyMV2ID18k817FipPEQ4sZlBa4e07MDkdfVkvNCM-m6MsPtZJBAHSpEHXigM4cTexi9UEzjgnljiVN43v_jZUPnZalgcb75KMhYuiRme3qDXsmrd4gn-q5das9OGJBVQlDirEQBXLFnXgkqqwJ3TwjJVXKmb6OGtq9B9JV5ENl6WVNIOcs5eFVh9TfldmrwJzoLOxk6wbkx2AugLgtQlZpH_KtX1cR65vmcoUn-uGxP6_F04oqz0mGchG638HwaCTYy_3GEx0L-vZ6R_TH1dPJl8lHHy5WQ16BYp8-jg1qi0HZfuuD_uR8wIV8RDV5E5fxJLmVudSK7nO3n4cyymD-j_mRYIQwO4iH5wGKlOveZnm_B32XwB4qBazZXQ4iiP_cerlvNsbGzsZqayaY5N4bCv1HCv6xO3J5FBv-dK3x2wlGAZ8vSqpYRMLOmQvUdqVNN_4hPYJ2ovapt4i81ALcjHpBWKaUkz4XrffsIXhWywNGh4EJNgUxeiHhNJQWcO3irERgfIajLV7KeIVV9Xqik76YRCPk-hWdLhoMH6bfWz1KTQqkA6-rQ7An5fQ3tk-fGioztsuiMZN6xnbMaOq00bk5u-owAgJAV8NvSe5-zrifYLQ7JQK2LqUeSlmskO6E61cCa3FTQSYF8lCPzCWlnKqcHIuvH7VwkBRwKhzaVlreilRokv4ujcKbzMU3rk5lZVczN7vWQfFk6fmm0nOPRVqqnXQA7IKFy3]--></g></svg>