<svg xmlns="http://www.w3.org/2000/svg" xmlns:xlink="http://www.w3.org/1999/xlink" contentStyleType="text/css" height="893px" preserveAspectRatio="none" style="width:956px;height:893px;background:#FFFFFF;" version="1.1" viewBox="0 0 956 893" width="956px" zoomAndPan="magnify"><title>Sequence &#8212; scenario to KPI (current extension, rule-based controller)</title><defs/><g><text fill="#000000" font-family="sans-serif" font-size="14" font-weight="bold" lengthAdjust="spacing" textLength="504.1025" x="224.9575" y="28.5352">Sequence &#8212; scenario to KPI (current extension, rule-based controller)</text><line style="stroke:#181818;stroke-width:0.5;stroke-dasharray:5.0,5.0;" x1="23" x2="23" y1="118.9766" y2="812.9824"/><line style="stroke:#181818;stroke-width:0.5;stroke-dasharray:5.0,5.0;" x1="206.5918" x2="206.5918" y1="118.9766" y2="812.9824"/><line style="stroke:#181818;stroke-width:0.5;stroke-dasharray:5.0,5.0;" x1="410.9375" x2="410.9375" y1="118.9766" y2="812.9824"/><line style="stroke:#181818;stroke-width:0.5;stroke-dasharray:5.0,5.0;" x1="564.0967" x2="564.0967" y1="118.9766" y2="812.9824"/><line style="stroke:#181818;stroke-width:0.5;stroke-dasharray:5.0,5.0;" x1="703.1289" x2="703.1289" y1="118.9766" y2="812.9824"/><line style="stroke:#181818;stroke-width:0.5;stroke-dasharray:5.0,5.0;" x1="864.4609" x2="864.4609" y1="118.9766" y2="812.9824"/><text fill="#000000" font-family="sans-serif" font-size="14" lengthAdjust="spacing" textLength="30.3652" x="5" y="116.0234">User</text><ellipse cx="23.1826" cy="50.9883" fill="#E2E2F0" rx="8" ry="8" style="stroke:#181818;stroke-width:0.5;"/><path d="M23.1826,58.9883 L23.1826,85.9883 M10.1826,66.9883 L36.1826,66.9883 M23.1826,85.9883 L10.1826,100.9883 M23.1826,85.9883 L36.1826,100.9883 " fill="none" style="stroke:#181818;stroke-width:0.5;"/><text fill="#000000" font-family="sans-serif" font-size="14" lengthAdjust="spacing" textLength="30.3652" x="5" y="825.5176">User</text><ellipse cx="23.1826" cy="836.9707" fill="#E2E2F0" rx="8" ry="8" style="stroke:#181818;stroke-width:0.5;"/><path d="M23.1826,844.9707 L23.1826,871.9707 M10.1826,852.9707 L36.1826,852.9707 M23.1826,871.9707 L10.1826,886.9707 M23.1826,871.9707 L36.1826,886.9707 " fill="none" style="stroke:#181818;stroke-width:0.5;"/><rect fill="#E2E2F0" height="46.9766" rx="2.5" ry="2.5" style="stroke:#181818;stroke-width:0.5;" width="115.9033" x="149.5918" y="71"/><text fill="#000000" font-family="sans-serif" font-size="14" lengthAdjust="spacing" textLength="60.4365" x="177.3252" y="91.5352">Streamlit</text><text fill="#000000" font-family="sans-serif" font-size="14" lengthAdjust="spacing" textLength="101.9033" x="156.5918" y="108.0234">Gary extension</text><rect fill="#E2E2F0" height="46.9766" rx="2.5" ry="2.5" style="stroke:#181818;stroke-width:0.5;" width="115.9033" x="149.5918" y="811.9824"/><text fill="#000000" font-family="sans-serif" font-size="14" lengthAdjust="spacing" textLength="60.4365" x="177.3252" y="832.5176">Streamlit</text><text fill="#000000" font-family="sans-serif" font-size="14" lengthAdjust="spacing" textLength="101.9033" x="156.5918" y="849.0059">Gary extension</text><rect fill="#E2E2F0" height="30.4883" rx="2.5" ry="2.5" style="stroke:#181818;stroke-width:0.5;" width="160.1592" x="330.9375" y="87.4883"/><text fill="#000000" font-family="sans-serif" font-size="14" lengthAdjust="spacing" textLength="146.1592" x="337.9375" y="108.0234">gary_scenario_engine</text><rect fill="#E2E2F0" height="30.4883" rx="2.5" ry="2.5" style="stroke:#181818;stroke-width:0.5;" width="160.1592" x="330.9375" y="811.9824"/><text fill="#000000" font-family="sans-serif" font-size="14" lengthAdjust="spacing" textLength="146.1592" x="337.9375" y="832.5176">gary_scenario_engine</text><rect fill="#E2E2F0" height="46.9766" rx="2.5" ry="2.5" style="stroke:#181818;stroke-width:0.5;" width="127.0322" x="501.0967" y="71"/><text fill="#000000" font-family="sans-serif" font-size="14" lengthAdjust="spacing" textLength="113.0322" x="508.0967" y="91.5352">Detector session</text><text fill="#000000" font-family="sans-serif" font-size="14" lengthAdjust="spacing" textLength="89.7627" x="519.7314" y="108.0234">(synthetic IQ)</text><rect fill="#E2E2F0" height="46.9766" rx="2.5" ry="2.5" style="stroke:#181818;stroke-width:0.5;" width="127.0322" x="501.0967" y="811.9824"/><text fill="#000000" font-family="sans-serif" font-size="14" lengthAdjust="spacing" textLength="113.0322" x="508.0967" y="832.5176">Detector session</text><text fill="#000000" font-family="sans-serif" font-size="14" lengthAdjust="spacing" textLength="89.7627" x="519.7314" y="849.0059">(synthetic IQ)</text><rect fill="#E2E2F0" height="46.9766" rx="2.5" ry="2.5" style="stroke:#181818;stroke-width:0.5;" width="131.332" x="638.1289" y="71"/><text fill="#000000" font-family="sans-serif" font-size="14" lengthAdjust="spacing" textLength="117.332" x="645.1289" y="91.5352">Simulation hooks</text><text fill="#000000" font-family="sans-serif" font-size="14" lengthAdjust="spacing" textLength="64.8662" x="671.3618" y="108.0234">(optional)</text><rect fill="#E2E2F0" height="46.9766" rx="2.5" ry="2.5" style="stroke:#181818;stroke-width:0.5;" width="131.332" x="638.1289" y="811.9824"/><text fill="#000000" font-family="sans-serif" font-size="14" lengthAdjust="spacing" textLength="117.332" x="645.1289" y="832.5176">Simulation hooks</text><text fill="#000000" font-family="sans-serif" font-size="14" lengthAdjust="spacing" textLength="64.8662" x="671.3618" y="849.0059">(optional)</text><rect fill="#E2E2F0" height="30.4883" rx="2.5" ry="2.5" style="stroke:#181818;stroke-width:0.5;" width="170.5566" x="779.4609" y="87.4883"/><text fill="#000000" font-family="sans-serif" font-size="14" lengthAdjust="spacing" textLength="156.5566" x="786.4609" y="108.0234">simulation_provenance</text><rect fill="#E2E2F0" height="30.4883" rx="2.5" ry="2.5" style="stroke:#181818;stroke-width:0.5;" width="170.5566" x="779.4609" y="811.9824"/><text fill="#000000" font-family="sans-serif" font-size="14" lengthAdjust="spacing" textLength="156.5566" x="786.4609" y="832.5176">simulation_provenance</text><polygon fill="#181818" points="195.5435,161.5977,205.5435,165.5977,195.5435,169.5977,199.5435,165.5977" style="stroke:#181818;stroke-width:1.0;"/><line style="stroke:#181818;stroke-width:1.0;" x1="23.1826" x2="201.5435" y1="165.5977" y2="165.5977"/><text fill="#000000" font-family="sans-serif" font-size="13" lengthAdjust="spacing" textLength="84.1572" x="30.1826" y="145.5449">Select anchor</text><text fill="#000000" font-family="sans-serif" font-size="13" lengthAdjust="spacing" textLength="160.3608" x="30.1826" y="160.8555">City Hall / Library / WSLA</text><polygon fill="#181818" points="195.5435,206.2188,205.5435,210.2188,195.5435,214.2188,199.5435,210.2188" style="stroke:#181818;stroke-width:1.0;"/><line style="stroke:#181818;stroke-width:1.0;" x1="23.1826" x2="201.5435" y1="210.2188" y2="210.2188"/><text fill="#000000" font-family="sans-serif" font-size="13" lengthAdjust="spacing" textLength="94.8022" x="30.1826" y="190.166">Select preset +</text><text fill="#000000" font-family="sans-serif" font-size="13" lengthAdjust="spacing" textLength="128.7559" x="30.1826" y="205.4766">RF stress + calendar</text><polygon fill="#181818" points="399.0171,235.5293,409.0171,239.5293,399.0171,243.5293,403.0171,239.5293" style="stroke:#181818;stroke-width:1.0;"/><line style="stroke:#181818;stroke-width:1.0;" x1="207.5435" x2="405.0171" y1="239.5293" y2="239.5293"/><text fill="#000000" font-family="sans-serif" font-size="13" lengthAdjust="spacing" textLength="128.8257" x="214.5435" y="234.7871">build ScenarioInputs</text><polygon fill="#181818" points="399.0171,264.8398,409.0171,268.8398,399.0171,272.8398,403.0171,268.8398" style="stroke:#181818;stroke-width:1.0;"/><line style="stroke:#181818;stroke-width:1.0;" x1="207.5435" x2="405.0171" y1="268.8398" y2="268.8398"/><text fill="#000000" font-family="sans-serif" font-size="13" lengthAdjust="spacing" textLength="178.4644" x="214.5435" y="264.0977">compute_all_anchor_states()</text><polygon fill="#181818" points="218.5435,294.1504,208.5435,298.1504,218.5435,302.1504,214.5435,298.1504" style="stroke:#181818;stroke-width:1.0;"/><line style="stroke:#181818;stroke-width:1.0;stroke-dasharray:2.0,2.0;" x1="212.5435" x2="410.0171" y1="298.1504" y2="298.1504"/><text fill="#000000" font-family="sans-serif" font-size="13" lengthAdjust="spacing" textLength="179.4736" x="224.5435" y="293.4082">SiteScenarioState per anchor</text><polygon fill="#181818" points="691.7949,354.082,701.7949,358.082,691.7949,362.082,695.7949,358.082" style="stroke:#181818;stroke-width:1.0;"/><line style="stroke:#181818;stroke-width:1.0;" x1="207.5435" x2="697.7949" y1="358.082" y2="358.082"/><text fill="#000000" font-family="sans-serif" font-size="13" lengthAdjust="spacing" textLength="100.312" x="214.5435" y="322.7188">load summaries</text><text fill="#000000" font-family="sans-serif" font-size="13" lengthAdjust="spacing" textLength="188.7476" x="214.5435" y="338.0293">DeepMIMO / Sionna / AODT /</text><text fill="#000000" font-family="sans-serif" font-size="13" lengthAdjust="spacing" textLength="93.5327" x="214.5435" y="353.3398">pyAerial / OTA</text><polygon fill="#181818" points="218.5435,398.7031,208.5435,402.7031,218.5435,406.7031,214.5435,402.7031" style="stroke:#181818;stroke-width:1.0;"/><line style="stroke:#181818;stroke-width:1.0;stroke-dasharray:2.0,2.0;" x1="212.5435" x2="702.7949" y1="402.7031" y2="402.7031"/><text fill="#000000" font-family="sans-serif" font-size="13" lengthAdjust="spacing" textLength="65.8379" x="224.5435" y="382.6504">hook dicts</text><text fill="#000000" font-family="sans-serif" font-size="13" lengthAdjust="spacing" textLength="126.8008" x="224.5435" y="397.9609">(manifest or absent)</text><polygon fill="#181818" points="852.7393,428.0137,862.7393,432.0137,852.7393,436.0137,856.7393,432.0137" style="stroke:#181818;stroke-width:1.0;"/><line style="stroke:#181818;stroke-width:1.0;" x1="207.5435" x2="858.7393" y1="432.0137" y2="432.0137"/><text fill="#000000" font-family="sans-serif" font-size="13" lengthAdjust="spacing" textLength="171.8755" x="214.5435" y="427.2715">finalize_simulation_status()</text><polygon fill="#181818" points="218.5435,472.6348,208.5435,476.6348,218.5435,480.6348,214.5435,476.6348" style="stroke:#181818;stroke-width:1.0;"/><line style="stroke:#181818;stroke-width:1.0;stroke-dasharray:2.0,2.0;" x1="212.5435" x2="863.7393" y1="476.6348" y2="476.6348"/><text fill="#000000" font-family="sans-serif" font-size="13" lengthAdjust="spacing" textLength="132.9961" x="224.5435" y="456.582">canonical evidence +</text><text fill="#000000" font-family="sans-serif" font-size="13" lengthAdjust="spacing" textLength="102.7178" x="224.5435" y="471.8926">execution labels</text><polygon fill="#181818" points="552.6128,517.2559,562.6128,521.2559,552.6128,525.2559,556.6128,521.2559" style="stroke:#181818;stroke-width:1.0;"/><line style="stroke:#181818;stroke-width:1.0;" x1="207.5435" x2="558.6128" y1="521.2559" y2="521.2559"/><text fill="#000000" font-family="sans-serif" font-size="13" lengthAdjust="spacing" textLength="141.9336" x="214.5435" y="501.2031">read judge_live_pred /</text><text fill="#000000" font-family="sans-serif" font-size="13" lengthAdjust="spacing" textLength="132.9517" x="214.5435" y="516.5137">confidence if present</text><polygon fill="#181818" points="399.0171,561.877,409.0171,565.877,399.0171,569.877,403.0171,565.877" style="stroke:#181818;stroke-width:1.0;"/><line style="stroke:#181818;stroke-width:1.0;" x1="207.5435" x2="405.0171" y1="565.877" y2="565.877"/><text fill="#000000" font-family="sans-serif" font-size="13" lengthAdjust="spacing" textLength="162.7666" x="214.5435" y="545.8242">select_closed_loop_action</text><text fill="#000000" font-family="sans-serif" font-size="13" lengthAdjust="spacing" textLength="142.3652" x="214.5435" y="561.1348">(state, pred, conf, env)</text><polygon fill="#181818" points="218.5435,606.498,208.5435,610.498,218.5435,614.498,214.5435,610.498" style="stroke:#181818;stroke-width:1.0;"/><line style="stroke:#181818;stroke-width:1.0;stroke-dasharray:2.0,2.0;" x1="212.5435" x2="410.0171" y1="610.498" y2="610.498"/><text fill="#000000" font-family="sans-serif" font-size="13" lengthAdjust="spacing" textLength="78.7046" x="224.5435" y="590.4453">action key +</text><text fill="#000000" font-family="sans-serif" font-size="13" lengthAdjust="spacing" textLength="83.2749" x="224.5435" y="605.7559">reason string</text><polygon fill="#181818" points="399.0171,635.8086,409.0171,639.8086,399.0171,643.8086,403.0171,639.8086" style="stroke:#181818;stroke-width:1.0;"/><line style="stroke:#181818;stroke-width:1.0;" x1="207.5435" x2="405.0171" y1="639.8086" y2="639.8086"/><text fill="#000000" font-family="sans-serif" font-size="13" lengthAdjust="spacing" textLength="151.9121" x="214.5435" y="635.0664">apply_action_to_kpis(...)</text><polygon fill="#181818" points="218.5435,665.1191,208.5435,669.1191,218.5435,673.1191,214.5435,669.1191" style="stroke:#181818;stroke-width:1.0;"/><line style="stroke:#181818;stroke-width:1.0;stroke-dasharray:2.0,2.0;" x1="212.5435" x2="410.0171" y1="669.1191" y2="669.1191"/><text fill="#000000" font-family="sans-serif" font-size="13" lengthAdjust="spacing" textLength="126.6294" x="224.5435" y="664.377">updated KPI proxies</text><polygon fill="#181818" points="34.1826,709.7402,24.1826,713.7402,34.1826,717.7402,30.1826,713.7402" style="stroke:#181818;stroke-width:1.0;"/><line style="stroke:#181818;stroke-width:1.0;stroke-dasharray:2.0,2.0;" x1="28.1826" x2="206.5435" y1="713.7402" y2="713.7402"/><text fill="#000000" font-family="sans-serif" font-size="13" lengthAdjust="spacing" textLength="110.7158" x="40.1826" y="693.6875">Refresh pydeck +</text><text fill="#000000" font-family="sans-serif" font-size="13" lengthAdjust="spacing" textLength="142.5493" x="40.1826" y="708.998">panels + ecology layer</text><path d="M282,726.7402 L282,797.7402 L539,797.7402 L539,736.7402 L529,726.7402 L282,726.7402 " fill="#FEFFDD" style="stroke:#181818;stroke-width:0.5;"/><path d="M529,726.7402 L529,736.7402 L539,736.7402 L529,726.7402 " fill="#FEFFDD" style="stroke:#181818;stroke-width:0.5;"/><text fill="#000000" font-family="sans-serif" font-size="13" font-weight="bold" lengthAdjust="spacing" textLength="223.3994" x="288" y="744.3086">Detector-conditioned rule-based</text><text fill="#000000" font-family="sans-serif" font-size="13" font-weight="bold" lengthAdjust="spacing" textLength="185.0532" x="288" y="759.6191">closed-loop policy baseline</text><text fill="#000000" font-family="sans-serif" font-size="13" font-weight="bold" lengthAdjust="spacing" textLength="152.4897" x="288" y="774.9297">(RIC-style abstraction)</text><text fill="#000000" font-family="sans-serif" font-size="13" lengthAdjust="spacing" textLength="138.4551" x="288" y="790.2402">Heuristic KPI deltas &#8212;</text><text fill="#000000" font-family="sans-serif" font-size="13" font-weight="bold" lengthAdjust="spacing" textLength="22.1089" x="430.5684" y="790.2402">not</text><text fill="#000000" font-family="sans-serif" font-size="13" lengthAdjust="spacing" textLength="67.9897" x="456.7905" y="790.2402">trained RL.</text><!--SRC=[RLJ1Sjem4BtxAtPo0WV8FOVEC25Dc2QJ5AVjXHcFa1TG4P8goKpSKp-YNzWlwPDjICdqXl5xk_lUldLKKJCL_ADc8vd-_FfDGR8HNbcAbZuzpsaWQ-_PHEBNo2OeQqRaQytZbGXSaRGcUgir-s6M2Hcjfo-1VUQ4Zqeg9y2yAA9diTSgBisTyCrRgGiIWOgNS_G6aF8uHibcemotmBlYzXmvuyXjoy0XbLkQGMXCt38WDFyyR5cpstVr2xMljOZ0qzRQNG3BklGeTCSeve_dZ71YbCxR0oQ3MotqUV4rov9W6d-04Bg6cHep4H1RwvVcHiM6xeNMT4KFQkMJ_2lwLZnC_qjpdWD7kboQnKSAi2q4kYGfD9jA-0nG4E036AjQwOgAtgUvSNKCPm1fz_YFIpGlkt7A44NaC1Xc2J4-zLQHZtMAX227oJfArfU49q1gAoeAzNuFACEu6RDxd3y-GL81Tup0Z-dJx8MkbiOrK_PA9E5FBzCi5JXrJBvJfMHCvk-5KMiEaR18iGh8sh1l2dS1NYjiHltayfyr925r4f8Wfx9I66iKt28-gAgDD9paLvPrksujLgp3KHA20GwIMT7tkjfmgTM1iM2a6kCZsEk-XbftUp7npD_GhgoKsk8GIcsjAt40VGoJZQD4gqRfHjOZOdDuvtk7fXqtQKmC4l24fIkpEMiadDDDNxkCjjmv5GQJoUHTkTfLQ5grLukOlc93dLG0sgnTquBN4B8brrGiTwah0WvBa36MLjjD0uyQd6zcB6A0gFlsweZo_7XiOyYfL9e5lTw-17dUeZetniaDSbOhsL1whN73FMAmcD-CGspmuS6se-zq3Tktzrnx5TBr9X4LwuWRIr-bFCT0UKw0gzHtyJ39S1AKnip-0W00]--></g></svg>