<svg xmlns="http://www.w3.org/2000/svg" xmlns:xlink="http://www.w3.org/1999/xlink" contentStyleType="text/css" height="915px" preserveAspectRatio="none" style="width:811px;height:915px;background:#FFFFFF;" version="1.1" viewBox="0 0 811 915" width="811px" zoomAndPan="magnify"><title>Sequence &#8212; simulation manifest ingestion (no local full solver)</title><defs/><g><text fill="#000000" font-family="sans-serif" font-size="14" font-weight="bold" lengthAdjust="spacing" textLength="456.2646" x="176.8367" y="28.5352">Sequence &#8212; simulation manifest ingestion (no local full solver)</text><line style="stroke:#181818;stroke-width:0.5;stroke-dasharray:5.0,5.0;" x1="57" x2="57" y1="90.4648" y2="863.5391"/><line style="stroke:#181818;stroke-width:0.5;stroke-dasharray:5.0,5.0;" x1="342.3467" x2="342.3467" y1="90.4648" y2="863.5391"/><line style="stroke:#181818;stroke-width:0.5;stroke-dasharray:5.0,5.0;" x1="533.7817" x2="533.7817" y1="90.4648" y2="863.5391"/><line style="stroke:#181818;stroke-width:0.5;stroke-dasharray:5.0,5.0;" x1="709.9468" x2="709.9468" y1="90.4648" y2="863.5391"/><rect fill="#E2E2F0" height="30.4883" rx="2.5" ry="2.5" style="stroke:#181818;stroke-width:0.5;" width="104.2207" x="5" y="58.9766"/><text fill="#000000" font-family="sans-serif" font-size="14" lengthAdjust="spacing" textLength="90.2207" x="12" y="79.5117">Streamlit app</text><rect fill="#E2E2F0" height="30.4883" rx="2.5" ry="2.5" style="stroke:#181818;stroke-width:0.5;" width="104.2207" x="5" y="862.5391"/><text fill="#000000" font-family="sans-serif" font-size="14" lengthAdjust="spacing" textLength="90.2207" x="12" y="883.0742">Streamlit app</text><rect fill="#E2E2F0" height="30.4883" rx="2.5" ry="2.5" style="stroke:#181818;stroke-width:0.5;" width="215.0313" x="235.3467" y="58.9766"/><text fill="#000000" font-family="sans-serif" font-size="14" lengthAdjust="spacing" textLength="201.0313" x="242.3467" y="79.5117">simulation_integration_hooks</text><rect fill="#E2E2F0" height="30.4883" rx="2.5" ry="2.5" style="stroke:#181818;stroke-width:0.5;" width="215.0313" x="235.3467" y="862.5391"/><text fill="#000000" font-family="sans-serif" font-size="14" lengthAdjust="spacing" textLength="201.0313" x="242.3467" y="883.0742">simulation_integration_hooks</text><rect fill="#E2E2F0" height="46.9766" rx="2.5" ry="2.5" style="stroke:#181818;stroke-width:0.5;" width="143.165" x="462.7817" y="42.4883"/><text fill="#000000" font-family="sans-serif" font-size="14" lengthAdjust="spacing" textLength="71.0938" x="498.8174" y="63.0234">Filesystem</text><text fill="#000000" font-family="sans-serif" font-size="14" lengthAdjust="spacing" textLength="129.165" x="469.7817" y="79.5117">examples/ + data/</text><rect fill="#E2E2F0" height="46.9766" rx="2.5" ry="2.5" style="stroke:#181818;stroke-width:0.5;" width="143.165" x="462.7817" y="862.5391"/><text fill="#000000" font-family="sans-serif" font-size="14" lengthAdjust="spacing" textLength="71.0938" x="498.8174" y="883.0742">Filesystem</text><text fill="#000000" font-family="sans-serif" font-size="14" lengthAdjust="spacing" textLength="129.165" x="469.7817" y="899.5625">examples/ + data/</text><rect fill="#E2E2F0" height="46.9766" rx="2.5" ry="2.5" style="stroke:#181818;stroke-width:0.5;" width="189.9912" x="615.9468" y="42.4883"/><text fill="#000000" font-family="sans-serif" font-size="14" lengthAdjust="spacing" textLength="156.5566" x="632.6641" y="63.0234">simulation_provenance</text><text fill="#000000" font-family="sans-serif" font-size="14" lengthAdjust="spacing" textLength="175.9912" x="622.9468" y="79.5117">finalize_simulation_status</text><rect fill="#E2E2F0" height="46.9766" rx="2.5" ry="2.5" style="stroke:#181818;stroke-width:0.5;" width="189.9912" x="615.9468" y="862.5391"/><text fill="#000000" font-family="sans-serif" font-size="14" lengthAdjust="spacing" textLength="156.5566" x="632.6641" y="883.0742">simulation_provenance</text><text fill="#000000" font-family="sans-serif" font-size="14" lengthAdjust="spacing" textLength="175.9912" x="622.9468" y="899.5625">finalize_simulation_status</text><polygon fill="#181818" points="330.8623,117.7754,340.8623,121.7754,330.8623,125.7754,334.8623,121.7754" style="stroke:#181818;stroke-width:1.0;"/><line style="stroke:#181818;stroke-width:1.0;" x1="57.1104" x2="336.8623" y1="121.7754" y2="121.7754"/><text fill="#000000" font-family="sans-serif" font-size="13" lengthAdjust="spacing" textLength="261.752" x="64.1104" y="117.0332">load_deepmimo_scenario_summary(repo)</text><polygon fill="#181818" points="522.3643,147.0859,532.3643,151.0859,522.3643,155.0859,526.3643,151.0859" style="stroke:#181818;stroke-width:1.0;"/><line style="stroke:#181818;stroke-width:1.0;" x1="342.8623" x2="528.3643" y1="151.0859" y2="151.0859"/><text fill="#000000" font-family="sans-serif" font-size="13" lengthAdjust="spacing" textLength="141.5083" x="349.8623" y="146.3438">read JSON / NPZ paths</text><polygon fill="#181818" points="353.8623,176.3965,343.8623,180.3965,353.8623,184.3965,349.8623,180.3965" style="stroke:#181818;stroke-width:1.0;"/><line style="stroke:#181818;stroke-width:1.0;stroke-dasharray:2.0,2.0;" x1="347.8623" x2="533.3643" y1="180.3965" y2="180.3965"/><text fill="#000000" font-family="sans-serif" font-size="13" lengthAdjust="spacing" textLength="83.2622" x="359.8623" y="175.6543">raw or empty</text><polygon fill="#181818" points="68.1104,205.707,58.1104,209.707,68.1104,213.707,64.1104,209.707" style="stroke:#181818;stroke-width:1.0;"/><line style="stroke:#181818;stroke-width:1.0;stroke-dasharray:2.0,2.0;" x1="62.1104" x2="341.8623" y1="209.707" y2="209.707"/><text fill="#000000" font-family="sans-serif" font-size="13" lengthAdjust="spacing" textLength="65.7998" x="74.1104" y="204.9648">status dict</text><polygon fill="#181818" points="330.8623,235.0176,340.8623,239.0176,330.8623,243.0176,334.8623,239.0176" style="stroke:#181818;stroke-width:1.0;"/><line style="stroke:#181818;stroke-width:1.0;" x1="57.1104" x2="336.8623" y1="239.0176" y2="239.0176"/><text fill="#000000" font-family="sans-serif" font-size="13" lengthAdjust="spacing" textLength="260.5396" x="64.1104" y="234.2754">load_sionna_propagation_summary(repo)</text><polygon fill="#181818" points="522.3643,264.3281,532.3643,268.3281,522.3643,272.3281,526.3643,268.3281" style="stroke:#181818;stroke-width:1.0;"/><line style="stroke:#181818;stroke-width:1.0;" x1="342.8623" x2="528.3643" y1="268.3281" y2="268.3281"/><text fill="#000000" font-family="sans-serif" font-size="13" lengthAdjust="spacing" textLength="104.6792" x="349.8623" y="263.5859">JSON + GeoJSON</text><polygon fill="#181818" points="353.8623,278.3281,343.8623,282.3281,353.8623,286.3281,349.8623,282.3281" style="stroke:#181818;stroke-width:1.0;"/><line style="stroke:#181818;stroke-width:1.0;stroke-dasharray:2.0,2.0;" x1="347.8623" x2="533.3643" y1="282.3281" y2="282.3281"/><polygon fill="#181818" points="68.1104,307.6387,58.1104,311.6387,68.1104,315.6387,64.1104,311.6387" style="stroke:#181818;stroke-width:1.0;"/><line style="stroke:#181818;stroke-width:1.0;stroke-dasharray:2.0,2.0;" x1="62.1104" x2="341.8623" y1="311.6387" y2="311.6387"/><text fill="#000000" font-family="sans-serif" font-size="13" lengthAdjust="spacing" textLength="65.7998" x="74.1104" y="306.8965">status dict</text><polygon fill="#181818" points="330.8623,336.9492,340.8623,340.9492,330.8623,344.9492,334.8623,340.9492" style="stroke:#181818;stroke-width:1.0;"/><line style="stroke:#181818;stroke-width:1.0;" x1="57.1104" x2="336.8623" y1="340.9492" y2="340.9492"/><text fill="#000000" font-family="sans-serif" font-size="13" lengthAdjust="spacing" textLength="221.4888" x="64.1104" y="336.207">load_aerial_overlay_summary(repo)</text><polygon fill="#181818" points="522.3643,366.2598,532.3643,370.2598,522.3643,374.2598,526.3643,370.2598" style="stroke:#181818;stroke-width:1.0;"/><line style="stroke:#181818;stroke-width:1.0;" x1="342.8623" x2="528.3643" y1="370.2598" y2="370.2598"/><text fill="#000000" font-family="sans-serif" font-size="13" lengthAdjust="spacing" textLength="167.502" x="349.8623" y="365.5176">overlay_summary.json etc.</text><polygon fill="#181818" points="353.8623,380.2598,343.8623,384.2598,353.8623,388.2598,349.8623,384.2598" style="stroke:#181818;stroke-width:1.0;"/><line style="stroke:#181818;stroke-width:1.0;stroke-dasharray:2.0,2.0;" x1="347.8623" x2="533.3643" y1="384.2598" y2="384.2598"/><polygon fill="#181818" points="68.1104,424.8809,58.1104,428.8809,68.1104,432.8809,64.1104,428.8809" style="stroke:#181818;stroke-width:1.0;"/><line style="stroke:#181818;stroke-width:1.0;stroke-dasharray:2.0,2.0;" x1="62.1104" x2="341.8623" y1="428.8809" y2="428.8809"/><text fill="#000000" font-family="sans-serif" font-size="13" lengthAdjust="spacing" textLength="80.2471" x="74.1104" y="408.8281">status dict +</text><text fill="#000000" font-family="sans-serif" font-size="13" lengthAdjust="spacing" textLength="130.0571" x="74.1104" y="424.1387">installer probe fields</text><polygon fill="#181818" points="330.8623,454.1914,340.8623,458.1914,330.8623,462.1914,334.8623,458.1914" style="stroke:#181818;stroke-width:1.0;"/><line style="stroke:#181818;stroke-width:1.0;" x1="57.1104" x2="336.8623" y1="458.1914" y2="458.1914"/><text fill="#000000" font-family="sans-serif" font-size="13" lengthAdjust="spacing" textLength="212.2148" x="64.1104" y="453.4492">load_pyaerial_bridge_status(repo)</text><polygon fill="#181818" points="522.3643,483.502,532.3643,487.502,522.3643,491.502,526.3643,487.502" style="stroke:#181818;stroke-width:1.0;"/><line style="stroke:#181818;stroke-width:1.0;" x1="342.8623" x2="528.3643" y1="487.502" y2="487.502"/><text fill="#000000" font-family="sans-serif" font-size="13" lengthAdjust="spacing" textLength="132.6914" x="349.8623" y="482.7598">bridge_manifest.json</text><polygon fill="#181818" points="353.8623,497.502,343.8623,501.502,353.8623,505.502,349.8623,501.502" style="stroke:#181818;stroke-width:1.0;"/><line style="stroke:#181818;stroke-width:1.0;stroke-dasharray:2.0,2.0;" x1="347.8623" x2="533.3643" y1="501.502" y2="501.502"/><polygon fill="#181818" points="68.1104,542.123,58.1104,546.123,68.1104,550.123,64.1104,546.123" style="stroke:#181818;stroke-width:1.0;"/><line style="stroke:#181818;stroke-width:1.0;stroke-dasharray:2.0,2.0;" x1="62.1104" x2="341.8623" y1="546.123" y2="546.123"/><text fill="#000000" font-family="sans-serif" font-size="13" lengthAdjust="spacing" textLength="65.7998" x="74.1104" y="526.0703">status dict</text><text fill="#000000" font-family="sans-serif" font-size="13" lengthAdjust="spacing" textLength="214.9634" x="74.1104" y="541.3809">(often external-runtime-required)</text><polygon fill="#181818" points="330.8623,571.4336,340.8623,575.4336,330.8623,579.4336,334.8623,575.4336" style="stroke:#181818;stroke-width:1.0;"/><line style="stroke:#181818;stroke-width:1.0;" x1="57.1104" x2="336.8623" y1="575.4336" y2="575.4336"/><text fill="#000000" font-family="sans-serif" font-size="13" lengthAdjust="spacing" textLength="197.1646" x="64.1104" y="570.6914">load_ota_evidence_status(repo)</text><polygon fill="#181818" points="522.3643,600.7441,532.3643,604.7441,522.3643,608.7441,526.3643,604.7441" style="stroke:#181818;stroke-width:1.0;"/><line style="stroke:#181818;stroke-width:1.0;" x1="342.8623" x2="528.3643" y1="604.7441" y2="604.7441"/><text fill="#000000" font-family="sans-serif" font-size="13" lengthAdjust="spacing" textLength="108.6846" x="349.8623" y="600.002">ota lake manifest</text><polygon fill="#181818" points="353.8623,614.7441,343.8623,618.7441,353.8623,622.7441,349.8623,618.7441" style="stroke:#181818;stroke-width:1.0;"/><line style="stroke:#181818;stroke-width:1.0;stroke-dasharray:2.0,2.0;" x1="347.8623" x2="533.3643" y1="618.7441" y2="618.7441"/><polygon fill="#181818" points="68.1104,644.0547,58.1104,648.0547,68.1104,652.0547,64.1104,648.0547" style="stroke:#181818;stroke-width:1.0;"/><line style="stroke:#181818;stroke-width:1.0;stroke-dasharray:2.0,2.0;" x1="62.1104" x2="341.8623" y1="648.0547" y2="648.0547"/><text fill="#000000" font-family="sans-serif" font-size="13" lengthAdjust="spacing" textLength="65.7998" x="74.1104" y="643.3125">status dict</text><polygon fill="#181818" points="698.9424,673.3652,708.9424,677.3652,698.9424,681.3652,702.9424,677.3652" style="stroke:#181818;stroke-width:1.0;"/><line style="stroke:#181818;stroke-width:1.0;" x1="57.1104" x2="704.9424" y1="677.3652" y2="677.3652"/><text fill="#000000" font-family="sans-serif" font-size="13" lengthAdjust="spacing" textLength="126.9976" x="64.1104" y="672.623">finalize on each dict</text><polygon fill="#181818" points="68.1104,717.9863,58.1104,721.9863,68.1104,725.9863,64.1104,721.9863" style="stroke:#181818;stroke-width:1.0;"/><line style="stroke:#181818;stroke-width:1.0;stroke-dasharray:2.0,2.0;" x1="62.1104" x2="709.9424" y1="721.9863" y2="721.9863"/><text fill="#000000" font-family="sans-serif" font-size="13" lengthAdjust="spacing" textLength="180.1084" x="74.1104" y="701.9336">canonical_evidence_status +</text><text fill="#000000" font-family="sans-serif" font-size="13" lengthAdjust="spacing" textLength="172.396" x="74.1104" y="717.2441">canonical_execution_status</text><line style="stroke:#181818;stroke-width:1.0;" x1="57.1104" x2="99.1104" y1="766.6074" y2="766.6074"/><line style="stroke:#181818;stroke-width:1.0;" x1="99.1104" x2="99.1104" y1="766.6074" y2="779.6074"/><line style="stroke:#181818;stroke-width:1.0;" x1="58.1104" x2="99.1104" y1="779.6074" y2="779.6074"/><polygon fill="#181818" points="68.1104,775.6074,58.1104,779.6074,68.1104,783.6074,64.1104,779.6074" style="stroke:#181818;stroke-width:1.0;"/><text fill="#000000" font-family="sans-serif" font-size="13" lengthAdjust="spacing" textLength="147.564" x="64.1104" y="746.5547">Render backbone cards</text><text fill="#000000" font-family="sans-serif" font-size="13" lengthAdjust="spacing" textLength="111.9092" x="64.1104" y="761.8652">+ civic stack strip</text><path d="M216,792.6074 L216,847.6074 L468,847.6074 L468,802.6074 L458,792.6074 L216,792.6074 " fill="#FEFFDD" style="stroke:#181818;stroke-width:0.5;"/><path d="M458,792.6074 L458,802.6074 L468,802.6074 L458,792.6074 " fill="#FEFFDD" style="stroke:#181818;stroke-width:0.5;"/><text fill="#000000" font-family="sans-serif" font-size="13" font-weight="bold" lengthAdjust="spacing" textLength="59.9727" x="222" y="810.1758">Does not</text><text fill="#000000" font-family="sans-serif" font-size="13" lengthAdjust="spacing" textLength="167.248" x="286.0859" y="810.1758">run AODT, Sionna RT GPU,</text><text fill="#000000" font-family="sans-serif" font-size="13" lengthAdjust="spacing" textLength="188.8237" x="222" y="825.4863">pyAerial PHY, or OTA capture.</text><text fill="#000000" font-family="sans-serif" font-size="13" font-weight="bold" lengthAdjust="spacing" textLength="40.1934" x="222" y="840.7969">Reads</text><text fill="#000000" font-family="sans-serif" font-size="13" lengthAdjust="spacing" textLength="154.5591" x="266.3066" y="840.7969">manifests when present.</text><!--SRC=[ZLFDRjf04BxxAKOvySyzXqf84K4z10lJGoiaDAm7cBBUtUwk2Uwf3z4dx9DqR20XGIYvm7h-lczcleaSDK56lqeoYk3VdxyGk2WrHhO62ZIyfX21pKR-QbFBMD1MeOPrgJK4g_VasqdYq4TMxD14kCkY9omqHq3dxW03PFEt4QyWIpQHDlxutbgx2qt2v6tyc3M5AaGg5eOEM3Zv748NSemuR1B6sKq4v-sU34g32xDcWvf_q_B27oB6yWYR9aasX_uNcC2zz8dvCYTo1HTs6PJKy2oFiYZGLorFphQJIHqzpYHSUixXQpPzWY4yfJ_0OTo6H5pzKpsFps0zKE5YLUU9MS3kuOWFEQju1H-4eC6w1OUR4zqR-0rq5nx9rgyNuCyY8Nb6lPHHUOtLJPHt_i7F8AgWg0OV0K9tOTY8GMlo80sj2DPCEWzNL5nr8hFod6_ejA0hAYVlMQKDbOzOB4pBhYC9vKCaBrhe-z94BgZlvGZOKzw-ecCZBcdFUNqYjxX836ZSqSlDV7R-gPZFeeHwbAYsnu3qDK-XiORbwjxpg8TwuJoGAYyaVSPeQip8v3Bu5QhToXgIcZuF2zC5nNjMDJMrar_FBacCZTHiMkW3T3eFbWA8iTC16HUCfW_p7cIDD64sXyVqMq_YN3LgrWRfv7klLlfqFX8O5qjFWwREJ4uaI97pa08yRsKNpbCW4mU9KAnXAFaF]--></g></svg>