<svg xmlns="http://www.w3.org/2000/svg" xmlns:xlink="http://www.w3.org/1999/xlink" contentStyleType="text/css" height="529px" preserveAspectRatio="none" style="width:1288px;height:529px;background:#FFFFFF;" version="1.1" viewBox="0 0 1288 529" width="1288px" zoomAndPan="magnify"><title>System context &#8212; **future research adoption** (target architecture)</title><defs/><g><text fill="#B71C1C" font-family="sans-serif" font-size="14" font-weight="bold" lengthAdjust="spacing" textLength="128.167" x="405" y="23.5352">System context &#8212;</text><text fill="#B71C1C" font-family="sans-serif" font-size="14" font-weight="bold" lengthAdjust="spacing" textLength="179.6758" x="537.7813" y="23.5352">future research adoption</text><text fill="#B71C1C" font-family="sans-serif" font-size="14" font-weight="bold" lengthAdjust="spacing" textLength="144.9287" x="722.0713" y="23.5352">(target architecture)</text><!--cluster Repo layer (orchestration)--><g id="cluster_Repo layer (orchestration)"><path d="M46.5,197.9883 L235.3994,197.9883 A3.75,3.75 0 0 1 237.8994,200.4883 L244.8994,220.4766 L415.5,220.4766 A2.5,2.5 0 0 1 418,222.9766 L418,449.9883 A2.5,2.5 0 0 1 415.5,452.4883 L46.5,452.4883 A2.5,2.5 0 0 1 44,449.9883 L44,200.4883 A2.5,2.5 0 0 1 46.5,197.9883 " fill="#E3F2FD" style="stroke:#000000;stroke-width:1.5;"/><line style="stroke:#000000;stroke-width:1.5;" x1="44" x2="244.8994" y1="220.4766" y2="220.4766"/><text fill="#000000" font-family="sans-serif" font-size="14" font-weight="bold" lengthAdjust="spacing" textLength="187.8994" x="48" y="213.5234">Repo layer (orchestration)</text></g><!--cluster External simulation stack--><g id="cluster_External simulation stack"><path d="M428.5,354.4883 L612.1426,354.4883 A3.75,3.75 0 0 1 614.6426,356.9883 L621.6426,376.9766 L1080.5,376.9766 A2.5,2.5 0 0 1 1083,379.4766 L1083,449.9883 A2.5,2.5 0 0 1 1080.5,452.4883 L428.5,452.4883 A2.5,2.5 0 0 1 426,449.9883 L426,356.9883 A2.5,2.5 0 0 1 428.5,354.4883 " fill="#FFEBEE" style="stroke:#000000;stroke-width:1.5;"/><line style="stroke:#000000;stroke-width:1.5;" x1="426" x2="621.6426" y1="376.9766" y2="376.9766"/><text fill="#000000" font-family="sans-serif" font-size="14" font-weight="bold" lengthAdjust="spacing" textLength="182.6426" x="430" y="370.0234">External simulation stack</text></g><!--cluster PHY + RAN targets--><g id="cluster_PHY + RAN targets"><path d="M16.5,41.4883 L153.624,41.4883 A3.75,3.75 0 0 1 156.124,43.9883 L163.124,63.9766 L193.5,63.9766 A2.5,2.5 0 0 1 196,66.4766 L196,136.9883 A2.5,2.5 0 0 1 193.5,139.4883 L16.5,139.4883 A2.5,2.5 0 0 1 14,136.9883 L14,43.9883 A2.5,2.5 0 0 1 16.5,41.4883 " fill="#FFF3E0" style="stroke:#000000;stroke-width:1.5;"/><line style="stroke:#000000;stroke-width:1.5;" x1="14" x2="163.124" y1="63.9766" y2="63.9766"/><text fill="#000000" font-family="sans-serif" font-size="14" font-weight="bold" lengthAdjust="spacing" textLength="136.124" x="18" y="57.0234">PHY + RAN targets</text></g><!--cluster Field evidence--><g id="cluster_Field evidence"><path d="M1093.5,354.4883 L1197.1279,354.4883 A3.75,3.75 0 0 1 1199.6279,356.9883 L1206.6279,376.9766 L1278.5,376.9766 A2.5,2.5 0 0 1 1281,379.4766 L1281,449.9883 A2.5,2.5 0 0 1 1278.5,452.4883 L1093.5,452.4883 A2.5,2.5 0 0 1 1091,449.9883 L1091,356.9883 A2.5,2.5 0 0 1 1093.5,354.4883 " fill="#E8F5E9" style="stroke:#000000;stroke-width:1.5;"/><line style="stroke:#000000;stroke-width:1.5;" x1="1091" x2="1206.6279" y1="376.9766" y2="376.9766"/><text fill="#000000" font-family="sans-serif" font-size="14" font-weight="bold" lengthAdjust="spacing" textLength="102.6279" x="1095" y="370.0234">Field evidence</text></g><!--entity phd--><g id="elem_phd"><ellipse cx="464.1709" cy="70.4883" fill="#F1F1F1" rx="8" ry="8" style="stroke:#181818;stroke-width:0.5;"/><path d="M464.1709,78.4883 L464.1709,105.4883 M451.1709,86.4883 L477.1709,86.4883 M464.1709,105.4883 L451.1709,120.4883 M464.1709,105.4883 L477.1709,120.4883 " fill="none" style="stroke:#181818;stroke-width:0.5;"/><text fill="#000000" font-family="sans-serif" font-size="14" lengthAdjust="spacing" textLength="133.3418" x="397.5" y="135.5234">Doctoral researcher</text></g><!--entity sim--><g id="elem_sim"><ellipse cx="670.2031" cy="226.9883" fill="#F1F1F1" rx="8" ry="8" style="stroke:#181818;stroke-width:0.5;"/><path d="M670.2031,234.9883 L670.2031,261.9883 M657.2031,242.9883 L683.2031,242.9883 M670.2031,261.9883 L657.2031,276.9883 M670.2031,261.9883 L683.2031,276.9883 " fill="none" style="stroke:#181818;stroke-width:0.5;"/><text fill="#000000" font-family="sans-serif" font-size="14" lengthAdjust="spacing" textLength="135.4063" x="602.5" y="292.0234">Simulation engineer</text></g><!--entity ota--><g id="elem_ota"><ellipse cx="942.9448" cy="226.9883" fill="#F1F1F1" rx="8" ry="8" style="stroke:#181818;stroke-width:0.5;"/><path d="M942.9448,234.9883 L942.9448,261.9883 M929.9448,242.9883 L955.9448,242.9883 M942.9448,261.9883 L929.9448,276.9883 M942.9448,261.9883 L955.9448,276.9883 " fill="none" style="stroke:#181818;stroke-width:0.5;"/><text fill="#000000" font-family="sans-serif" font-size="14" lengthAdjust="spacing" textLength="129.8896" x="878" y="292.0234">OTA / lab engineer</text></g><!--entity city--><g id="elem_city"><ellipse cx="292.7627" cy="70.4883" fill="#F1F1F1" rx="8" ry="8" style="stroke:#181818;stroke-width:0.5;"/><path d="M292.7627,78.4883 L292.7627,105.4883 M279.7627,86.4883 L305.7627,86.4883 M292.7627,105.4883 L279.7627,120.4883 M292.7627,105.4883 L305.7627,120.4883 " fill="none" style="stroke:#181818;stroke-width:0.5;"/><text fill="#000000" font-family="sans-serif" font-size="14" lengthAdjust="spacing" textLength="172.5254" x="206.5" y="135.5234">City / community partner</text></g><!--entity repo--><g id="elem_repo"><rect fill="#F1F1F1" height="62.9766" rx="2.5" ry="2.5" style="stroke:#181818;stroke-width:0.5;" width="199.9609" x="210" y="381.4883"/><rect fill="#F1F1F1" height="10" style="stroke:#181818;stroke-width:0.5;" width="15" x="389.9609" y="386.4883"/><rect fill="#F1F1F1" height="2" style="stroke:#181818;stroke-width:0.5;" width="4" x="387.9609" y="388.4883"/><rect fill="#F1F1F1" height="2" style="stroke:#181818;stroke-width:0.5;" width="4" x="387.9609" y="392.4883"/><text fill="#000000" font-family="sans-serif" font-size="14" lengthAdjust="spacing" textLength="82.5576" x="225" y="415.0234">GitHub repo</text><text fill="#000000" font-family="sans-serif" font-size="14" lengthAdjust="spacing" textLength="159.9609" x="225" y="431.5117">spectrumx-ai-ran-gary</text></g><!--entity docs--><g id="elem_docs"><rect fill="#F1F1F1" height="62.9766" rx="2.5" ry="2.5" style="stroke:#181818;stroke-width:0.5;" width="173.7178" x="236" y="224.9883"/><rect fill="#F1F1F1" height="10" style="stroke:#181818;stroke-width:0.5;" width="15" x="389.7178" y="229.9883"/><rect fill="#F1F1F1" height="2" style="stroke:#181818;stroke-width:0.5;" width="4" x="387.7178" y="231.9883"/><rect fill="#F1F1F1" height="2" style="stroke:#181818;stroke-width:0.5;" width="4" x="387.7178" y="235.9883"/><text fill="#000000" font-family="sans-serif" font-size="14" lengthAdjust="spacing" textLength="88.915" x="251" y="258.5234">docs / UML /</text><text fill="#000000" font-family="sans-serif" font-size="14" lengthAdjust="spacing" textLength="133.7178" x="251" y="275.0117">experiment registry</text></g><!--entity st--><g id="elem_st"><rect fill="#F1F1F1" height="62.9766" rx="2.5" ry="2.5" style="stroke:#181818;stroke-width:0.5;" width="165.7676" x="52" y="224.9883"/><rect fill="#F1F1F1" height="10" style="stroke:#181818;stroke-width:0.5;" width="15" x="197.7676" y="229.9883"/><rect fill="#F1F1F1" height="2" style="stroke:#181818;stroke-width:0.5;" width="4" x="195.7676" y="231.9883"/><rect fill="#F1F1F1" height="2" style="stroke:#181818;stroke-width:0.5;" width="4" x="195.7676" y="235.9883"/><text fill="#000000" font-family="sans-serif" font-size="14" lengthAdjust="spacing" textLength="90.2207" x="67" y="258.5234">Streamlit app</text><text fill="#000000" font-family="sans-serif" font-size="14" lengthAdjust="spacing" textLength="125.7676" x="67" y="275.0117">manifest + twin UI</text></g><!--entity sionna--><g id="elem_sionna"><rect fill="#F1F1F1" height="46.4883" rx="2.5" ry="2.5" style="stroke:#181818;stroke-width:0.5;" width="172.6514" x="632.5" y="389.9883"/><rect fill="#F1F1F1" height="10" style="stroke:#181818;stroke-width:0.5;" width="15" x="785.1514" y="394.9883"/><rect fill="#F1F1F1" height="2" style="stroke:#181818;stroke-width:0.5;" width="4" x="783.1514" y="396.9883"/><rect fill="#F1F1F1" height="2" style="stroke:#181818;stroke-width:0.5;" width="4" x="783.1514" y="400.9883"/><text fill="#000000" font-family="sans-serif" font-size="14" lengthAdjust="spacing" textLength="132.6514" x="647.5" y="423.5234">Sionna RT GPU jobs</text></g><!--entity dm--><g id="elem_dm"><rect fill="#F1F1F1" height="46.4883" rx="2.5" ry="2.5" style="stroke:#181818;stroke-width:0.5;" width="251.4902" x="823.5" y="389.9883"/><rect fill="#F1F1F1" height="10" style="stroke:#181818;stroke-width:0.5;" width="15" x="1054.9902" y="394.9883"/><rect fill="#F1F1F1" height="2" style="stroke:#181818;stroke-width:0.5;" width="4" x="1052.9902" y="396.9883"/><rect fill="#F1F1F1" height="2" style="stroke:#181818;stroke-width:0.5;" width="4" x="1052.9902" y="400.9883"/><text fill="#000000" font-family="sans-serif" font-size="14" lengthAdjust="spacing" textLength="211.4902" x="838.5" y="423.5234">DeepMIMO / MATLAB pipelines</text></g><!--entity aodt--><g id="elem_aodt"><rect fill="#F1F1F1" height="62.9766" rx="2.5" ry="2.5" style="stroke:#181818;stroke-width:0.5;" width="180.2393" x="434" y="381.4883"/><rect fill="#F1F1F1" height="10" style="stroke:#181818;stroke-width:0.5;" width="15" x="594.2393" y="386.4883"/><rect fill="#F1F1F1" height="2" style="stroke:#181818;stroke-width:0.5;" width="4" x="592.2393" y="388.4883"/><rect fill="#F1F1F1" height="2" style="stroke:#181818;stroke-width:0.5;" width="4" x="592.2393" y="392.4883"/><text fill="#000000" font-family="sans-serif" font-size="14" lengthAdjust="spacing" textLength="140.2393" x="449" y="415.0234">AODT / Omniverse /</text><text fill="#000000" font-family="sans-serif" font-size="14" lengthAdjust="spacing" textLength="119.2803" x="449" y="431.5117">Aerial digital twin</text></g><!--entity phy--><g id="elem_phy"><rect fill="#F1F1F1" height="62.9766" rx="2.5" ry="2.5" style="stroke:#181818;stroke-width:0.5;" width="165.7197" x="22" y="68.4883"/><rect fill="#F1F1F1" height="10" style="stroke:#181818;stroke-width:0.5;" width="15" x="167.7197" y="73.4883"/><rect fill="#F1F1F1" height="2" style="stroke:#181818;stroke-width:0.5;" width="4" x="165.7197" y="75.4883"/><rect fill="#F1F1F1" height="2" style="stroke:#181818;stroke-width:0.5;" width="4" x="165.7197" y="79.4883"/><text fill="#000000" font-family="sans-serif" font-size="14" lengthAdjust="spacing" textLength="125.7197" x="37" y="102.0234">pyAerial / cuPHY /</text><text fill="#000000" font-family="sans-serif" font-size="14" lengthAdjust="spacing" textLength="116.2588" x="37" y="118.5117">Aerial CUDA RAN</text></g><!--entity lake--><g id="elem_lake"><rect fill="#F1F1F1" height="62.9766" rx="2.5" ry="2.5" style="stroke:#181818;stroke-width:0.5;" width="174.1963" x="1099" y="381.4883"/><rect fill="#F1F1F1" height="10" style="stroke:#181818;stroke-width:0.5;" width="15" x="1253.1963" y="386.4883"/><rect fill="#F1F1F1" height="2" style="stroke:#181818;stroke-width:0.5;" width="4" x="1251.1963" y="388.4883"/><rect fill="#F1F1F1" height="2" style="stroke:#181818;stroke-width:0.5;" width="4" x="1251.1963" y="392.4883"/><text fill="#000000" font-family="sans-serif" font-size="14" lengthAdjust="spacing" textLength="96.7559" x="1114" y="415.0234">OTA capture /</text><text fill="#000000" font-family="sans-serif" font-size="14" lengthAdjust="spacing" textLength="134.1963" x="1114" y="431.5117">Data Lake ingestion</text></g><polygon fill="#181818" points="346.5488,381.2921,355.8846,378.1549,350.233,377.9118,350.4761,372.2602,346.5488,381.2921" style="stroke:#181818;stroke-width:1.0;"/><path d="M461.4181,138.075 C457.2625,178.6929 446.525,244.6787 419,294.4883 C400.4951,327.9749 374.8446,355.3304 350.9698,377.2358 " fill="none" style="stroke:#181818;stroke-width:1.0;"/><polygon fill="#181818" points="379.7171,224.9351,389.4264,223.2827,383.8807,222.1667,384.9968,216.621,379.7171,224.9351" style="stroke:#181818;stroke-width:1.0;"/><path d="M451.2061,138.2517 C444.1169,155.2867 434.0634,174.9685 421,189.9883 C409.3833,203.3448 399.4245,211.8312 384.7135,221.613 " fill="none" style="stroke:#181818;stroke-width:1.0;"/><polygon fill="#181818" points="711.9069,389.6233,712.9989,379.8351,710.3953,384.8572,705.3732,382.2536,711.9069,389.6233" style="stroke:#181818;stroke-width:1.0;"/><path d="M681.7367,294.4949 C691.1366,324.1333 702.2003,359.0177 710.093,383.904 " fill="none" style="stroke:#181818;stroke-width:1.0;"/><polygon fill="#181818" points="905.3815,389.8659,898.9576,382.4004,900.862,387.727,895.5354,389.6314,905.3815,389.8659" style="stroke:#181818;stroke-width:1.0;"/><path d="M698.4496,294.8098 C714.6941,313.387 736.6526,334.4047 761,346.4883 C782.7326,357.2742 791.6577,347.8718 815,354.4883 C846.1753,363.3251 874.252,375.1334 899.9582,387.2992 " fill="none" style="stroke:#181818;stroke-width:1.0;"/><polygon fill="#181818" points="571.7569,381.1748,581.381,379.0829,575.7904,378.22,576.6533,372.6293,571.7569,381.1748" style="stroke:#181818;stroke-width:1.0;"/><path d="M649.8142,294.6771 C639.7021,311.5014 626.5229,331.0313 612,346.4883 C600.1326,359.119 590.4229,367.5008 576.5971,377.629 " fill="none" style="stroke:#181818;stroke-width:1.0;"/><polygon fill="#181818" points="360.8984,381.3991,370.7205,380.6739,365.3055,379.0375,366.9419,373.6225,360.8984,381.3991" style="stroke:#181818;stroke-width:1.0;"/><path d="M602.3344,281.8664 C579.6246,290.7274 554.3895,301.3269 532,312.4883 C505.9414,325.4788 503.3879,336.6036 476,346.4883 C453.1789,354.7248 445.1003,347.071 422,354.4883 C401.1892,361.1704 384.8356,368.572 366.187,378.5652 " fill="none" style="stroke:#181818;stroke-width:1.0;"/><text fill="#000000" font-family="sans-serif" font-size="13" lengthAdjust="spacing" textLength="72.2109" x="534" y="327.0566">manifests /</text><text fill="#000000" font-family="sans-serif" font-size="13" lengthAdjust="spacing" textLength="68.0786" x="536.0662" y="342.3672">CI artifacts</text><polygon fill="#181818" points="1137.6698,381.2598,1132.2211,373.0555,1133.4504,378.5771,1127.9288,379.8065,1137.6698,381.2598" style="stroke:#181818;stroke-width:1.0;"/><path d="M1001.2046,294.4949 C1042.906,321.0088 1093.346,353.0786 1132.6066,378.0406 " fill="none" style="stroke:#181818;stroke-width:1.0;"/><polygon fill="#181818" points="358.3211,381.3856,368.1342,380.5483,362.7009,378.9738,364.2753,373.5405,358.3211,381.3856" style="stroke:#181818;stroke-width:1.0;"/><path d="M877.9709,279.5517 C811.8771,300.884 706.107,332.0367 612,346.4883 C570.23,352.9027 462.8589,343.698 422,354.4883 C400.0219,360.2924 382.6725,367.9762 363.5769,378.4915 " fill="none" style="stroke:#181818;stroke-width:1.0;"/><text fill="#000000" font-family="sans-serif" font-size="13" lengthAdjust="spacing" textLength="65.4697" x="760" y="327.0566">schemas /</text><text fill="#000000" font-family="sans-serif" font-size="13" lengthAdjust="spacing" textLength="61.2803" x="762.0947" y="342.3672">manifests</text><polygon fill="#181818" points="309.0324,224.7661,309.4178,214.9247,307.182,220.121,301.9857,217.8853,309.0324,224.7661" style="stroke:#181818;stroke-width:1.0;"/><path d="M292.5427,138.1329 C292.9965,154.2254 294.4129,173.1889 298,189.9883 C300.4908,201.6536 302.5179,208.4123 306.812,219.192 " fill="none" style="stroke:#181818;stroke-width:1.0;"/><text fill="#000000" font-family="sans-serif" font-size="13" lengthAdjust="spacing" textLength="119.355" x="300" y="178.0566">civic KPI co-design</text><polygon fill="#181818" points="275.1984,381.2634,271.0989,372.3083,271.4501,377.9543,265.8042,378.3055,275.1984,381.2634" style="stroke:#181818;stroke-width:1.0;"/><path d="M169.5744,288.0125 C200.1547,315.0105 240.052,350.2342 270.7005,377.2924 " fill="none" style="stroke:#181818;stroke-width:1.0;"/><polygon fill="#181818" points="129.034,224.7634,131.2451,215.166,128.0809,219.8551,123.3918,216.6909,129.034,224.7634" style="stroke:#181818;stroke-width:1.0;"/><path d="M110.927,131.5125 C116.1694,158.5105 122.6363,191.8152 127.8903,218.8734 " fill="none" style="stroke:#181818;stroke-width:1.0;stroke-dasharray:7.0,7.0;"/><text fill="#000000" font-family="sans-serif" font-size="13" lengthAdjust="spacing" textLength="118.3394" x="125.5901" y="170.5566">future closed-loop</text><text fill="#000000" font-family="sans-serif" font-size="13" lengthAdjust="spacing" textLength="121.5195" x="124" y="185.8672">PHY hints validated</text><rect fill="#DDDDDD" height="42.9766" id="_legend" rx="7.5" ry="7.5" style="stroke:#000000;stroke-width:1.0;" width="572.7822" x="349.6089" y="466.4883"/><text fill="#000000" font-family="sans-serif" font-size="14" lengthAdjust="spacing" textLength="378.6494" x="354.6089" y="485.0234">Target / future research adoption &#8212; not fully deployed.</text><text fill="#000000" font-family="sans-serif" font-size="14" lengthAdjust="spacing" textLength="562.7822" x="354.6089" y="501.5117">Repo holds orchestration, docs, and manifest-load UI; heavy execution is external.</text><!--SRC=[TLJRRXCn47tVhnZIbpOqAQL2t2IaD9SseY5LapmWseVfUhenzTgMxGrP8IG-WY_aInXxiu4-yBGU-ypncJFZVMOT5YM2mjfK0Nn90JLcGGP5iAXze19oemDj0_p- -GkwtOSgL8x0aITq-HfG61kaqTqk70Pq1GM8-p9G7e57MUOVfRRei8H4Es6weL76mS7vwzFXwJ1JL90M6S2ooJ-1_rsID6WJ6A1K3OAiCZM9FkVUa3MmDafuC9n2FZYCASSWJEwF0RM04hLyu9EUCYXWDNqFQy9D3RIbl4hyqdCGo6bK_On5xQHbc0SMt1cP-4MrLqQk0-Z1haKBMSYoKkbc85r8JJk8bsKBcIy7NAF2-wS84x1536Me6PARignqNBD_GUzmEMzacSNy4Gk2JYgS-qSE3fzKVjI1W_7PvELa1D_Pe2yNCbnMzopTcbljBVV7LUMsXxBdKFSATFLTf8_d4HvjOmshsHMSt6hQMdAo91qOK4Y-eq57L4GlWYCibUJkMtkhMwVXEOHlKhFN2Ur3zkCVwUETrT6SrZGV-9ILJoRZy_6uKRxW0urmiuIBwnLyDVU-OKlR4J0YihFfRCvwPuFbrU0ShBIasDi6ASg86in7IqRCIoqtv3p5kWPS5GiGif21lr5ioa0ZdcgzllpCnTmCFa4pvJvfd9oDNpGQRRsZuhPL4VoNVBWQ3MBcNJCgzHFUYIGbW3PIaCufjkpDvDNuRKCQ9oL7cnu3yuqm85pX8u7K1RlBzITEnLk9T2sWr_lGjB0DKeVOu1JiB6j3zgLTfeBR81B0k_rxyV7ouPGVTf0FFA8-urbDm7Hp6-ooFCzWYIbdJv35eTtBOL0kDpA7ZzTJ7lAU82yBdV6uxDMp_1hwVLOS6Btx7-JAU1ByUWsFMFHuBJMBsw2I0WE9x0y0]--></g></svg>