<svg xmlns="http://www.w3.org/2000/svg" xmlns:xlink="http://www.w3.org/1999/xlink" contentStyleType="text/css" height="670px" preserveAspectRatio="none" style="width:899px;height:670px;background:#FFFFFF;" version="1.1" viewBox="0 0 899 670" width="899px" zoomAndPan="magnify"><title>Use cases &#8212; future research adoption (**target**, not all implemented)</title><defs/><g><text fill="#000000" font-family="sans-serif" font-size="14" font-weight="bold" lengthAdjust="spacing" textLength="283.4658" x="203.6147" y="23.5352">Use cases &#8212; future research adoption (</text><text fill="#000000" font-family="sans-serif" font-size="14" font-weight="bold" lengthAdjust="spacing" textLength="43.3809" x="487.0806" y="23.5352">target</text><text fill="#000000" font-family="sans-serif" font-size="14" font-weight="bold" lengthAdjust="spacing" textLength="157.9238" x="530.4614" y="23.5352">, not all implemented)</text><!--cluster Future adoption (external + repo orchestration)--><g id="cluster_Future adoption (external + repo orchestration)"><rect fill="none" height="531" rx="2.5" ry="2.5" style="stroke:#181818;stroke-width:1.0;" width="672.5" x="220.5" y="119.9883"/><text fill="#000000" font-family="sans-serif" font-size="14" font-weight="bold" lengthAdjust="spacing" textLength="343.5195" x="384.9902" y="135.5234">Future adoption (external + repo orchestration)</text></g><!--entity lr--><g id="elem_lr"><ellipse cx="92.375" cy="239.4883" fill="#F1F1F1" rx="8" ry="8" style="stroke:#181818;stroke-width:0.5;"/><path d="M92.375,247.4883 L92.375,274.4883 M79.375,255.4883 L105.375,255.4883 M92.375,274.4883 L79.375,289.4883 M92.375,274.4883 L105.375,289.4883 " fill="none" style="stroke:#181818;stroke-width:0.5;"/><text fill="#000000" font-family="sans-serif" font-size="14" lengthAdjust="spacing" textLength="99.75" x="42.5" y="304.5234">Lab researcher</text></g><!--entity sim--><g id="elem_sim"><ellipse cx="92.7031" cy="145.4883" fill="#F1F1F1" rx="8" ry="8" style="stroke:#181818;stroke-width:0.5;"/><path d="M92.7031,153.4883 L92.7031,180.4883 M79.7031,161.4883 L105.7031,161.4883 M92.7031,180.4883 L79.7031,195.4883 M92.7031,180.4883 L105.7031,195.4883 " fill="none" style="stroke:#181818;stroke-width:0.5;"/><text fill="#000000" font-family="sans-serif" font-size="14" lengthAdjust="spacing" textLength="135.4063" x="25" y="210.5234">Simulation engineer</text></g><!--entity ota--><g id="elem_ota"><ellipse cx="92.6802" cy="502.4883" fill="#F1F1F1" rx="8" ry="8" style="stroke:#181818;stroke-width:0.5;"/><path d="M92.6802,510.4883 L92.6802,537.4883 M79.6802,518.4883 L105.6802,518.4883 M92.6802,537.4883 L79.6802,552.4883 M92.6802,537.4883 L105.6802,552.4883 " fill="none" style="stroke:#181818;stroke-width:0.5;"/><text fill="#000000" font-family="sans-serif" font-size="14" lengthAdjust="spacing" textLength="148.3604" x="18.5" y="567.5234">OTA testbed engineer</text></g><!--entity city--><g id="elem_city"><ellipse cx="92.2627" cy="596.4883" fill="#F1F1F1" rx="8" ry="8" style="stroke:#181818;stroke-width:0.5;"/><path d="M92.2627,604.4883 L92.2627,631.4883 M79.2627,612.4883 L105.2627,612.4883 M92.2627,631.4883 L79.2627,646.4883 M92.2627,631.4883 L105.2627,646.4883 " fill="none" style="stroke:#181818;stroke-width:0.5;"/><text fill="#000000" font-family="sans-serif" font-size="14" lengthAdjust="spacing" textLength="172.5254" x="6" y="661.5234">City / community partner</text></g><!--entity sup--><g id="elem_sup"><ellipse cx="92.4761" cy="391.4883" fill="#F1F1F1" rx="8" ry="8" style="stroke:#181818;stroke-width:0.5;"/><path d="M92.4761,399.4883 L92.4761,426.4883 M79.4761,407.4883 L105.4761,407.4883 M92.4761,426.4883 L79.4761,441.4883 M92.4761,426.4883 L105.4761,441.4883 " fill="none" style="stroke:#181818;stroke-width:0.5;"/><text fill="#000000" font-family="sans-serif" font-size="14" lengthAdjust="spacing" textLength="132.9521" x="26" y="456.5234">Doctoral supervisor</text></g><g id="elem_GMN26"><path d="M216,49.4883 L216,90.1094 A0,0 0 0 0 216,90.1094 L216.2977,90.1094 L235.2398,452.2315 L224.2977,90.1094 L513.5483,90.1094 A0,0 0 0 0 513.5483,90.1094 L513.5483,59.4883 L503.5483,49.4883 L216,49.4883 A0,0 0 0 0 216,49.4883 " fill="#FEFFDD" style="stroke:#181818;stroke-width:0.5;"/><path d="M503.5483,49.4883 L503.5483,59.4883 L513.5483,59.4883 L503.5483,49.4883 " fill="#FEFFDD" style="stroke:#181818;stroke-width:0.5;"/><text fill="#000000" font-family="sans-serif" font-size="13" font-weight="bold" lengthAdjust="spacing" textLength="112.1123" x="222" y="67.0566">Current shipped:</text><text fill="#000000" font-family="sans-serif" font-size="13" lengthAdjust="spacing" textLength="160.3228" x="338.2256" y="67.0566">rule-based baseline only.</text><text fill="#000000" font-family="sans-serif" font-size="13" lengthAdjust="spacing" textLength="128.6543" x="222" y="82.3672">Bandit / offline RL =</text><text fill="#000000" font-family="sans-serif" font-size="13" font-weight="bold" lengthAdjust="spacing" textLength="75.1436" x="354.7676" y="82.3672">study arms</text><text fill="#000000" font-family="sans-serif" font-size="13" lengthAdjust="spacing" textLength="4.1133" x="429.9111" y="82.3672">.</text></g><g id="elem_UC1"><ellipse cx="365.2263" cy="246.8062" fill="#F1F1F1" rx="101.7263" ry="26.318" style="stroke:#181818;stroke-width:0.5;"/><text fill="#000000" font-family="sans-serif" font-size="14" lengthAdjust="spacing" textLength="117.0244" x="306.7141" y="241.8531">Import calibrated</text><text fill="#000000" font-family="sans-serif" font-size="14" lengthAdjust="spacing" textLength="127.6201" x="301.4163" y="258.3414">simulation exports</text></g><g id="elem_UC2"><ellipse cx="750.4174" cy="249.7718" fill="#F1F1F1" rx="134.4174" ry="29.2835" style="stroke:#181818;stroke-width:0.5;"/><text fill="#000000" font-family="sans-serif" font-size="14" lengthAdjust="spacing" textLength="190.3877" x="655.2235" y="244.8186">Compare scenario baselines</text><text fill="#000000" font-family="sans-serif" font-size="14" lengthAdjust="spacing" textLength="192.6846" x="654.0751" y="261.3069">fairness / energy / coverage</text></g><g id="elem_UC3"><ellipse cx="364.8635" cy="465.761" fill="#F1F1F1" rx="129.3635" ry="28.2727" style="stroke:#181818;stroke-width:0.5;"/><text fill="#000000" font-family="sans-serif" font-size="14" lengthAdjust="spacing" textLength="173.5029" x="278.112" y="460.8079">Evaluate controller ladder</text><text fill="#000000" font-family="sans-serif" font-size="14" lengthAdjust="spacing" textLength="179.5322" x="275.0974" y="477.2961">rule &#8594; bandit &#8594; offline RL</text></g><g id="elem_UC4"><ellipse cx="364.9327" cy="318.9748" fill="#F1F1F1" rx="122.9327" ry="26.9865" style="stroke:#181818;stroke-width:0.5;"/><text fill="#000000" font-family="sans-serif" font-size="14" lengthAdjust="spacing" textLength="151.6484" x="289.1085" y="314.0217">Attach pyAerial bridge</text><text fill="#000000" font-family="sans-serif" font-size="14" lengthAdjust="spacing" textLength="162.21" x="283.8278" y="330.51">workflow (external PHY)</text></g><g id="elem_UC5"><ellipse cx="364.8518" cy="542.1586" fill="#F1F1F1" rx="136.3518" ry="29.6704" style="stroke:#181818;stroke-width:0.5;"/><text fill="#000000" font-family="sans-serif" font-size="14" lengthAdjust="spacing" textLength="197.6064" x="265.0927" y="537.4485">Define OTA evidence schema</text><text fill="#000000" font-family="sans-serif" font-size="14" lengthAdjust="spacing" textLength="81.5527" x="323.1195" y="553.9368">+ manifests</text></g><g id="elem_UC6"><ellipse cx="365.1919" cy="174.9267" fill="#F1F1F1" rx="125.1919" ry="27.4384" style="stroke:#181818;stroke-width:0.5;"/><text fill="#000000" font-family="sans-serif" font-size="14" lengthAdjust="spacing" textLength="167.46" x="278.4619" y="170.7001">Prepare external AODT /</text><text fill="#000000" font-family="sans-serif" font-size="14" lengthAdjust="spacing" textLength="123.1768" x="300.6035" y="187.1884">Sionna heavy runs</text></g><g id="elem_UC7"><ellipse cx="364.9662" cy="391.7815" fill="#F1F1F1" rx="124.4662" ry="27.2932" style="stroke:#181818;stroke-width:0.5;"/><text fill="#000000" font-family="sans-serif" font-size="14" lengthAdjust="spacing" textLength="165.4092" x="279.2617" y="387.555">Review reproducibility +</text><text fill="#000000" font-family="sans-serif" font-size="14" lengthAdjust="spacing" textLength="112.6426" x="305.645" y="404.0432">provenance tiers</text></g><g id="elem_UC8"><ellipse cx="365.0113" cy="615.8747" fill="#F1F1F1" rx="109.5113" ry="26.3865" style="stroke:#181818;stroke-width:0.5;"/><text fill="#000000" font-family="sans-serif" font-size="14" lengthAdjust="spacing" textLength="138.1885" x="292.9171" y="611.6482">Co-design civic KPIs</text><text fill="#000000" font-family="sans-serif" font-size="14" lengthAdjust="spacing" textLength="120.0869" x="301.9678" y="628.1365">with stakeholders</text></g><polygon fill="#181818" points="263.4958,255.1624,254.2012,251.9051,258.5123,255.5677,254.8497,259.8788,263.4958,255.1624" style="stroke:#181818;stroke-width:1.0;"/><path d="M142.7993,264.9787 C176.4766,262.2397 216.3133,258.9998 257.5155,255.6488 " fill="none" style="stroke:#181818;stroke-width:1.0;"/><polygon fill="#181818" points="703.0652,220.2384,697.4018,212.1808,698.7765,217.6681,693.2892,219.0427,703.0652,220.2384" style="stroke:#181818;stroke-width:1.0;"/><path d="M142.6291,249.033 C155.6828,241.9691 168.9321,232.9804 179,221.9883 C206.5537,191.9052 181.831,160.2745 216,137.9883 C271.4669,101.8108 449.4024,123.4098 514,137.9883 C583.7775,153.7357 651.9837,189.6235 697.9187,217.154 " fill="none" style="stroke:#181818;stroke-width:1.0;"/><polygon fill="#181818" points="240.4532,364.8048,233.3054,358.0291,235.7402,363.1352,230.6341,365.5699,240.4532,364.8048" style="stroke:#181818;stroke-width:1.0;"/><path d="M139.0254,306.9974 C161.0997,323.7931 188.7012,342.5168 216,354.9883 C223.8293,358.5651 226.4005,359.8266 234.7976,362.8013 " fill="none" style="stroke:#181818;stroke-width:1.0;"/><polygon fill="#181818" points="263.1281,223.1276,255.3604,217.0725,258.276,221.9201,253.4285,224.8357,263.1281,223.1276" style="stroke:#181818;stroke-width:1.0;"/><path d="M160.0948,195.1796 C178.1841,200.4944 197.8024,206.104 216,210.9883 C231.1961,215.0669 241.501,217.7454 257.3056,221.6786 " fill="none" style="stroke:#181818;stroke-width:1.0;"/><polygon fill="#181818" points="239.8803,174.9883,230.8803,170.9883,234.8803,174.9883,230.8803,178.9883,239.8803,174.9883" style="stroke:#181818;stroke-width:1.0;"/><path d="M160.0182,174.9883 C184.1867,174.9883 206.3433,174.9883 233.8803,174.9883 " fill="none" style="stroke:#181818;stroke-width:1.0;"/><polygon fill="#181818" points="228.4567,536.9774,219.6106,532.6477,223.4601,536.7927,219.3151,540.6422,228.4567,536.9774" style="stroke:#181818;stroke-width:1.0;"/><path d="M166.7012,534.6944 C185.8681,535.403 201.1616,535.9684 222.4608,536.7558 " fill="none" style="stroke:#181818;stroke-width:1.0;"/><polygon fill="#181818" points="255.1466,620.0124,246.0049,616.3477,250.15,620.1972,246.3005,624.3422,255.1466,620.0124" style="stroke:#181818;stroke-width:1.0;"/><path d="M179.0879,622.8242 C203.2338,621.9316 223.8361,621.1699 249.1507,620.2341 " fill="none" style="stroke:#181818;stroke-width:1.0;"/><polygon fill="#181818" points="235.3019,444.5783,227.0804,439.1555,230.3697,443.7577,225.7675,447.0471,235.3019,444.5783" style="stroke:#181818;stroke-width:1.0;"/><path d="M159.3258,431.939 C182.3143,435.7633 203.0554,439.2138 229.3833,443.5936 " fill="none" style="stroke:#181818;stroke-width:1.0;"/><polygon fill="#181818" points="240.4011,405.2392,231.026,402.2214,235.4296,405.7722,231.8788,410.1758,240.4011,405.2392" style="stroke:#181818;stroke-width:1.0;"/><path d="M159.3258,413.9312 C183.8,411.3073 206.4694,408.877 234.4353,405.8788 " fill="none" style="stroke:#181818;stroke-width:1.0;"/><polygon fill="#181818" points="719.1142,279.708,709.8155,282.9536,715.4695,283.131,715.2922,288.785,719.1142,279.708" style="stroke:#181818;stroke-width:1.0;"/><path d="M494.3144,437.4173 C501.0689,434.8295 507.6724,432.025 514,428.9883 C595.7185,389.7703 672.3252,323.6509 714.7406,283.8156 " fill="none" style="stroke:#181818;stroke-width:1.0;stroke-dasharray:7.0,7.0;"/><text fill="#000000" font-family="sans-serif" font-size="13" lengthAdjust="spacing" textLength="62.2959" x="534" y="375.5566">&#171;informs&#187;</text><!--SRC=[LLJRRjim37tNLt1vMjqbnThrWg8haAKRLgn0YruU1kH5iMX7g2mP59qqA0RiQHymx0lx9QDIEt6VV4oJX-BXaT_LfCjAWzEhq3342bbxhTYoGtY82BcE6E7bzpye6cu8WJ2YfdmEseIQRV3mFijOKucSPH_01mRj7DYgTbYXPpGxIZai63W0sNBEO2nXdagLqZa7Wi6Ldcs8aGQW8pZgFjxPgd5wtGfzQJss6T5MNShr_HWO8y_GlCq9hBkSYUKLx44Ugghn2TUQsBTvkGIwn8kGdjf1R6gaXOsXxTVKIgMJQr-AEeDlhu9iTS0dHl9Ik2l3r052cYOohS- -Cu1d1T14J9B2uBAg0x7ew-nCCj1CVUmD-fI-ndNVXyd7Vk4aL79oX9YZrsG3p2JiPEGuzOMs923Ad2YZbQy3Br2MZ2tNVf_hwqAxHffBacSApY695On1cdfgPCYNFt-5tnlBQnYA8dM2swkMxQ3FDcRMOenwDKQo8iECh2bnwfU17WiNbZs5Rhx_t6afFlKfBh18_6cVkB06VPu6dMEbftuNAkrj8OfskXpsIsz4ywJBfiVu-k8UzgR-JWJr6kQe5okWndVLH_tgMsc7oxGt2gR9xSowv97TgPV0GfHE9s6Br5KVlzt9q62qfHSZBMmEFsukPHjBotE8h1zn7fpPbfweNt8b28R3y_LoDt1_2u-Lk66JiSL7IYpTuaELRDk-d2ZnPuiFUlXOAGd0QBHk0ATmTcPz4QYAv-TAoNL5c0NcKCbosuLcsQGXahiBSMxh6irfba6omp1PpMmC1y6xrKWAlhmwPA_d3_WiD94Rim8jlR9ifD2Rz7j0zHy0]--></g></svg>