<svg xmlns="http://www.w3.org/2000/svg" xmlns:xlink="http://www.w3.org/1999/xlink" contentStyleType="text/css" height="720px" preserveAspectRatio="none" style="width:465px;height:720px;background:#FFFFFF;" version="1.1" viewBox="0 0 465 720" width="465px" zoomAndPan="magnify"><title>Use cases &#8212; completed research extension (current)</title><defs/><g><text fill="#000000" font-family="sans-serif" font-size="14" font-weight="bold" lengthAdjust="spacing" textLength="377.8838" x="40.0581" y="23.5352">Use cases &#8212; completed research extension (current)</text><!--cluster Gary extension + simulation UI--><g id="cluster_Gary extension + simulation UI"><rect fill="none" height="609" rx="2.5" ry="2.5" style="stroke:#181818;stroke-width:1.0;" width="285" x="174" y="105.4883"/><text fill="#000000" font-family="sans-serif" font-size="14" font-weight="bold" lengthAdjust="spacing" textLength="224.2734" x="204.3633" y="121.0234">Gary extension + simulation UI</text></g><!--entity rv--><g id="elem_rv"><ellipse cx="75.873" cy="412.9883" fill="#F1F1F1" rx="8" ry="8" style="stroke:#181818;stroke-width:0.5;"/><path d="M75.873,420.9883 L75.873,447.9883 M62.873,428.9883 L88.873,428.9883 M75.873,447.9883 L62.873,462.9883 M75.873,447.9883 L88.873,462.9883 " fill="none" style="stroke:#181818;stroke-width:0.5;"/><text fill="#000000" font-family="sans-serif" font-size="14" lengthAdjust="spacing" textLength="108.7461" x="21.5" y="478.0234">Research viewer</text></g><!--entity loc--><g id="elem_loc"><ellipse cx="75.7695" cy="167.9883" fill="#F1F1F1" rx="8" ry="8" style="stroke:#181818;stroke-width:0.5;"/><path d="M75.7695,175.9883 L75.7695,202.9883 M62.7695,183.9883 L88.7695,183.9883 M75.7695,202.9883 L62.7695,217.9883 M75.7695,202.9883 L88.7695,217.9883 " fill="none" style="stroke:#181818;stroke-width:0.5;"/><text fill="#000000" font-family="sans-serif" font-size="14" lengthAdjust="spacing" textLength="130.5391" x="10.5" y="233.0234">Local experimenter</text></g><!--entity judge--><g id="elem_judge"><ellipse cx="76.0308" cy="506.9883" fill="#F1F1F1" rx="8" ry="8" style="stroke:#181818;stroke-width:0.5;"/><path d="M76.0308,514.9883 L76.0308,541.9883 M63.0308,522.9883 L89.0308,522.9883 M76.0308,541.9883 L63.0308,556.9883 M76.0308,541.9883 L89.0308,556.9883 " fill="none" style="stroke:#181818;stroke-width:0.5;"/><text fill="#000000" font-family="sans-serif" font-size="14" lengthAdjust="spacing" textLength="140.0615" x="6" y="572.0234">Judge in Judge Mode</text></g><!--entity sup--><g id="elem_sup"><ellipse cx="75.8804" cy="614.4883" fill="#F1F1F1" rx="8" ry="8" style="stroke:#181818;stroke-width:0.5;"/><path d="M75.8804,622.4883 L75.8804,649.4883 M62.8804,630.4883 L88.8804,630.4883 M75.8804,649.4883 L62.8804,664.4883 M75.8804,649.4883 L88.8804,664.4883 " fill="none" style="stroke:#181818;stroke-width:0.5;"/><text fill="#000000" font-family="sans-serif" font-size="14" lengthAdjust="spacing" textLength="83.0977" x="20" y="679.5234">Supervisor /</text><text fill="#000000" font-family="sans-serif" font-size="14" lengthAdjust="spacing" textLength="111.7607" x="20" y="696.0117">reviewer (future)</text></g><g id="elem_GMN25"><path d="M194.5,41.4883 L194.5,75.4682 L182.2156,577.0832 L194.5,83.4682 L194.5,97.4199 A0,0 0 0 0 194.5,97.4199 L438.8994,97.4199 A0,0 0 0 0 438.8994,97.4199 L438.8994,51.4883 L428.8994,41.4883 L194.5,41.4883 A0,0 0 0 0 194.5,41.4883 " fill="#FEFFDD" style="stroke:#181818;stroke-width:0.5;"/><path d="M428.8994,41.4883 L428.8994,51.4883 L438.8994,51.4883 L428.8994,41.4883 " fill="#FEFFDD" style="stroke:#181818;stroke-width:0.5;"/><text fill="#000000" font-family="sans-serif" font-size="13" font-weight="bold" lengthAdjust="spacing" textLength="223.3994" x="200.5" y="59.0566">Detector-conditioned rule-based</text><text fill="#000000" font-family="sans-serif" font-size="13" font-weight="bold" lengthAdjust="spacing" textLength="185.0532" x="200.5" y="74.3672">closed-loop policy baseline</text><text fill="#000000" font-family="sans-serif" font-size="13" font-weight="bold" lengthAdjust="spacing" textLength="152.4897" x="200.5" y="89.6777">(RIC-style abstraction)</text></g><g id="elem_UC1"><ellipse cx="316.2932" cy="452.2469" fill="#F1F1F1" rx="126.7932" ry="27.7586" style="stroke:#181818;stroke-width:0.5;"/><text fill="#000000" font-family="sans-serif" font-size="14" lengthAdjust="spacing" textLength="125.9521" x="253.3172" y="447.2938">Select Gary anchor</text><text fill="#000000" font-family="sans-serif" font-size="14" lengthAdjust="spacing" textLength="172.6963" x="229.9451" y="463.7821">City Hall / Library / WSLA</text></g><g id="elem_UC2"><ellipse cx="316.5373" cy="160.4957" fill="#F1F1F1" rx="128.0373" ry="28.0075" style="stroke:#181818;stroke-width:0.5;"/><text fill="#000000" font-family="sans-serif" font-size="14" lengthAdjust="spacing" textLength="175.3896" x="225.8425" y="156.2692">Configure scenario preset</text><text fill="#000000" font-family="sans-serif" font-size="14" lengthAdjust="spacing" textLength="154.2188" x="236.4279" y="172.7575">+ RF stress + calendar</text></g><g id="elem_UC3"><ellipse cx="316.3745" cy="306.2632" fill="#F1F1F1" rx="126.8745" ry="27.7749" style="stroke:#181818;stroke-width:0.5;"/><text fill="#000000" font-family="sans-serif" font-size="14" lengthAdjust="spacing" textLength="172.1699" x="227.2896" y="302.0366">Inspect digital twin scene</text><text fill="#000000" font-family="sans-serif" font-size="14" lengthAdjust="spacing" textLength="121.0918" x="252.8286" y="318.5249">pydeck + legends</text></g><g id="elem_UC4"><ellipse cx="316.4227" cy="379.5728" fill="#F1F1F1" rx="120.9227" ry="26.5845" style="stroke:#181818;stroke-width:0.5;"/><text fill="#000000" font-family="sans-serif" font-size="14" lengthAdjust="spacing" textLength="134.5928" x="249.1263" y="374.6197">Inspect KPI changes</text><text fill="#000000" font-family="sans-serif" font-size="14" lengthAdjust="spacing" textLength="156.6318" x="238.1068" y="391.108">after rule-based action</text></g><g id="elem_UC5"><ellipse cx="316.465" cy="599.6813" fill="#F1F1F1" rx="133.965" ry="29.193" style="stroke:#181818;stroke-width:0.5;"/><text fill="#000000" font-family="sans-serif" font-size="14" lengthAdjust="spacing" textLength="191.3994" x="218.5474" y="595.2753">Inspect controller semantics</text><text fill="#000000" font-family="sans-serif" font-size="14" lengthAdjust="spacing" textLength="190.9004" x="218.797" y="611.7636">state / action / heuristic KPI</text></g><g id="elem_UC6"><ellipse cx="316.4019" cy="525.6687" fill="#F1F1F1" rx="123.9019" ry="27.1804" style="stroke:#181818;stroke-width:0.5;"/><text fill="#000000" font-family="sans-serif" font-size="14" lengthAdjust="spacing" textLength="140.1572" x="246.3232" y="520.7155">Inspect simulation +</text><text fill="#000000" font-family="sans-serif" font-size="14" lengthAdjust="spacing" textLength="164.8691" x="233.9673" y="537.2038">provenance status cards</text></g><g id="elem_UC7"><ellipse cx="316.5212" cy="676.2925" fill="#F1F1F1" rx="134.5212" ry="29.3042" style="stroke:#181818;stroke-width:0.5;"/><text fill="#000000" font-family="sans-serif" font-size="14" lengthAdjust="spacing" textLength="165.792" x="233.6252" y="671.3394">Read future scaling path</text><text fill="#000000" font-family="sans-serif" font-size="14" lengthAdjust="spacing" textLength="192.9512" x="220.0456" y="687.8277">AODT / pyAerial / OTA docs</text></g><g id="elem_UC8"><ellipse cx="316.7322" cy="233.4062" fill="#F1F1F1" rx="117.7322" ry="26.4179" style="stroke:#181818;stroke-width:0.5;"/><text fill="#000000" font-family="sans-serif" font-size="14" lengthAdjust="spacing" textLength="149.5635" x="238.9504" y="229.1796">Toggle demo vs data/</text><text fill="#000000" font-family="sans-serif" font-size="14" lengthAdjust="spacing" textLength="135.1875" x="246.1384" y="245.6679">manifest load mode</text></g><polygon fill="#181818" points="189.0918,447.1881,180.2673,442.8146,184.0962,446.9787,179.9322,450.8076,189.0918,447.1881" style="stroke:#181818;stroke-width:1.0;"/><path d="M130.5241,444.7325 C148.1035,445.4696 162.4595,446.0715 183.0971,446.9368 " fill="none" style="stroke:#181818;stroke-width:1.0;"/><polygon fill="#181818" points="191.5538,334.5578,181.7049,334.5811,186.9895,336.5993,184.9713,341.8839,191.5538,334.5578" style="stroke:#181818;stroke-width:1.0;"/><path d="M105.9323,404.0897 C123.4875,383.3076 147.5666,358.823 174,343.4883 C179.6007,340.2391 180.0125,339.72 186.0767,337.0076 " fill="none" style="stroke:#181818;stroke-width:1.0;"/><polygon fill="#181818" points="200.9768,498.4754,193.5399,492.0184,196.1954,497.0133,191.2005,499.6687,200.9768,498.4754" style="stroke:#181818;stroke-width:1.0;"/><path d="M130.543,470.8153 C144.4545,477.5103 159.5865,484.2242 174,489.4883 C182.6908,492.6623 186.0421,493.9085 195.2391,496.7209 " fill="none" style="stroke:#181818;stroke-width:1.0;"/><polygon fill="#181818" points="188.408,180.2049,178.9011,177.6319,183.4671,180.9714,180.1276,185.5373,188.408,180.2049" style="stroke:#181818;stroke-width:1.0;"/><path d="M141.5415,187.4755 C156.1647,185.207 166.2601,183.6408 182.4789,181.1247 " fill="none" style="stroke:#181818;stroke-width:1.0;"/><polygon fill="#181818" points="198.9806,215.9004,190.6784,210.602,194.0366,215.1542,189.4844,218.5124,198.9806,215.9004" style="stroke:#181818;stroke-width:1.0;"/><path d="M141.5415,207.2304 C159.3377,209.9166 173.2764,212.0206 193.0478,215.0049 " fill="none" style="stroke:#181818;stroke-width:1.0;"/><polygon fill="#181818" points="200.2304,480.6062,190.4469,479.4739,195.4582,482.0981,192.8339,487.1095,200.2304,480.6062" style="stroke:#181818;stroke-width:1.0;"/><path d="M146.228,500.9351 C155.4482,496.7959 164.8709,492.8567 174,489.4883 C182.4568,486.3679 185.5626,485.1918 194.5038,482.3965 " fill="none" style="stroke:#181818;stroke-width:1.0;"/><polygon fill="#181818" points="205.5904,570.4556,197.9104,564.2897,200.7562,569.1786,195.8673,572.0244,205.5904,570.4556" style="stroke:#181818;stroke-width:1.0;"/><path d="M146.3045,554.7951 C164.8716,559.6997 179.6095,563.5927 199.7894,568.9232 " fill="none" style="stroke:#181818;stroke-width:1.0;"/><polygon fill="#181818" points="192.1095,531.1792,182.9348,527.5981,187.1148,531.4096,183.3034,535.5897,192.1095,531.1792" style="stroke:#181818;stroke-width:1.0;"/><path d="M146.3045,533.2918 C160.7456,532.6258 170.3858,532.1812 186.1159,531.4557 " fill="none" style="stroke:#181818;stroke-width:1.0;"/><polygon fill="#181818" points="184.6418,628.5679,174.9884,626.6155,179.7608,629.6525,176.7238,634.425,184.6418,628.5679" style="stroke:#181818;stroke-width:1.0;"/><path d="M132.0162,640.2625 C147.9741,636.7163 160.2622,633.9856 178.7847,629.8695 " fill="none" style="stroke:#181818;stroke-width:1.0;"/><polygon fill="#181818" points="181.7709,663.0313,173.2166,658.1503,176.796,662.5306,172.4156,666.1101,181.7709,663.0313" style="stroke:#181818;stroke-width:1.0;"/><path d="M132.0162,658.0245 C147.1487,659.5473 158.2783,660.6672 175.801,662.4305 " fill="none" style="stroke:#181818;stroke-width:1.0;"/><!--SRC=[RLDDRnCn4BtxLmmvjOcYY9P-d92YL42Wg2Xjn2MNYJtP6BpsofvDMI4aVWI_a5_2UBD95octiMRUcvatpw-gY4M9uB09DKCgYT6ZOikEO9a8D2PAyFVt7z2Xh1mn6OYK2AFU0lrWyia63sUwZf4ydolbQCF00Q8jjWp6Hj8i9KgXvX1Xi3YWTvQUAGu04yJT8NiVD3eXhYZQKWYx0XVqeU9ZRGe2ws4VV0w6sf9l-NaeUgo5O6UJn9ELZxJl1MURckj8voqWrPLIUJhqXMmxU8-nwQqqWcJBsc4U7fRp0VnK07MYh8Wq82T8Q37ezJR4bPzPRk03EWSJkBVhc7CJ-FfuFstxBMUl-mopu3Usa6aWQV8ORO0gAyihFuB5EqWihoHZY23a3SQEvA9FClUfodCOMrWMuVXPXCbyjF9LOqX_5m97XH2a3dzv2l_fonpqLeIWjFAu4TaXrex6QwaoWEq5E_oRKtWTFCVWdE0IbUZPQY5AZ4mYmHulmPRgQ9CaSyEEx-eKNq_waMmImquaybgq4iewYIRnkD1rds11Q61_PT41dVK5LCZRbPy-t3t925Kp5MjXlj73qnHCq0UUcpxFKoYoAGoL0NO933AAaMGpkw74uaTfKnwijvpTgb_YfHsCns_REn_3ovVmMecBk_YY5z-grhf7RFzrzT_hMebdZvcN-4Of7qJfTM0E9OHD9-jmU2SVDl-8iHp8sAnd_h_7omw7RPLsGHvZ5q85LN1MDv3J8Xvr5MUB-MoSk159S2tEt5_qNBBYBCZDrJy0]--></g></svg>