<svg xmlns="http://www.w3.org/2000/svg" xmlns:xlink="http://www.w3.org/1999/xlink" contentStyleType="text/css" height="710px" preserveAspectRatio="none" style="width:786px;height:710px;background:#FFFFFF;" version="1.1" viewBox="0 0 786 710" width="786px" zoomAndPan="magnify"><title>Use cases &#8212; judged competition core</title><defs/><g><text fill="#000000" font-family="sans-serif" font-size="14" font-weight="bold" lengthAdjust="spacing" textLength="270.0605" x="254.4697" y="23.5352">Use cases &#8212; judged competition core</text><!--cluster Competition core--><g id="cluster_Competition core"><rect fill="none" height="636" rx="2.5" ry="2.5" style="stroke:#181818;stroke-width:1.0;" width="613" x="167" y="68.9883"/><text fill="#000000" font-family="sans-serif" font-size="14" font-weight="bold" lengthAdjust="spacing" textLength="124.1338" x="411.4331" y="84.5234">Competition core</text></g><!--entity judge--><g id="elem_judge"><ellipse cx="71.7637" cy="166.4883" fill="#F1F1F1" rx="8" ry="8" style="stroke:#181818;stroke-width:0.5;"/><path d="M71.7637,174.4883 L71.7637,201.4883 M58.7637,182.4883 L84.7637,182.4883 M71.7637,201.4883 L58.7637,216.4883 M71.7637,201.4883 L84.7637,216.4883 " fill="none" style="stroke:#181818;stroke-width:0.5;"/><text fill="#000000" font-family="sans-serif" font-size="14" lengthAdjust="spacing" textLength="115.5273" x="14" y="231.5234">SpectrumX judge</text></g><!--entity dev--><g id="elem_dev"><ellipse cx="72.0449" cy="392.9883" fill="#F1F1F1" rx="8" ry="8" style="stroke:#181818;stroke-width:0.5;"/><path d="M72.0449,400.9883 L72.0449,427.9883 M59.0449,408.9883 L85.0449,408.9883 M72.0449,427.9883 L59.0449,442.9883 M72.0449,427.9883 L85.0449,442.9883 " fill="none" style="stroke:#181818;stroke-width:0.5;"/><text fill="#000000" font-family="sans-serif" font-size="14" lengthAdjust="spacing" textLength="80.0898" x="32" y="458.0234">Developer /</text><text fill="#000000" font-family="sans-serif" font-size="14" lengthAdjust="spacing" textLength="76.5352" x="32" y="474.5117">contributor</text></g><!--entity org--><g id="elem_org"><ellipse cx="72.1582" cy="49.9883" fill="#F1F1F1" rx="8" ry="8" style="stroke:#181818;stroke-width:0.5;"/><path d="M72.1582,57.9883 L72.1582,84.9883 M59.1582,65.9883 L85.1582,65.9883 M72.1582,84.9883 L59.1582,99.9883 M72.1582,84.9883 L85.1582,99.9883 " fill="none" style="stroke:#181818;stroke-width:0.5;"/><text fill="#000000" font-family="sans-serif" font-size="14" lengthAdjust="spacing" textLength="96.79" x="6" y="115.0234">Leaderboard /</text><text fill="#000000" font-family="sans-serif" font-size="14" lengthAdjust="spacing" textLength="132.3164" x="6" y="131.5117">organizer evaluator</text></g><!--entity loc--><g id="elem_loc"><ellipse cx="71.7695" cy="504.4883" fill="#F1F1F1" rx="8" ry="8" style="stroke:#181818;stroke-width:0.5;"/><path d="M71.7695,512.4883 L71.7695,539.4883 M58.7695,520.4883 L84.7695,520.4883 M71.7695,539.4883 L58.7695,554.4883 M71.7695,539.4883 L84.7695,554.4883 " fill="none" style="stroke:#181818;stroke-width:0.5;"/><text fill="#000000" font-family="sans-serif" font-size="14" lengthAdjust="spacing" textLength="130.5391" x="6.5" y="569.5234">Local experimenter</text></g><g id="elem_UC1"><ellipse cx="313.8052" cy="126.1493" fill="#F1F1F1" rx="136.3052" ry="29.661" style="stroke:#181818;stroke-width:0.5;"/><text fill="#000000" font-family="sans-serif" font-size="14" lengthAdjust="spacing" textLength="163.1943" x="232.208" y="121.1962">Review headline metrics</text><text fill="#000000" font-family="sans-serif" font-size="14" lengthAdjust="spacing" textLength="197.5107" x="215.0498" y="137.6845">from submission_metrics.csv</text></g><g id="elem_UC2"><ellipse cx="314.2142" cy="444.8062" fill="#F1F1F1" rx="118.2142" ry="26.318" style="stroke:#181818;stroke-width:0.5;"/><text fill="#000000" font-family="sans-serif" font-size="14" lengthAdjust="spacing" textLength="140.998" x="243.7152" y="439.8531">Load local IQ sample</text><text fill="#000000" font-family="sans-serif" font-size="14" lengthAdjust="spacing" textLength="150.9375" x="238.7455" y="456.3414">(.npy upload or demo)</text></g><g id="elem_UC3"><ellipse cx="314.0909" cy="519.8065" fill="#F1F1F1" rx="137.0909" ry="29.8182" style="stroke:#181818;stroke-width:0.5;"/><text fill="#000000" font-family="sans-serif" font-size="14" lengthAdjust="spacing" textLength="165.4434" x="231.3692" y="514.8533">Run packaged evaluate()</text><text fill="#000000" font-family="sans-serif" font-size="14" lengthAdjust="spacing" textLength="199.5068" x="214.3375" y="531.3416">on in-memory IQ in Streamlit</text></g><g id="elem_UC4"><ellipse cx="314.1388" cy="295.016" fill="#F1F1F1" rx="120.6388" ry="26.5278" style="stroke:#181818;stroke-width:0.5;"/><text fill="#000000" font-family="sans-serif" font-size="14" lengthAdjust="spacing" textLength="154.376" x="233.9508" y="290.7895">Run evaluate(filename)</text><text fill="#000000" font-family="sans-serif" font-size="14" lengthAdjust="spacing" textLength="139.501" x="241.3883" y="307.2778">offline in Python env</text></g><g id="elem_UC5"><ellipse cx="314.1245" cy="597.1132" fill="#F1F1F1" rx="131.1245" ry="28.6249" style="stroke:#181818;stroke-width:0.5;"/><text fill="#000000" font-family="sans-serif" font-size="14" lengthAdjust="spacing" textLength="183.8115" x="219.2187" y="592.8866">Compute compact features</text><text fill="#000000" font-family="sans-serif" font-size="14" lengthAdjust="spacing" textLength="124.2158" x="249.0165" y="609.3749">for interpretability</text></g><g id="elem_UC6"><ellipse cx="663.3553" cy="294.8699" fill="#F1F1F1" rx="108.3553" ry="26.3817" style="stroke:#181818;stroke-width:0.5;"/><text fill="#000000" font-family="sans-serif" font-size="14" lengthAdjust="spacing" textLength="136.5889" x="592.0608" y="290.6434">Classify occupied vs</text><text fill="#000000" font-family="sans-serif" font-size="14" lengthAdjust="spacing" textLength="111.6035" x="604.5535" y="307.1317">noise-only (0/1)</text></g><g id="elem_UC7"><ellipse cx="313.9386" cy="211.9652" fill="#F1F1F1" rx="80.4386" ry="37.9769" style="stroke:#181818;stroke-width:0.5;"/><text fill="#000000" font-family="sans-serif" font-size="14" lengthAdjust="spacing" textLength="90.8428" x="268.5172" y="198.7679">Inspect PSD /</text><text fill="#000000" font-family="sans-serif" font-size="14" lengthAdjust="spacing" textLength="97.5146" x="265.1812" y="215.2562">spectrogram /</text><text fill="#000000" font-family="sans-serif" font-size="14" lengthAdjust="spacing" textLength="78.1348" x="274.8712" y="231.7445">microscope</text></g><g id="elem_UC8"><ellipse cx="313.8825" cy="370.1648" fill="#F1F1F1" rx="138.8825" ry="30.1765" style="stroke:#181818;stroke-width:0.5;"/><text fill="#000000" font-family="sans-serif" font-size="14" lengthAdjust="spacing" textLength="204.0322" x="211.8664" y="365.2117">Compare submission versions</text><text fill="#000000" font-family="sans-serif" font-size="14" lengthAdjust="spacing" textLength="109.7168" x="259.0241" y="381.6999">inventory + CSV</text></g><g id="elem_UC9"><ellipse cx="313.9397" cy="669.9069" fill="#F1F1F1" rx="117.9397" ry="26.4186" style="stroke:#181818;stroke-width:0.5;"/><text fill="#000000" font-family="sans-serif" font-size="14" lengthAdjust="spacing" textLength="149.8506" x="236.0144" y="665.6803">Review reproducibility</text><text fill="#000000" font-family="sans-serif" font-size="14" lengthAdjust="spacing" textLength="123.2793" x="249.3" y="682.1686">notes + user_reqs</text></g><polygon fill="#181818" points="199.6369,155.5826,189.8921,154.1548,194.8218,156.9295,192.0472,161.8591,199.6369,155.5826" style="stroke:#181818;stroke-width:1.0;"/><path d="M130.5005,176.4447 C142.5206,172.5227 155.1434,168.5238 167,164.9883 C177.5596,161.8395 182.806,160.2905 193.8587,157.1988 " fill="none" style="stroke:#181818;stroke-width:1.0;"/><polygon fill="#181818" points="233.1108,206.6623,224.3968,202.0725,228.1219,206.3297,223.8647,210.0548,233.1108,206.6623" style="stroke:#181818;stroke-width:1.0;"/><path d="M130.1811,199.8004 C160.9606,201.8523 193.4324,204.0171 227.1241,206.2632 " fill="none" style="stroke:#181818;stroke-width:1.0;"/><polygon fill="#181818" points="195.8885,438.1568,187.1367,433.6395,190.897,437.8656,186.6708,441.6259,195.8885,438.1568" style="stroke:#181818;stroke-width:1.0;"/><path d="M112.0943,433.2688 C135.1396,434.6131 159.6467,436.0427 189.8987,437.8074 " fill="none" style="stroke:#181818;stroke-width:1.0;"/><polygon fill="#181818" points="183.4953,489.8492,177.0818,482.3748,178.9788,487.7041,173.6496,489.6011,183.4953,489.8492" style="stroke:#181818;stroke-width:1.0;"/><path d="M112.0001,445.2519 C126.8212,451.6325 143.3967,459.99 157,469.9883 C162.3238,473.9012 161.3569,477.5517 167,480.9883 C172.2658,484.1951 172.3754,484.5677 178.0755,487.275 " fill="none" style="stroke:#181818;stroke-width:1.0;"/><polygon fill="#181818" points="193.2006,318.3947,183.36,317.9901,188.5519,320.236,186.3061,325.4279,193.2006,318.3947" style="stroke:#181818;stroke-width:1.0;"/><path d="M106.8983,384.4468 C123.0898,365.2811 143.9618,344.4569 167,330.9883 C175.2262,326.1791 178.4963,324.219 187.6222,320.6042 " fill="none" style="stroke:#181818;stroke-width:1.0;"/><polygon fill="#181818" points="182.9165,570.5663,177.2807,562.4893,178.6366,567.9813,173.1447,569.3372,182.9165,570.5663" style="stroke:#181818;stroke-width:1.0;"/><path d="M112.0736,459.3728 C121.4413,467.5146 130.8039,476.9354 138,486.9883 C148.0401,501.0142 154.0464,547.5982 167,558.9883 C171.9173,563.3121 172.1307,564.0518 177.7807,567.4643 " fill="none" style="stroke:#181818;stroke-width:1.0;"/><polygon fill="#181818" points="194.8422,400.0201,185.1342,398.3603,189.9963,401.2517,187.1049,406.1138,194.8422,400.0201" style="stroke:#181818;stroke-width:1.0;"/><path d="M112.0943,421.0518 C134.8739,415.262 159.1193,409.0996 189.0271,401.4981 " fill="none" style="stroke:#181818;stroke-width:1.0;"/><polygon fill="#181818" points="193.1782,277.3492,186.9282,269.7375,188.7093,275.1067,183.3401,276.8878,193.1782,277.3492" style="stroke:#181818;stroke-width:1.0;"/><path d="M127.8832,134.7349 C131.6267,139.2984 135.0686,144.0695 138,148.9883 C163.8838,192.4196 130.964,223.5249 167,258.9883 C174.629,266.496 178.1965,269.8313 187.8155,274.6582 " fill="none" style="stroke:#181818;stroke-width:1.0;"/><polygon fill="#181818" points="646.1027,268.4128,644.5207,258.6918,643.3645,264.2292,637.827,263.073,646.1027,268.4128" style="stroke:#181818;stroke-width:1.0;"/><path d="M138.0786,73.1936 C216.152,58.6756 349.4595,44.3182 453,86.9883 C543.2723,124.1904 611.9178,216.1841 642.8168,263.3925 " fill="none" style="stroke:#181818;stroke-width:1.0;"/><polygon fill="#181818" points="195.7572,470.8877,185.9732,469.7589,190.9855,472.3813,188.3631,477.3936,195.7572,470.8877" style="stroke:#181818;stroke-width:1.0;"/><path d="M135.0409,495.9156 C145.4791,490.4161 156.3768,485.2015 167,480.9883 C176.2216,477.3309 180.1965,475.7585 190.0312,472.68 " fill="none" style="stroke:#181818;stroke-width:1.0;"/><polygon fill="#181818" points="176.9881,527.9223,167.7704,524.4532,171.9966,528.2135,168.2363,532.4396,176.9881,527.9223" style="stroke:#181818;stroke-width:1.0;"/><path d="M137.6313,530.2181 C149.9878,529.4973 157.3576,529.0674 170.9983,528.2717 " fill="none" style="stroke:#181818;stroke-width:1.0;"/><polygon fill="#181818" points="202.9694,568.417,195.2731,562.2716,198.1319,567.1529,193.2505,570.0117,202.9694,568.417" style="stroke:#181818;stroke-width:1.0;"/><path d="M137.7126,551.2474 C147.523,553.8499 157.5281,556.4961 167,558.9883 C178.6516,562.054 185.0248,563.728 197.1643,566.9001 " fill="none" style="stroke:#181818;stroke-width:1.0;"/><polygon fill="#181818" points="639.8641,321.6431,630.9056,325.7352,636.5518,325.3886,636.8984,331.0348,639.8641,321.6431" style="stroke:#181818;stroke-width:1.0;"/><path d="M434.5629,489.9451 C440.9151,487.1956 447.1032,484.2154 453,480.9883 C530.8664,438.3751 600.2082,366.486 635.8893,326.1377 " fill="none" style="stroke:#181818;stroke-width:1.0;stroke-dasharray:7.0,7.0;"/><text fill="#000000" font-family="sans-serif" font-size="13" lengthAdjust="spacing" textLength="62.9624" x="473" y="419.5566">&#171;triggers&#187;</text><polygon fill="#181818" points="554.9175,294.9883,545.9175,290.9883,549.9175,294.9883,545.9175,298.9883,554.9175,294.9883" style="stroke:#181818;stroke-width:1.0;"/><path d="M434.5898,294.9883 C473.6588,294.9883 510.7872,294.9883 548.9175,294.9883 " fill="none" style="stroke:#181818;stroke-width:1.0;stroke-dasharray:7.0,7.0;"/><text fill="#000000" font-family="sans-serif" font-size="13" lengthAdjust="spacing" textLength="62.9624" x="473" y="290.5566">&#171;triggers&#187;</text><!--SRC=[TLFBRjim4BppAxO-EGZiD75UBG9Vd4k07D8QANem4D3KIcRBXxearQf5WNv4lx1VqgKiEuhHdZJKxWntHwDNDSdAIZ2ozIb2i1YbaoBgQ10U0uAI0GFy-VKRFgMYmWAKjpLoNNl7c508WsM4w85qjObGQ4ALgq985Jt1Q5dp2qhsurPY139iqQxX5XiqlaQ2avLJtaNIwyILhhF0PjTtZx90Mdj9HUxqL4cdlpCD6scIt37u_PxXbJI0trXRMtGHjnt6Ao7ocD9LlETeSR3J27u8W1GmRm-ZzzXe_0eRljveXy0caLPXvKho5a9QMnq2Sv_wmbI5fhldSN4wrBdtiiXtyqXtxo18MnjSkV7KrIsaskGg3rsWzKSz_Up56Cb1BTLdcJz3lpAEZzW81zfDBFEepShQmJ8IIcjqx8LcXq9xVgaDEcanwvHbjn_p7zguOLbqkqNEXmBPhnInom8x3INAc0Yp8xo0pZxNn4bQQvwWxHKkNYWOoPQLBNYbKgrveORPpkk04-zC2-FN9wSx5ow7p3iNSfxWONcRGz0To5SaRJvQhSW7nM7gkLU7Sql2mIU31Ya_-NBj6av8jl0O5iiFFV_w7q4WhCaNIUdjVddko3_9SMwa9y8leIU_4J-5wA8EaycyYyFmT2Kut3q-6-3P09yFyCK0NmkE-Rxd6LyA3jXUyndF1lX2y1ccqwuVtiBD3SUsgjY9-PnBv_yh_GK0]--></g></svg>